g armyInsect4
v 0.002925968 -0.001827526 0.001610982
v 0.006068477 0.001364317 0.001610982
v 0.006068516 -0.001827512 0.001610982
v 0.002925968 0.001364304 0.001610982
v 0.008647136 0.003235023 -8.058786E-05
v 0.005374546 -0.0003256067 -8.058786E-05
v 0.005374508 0.003235008 -8.058786E-05
v 0.008647175 -0.0003255888 -8.058786E-05
v 0.005374546 -0.003584031 -8.058786E-05
v 0.008647175 -0.003584017 -8.058786E-05
v 0.0102231 -0.0003255852 -8.058786E-05
v 0.0102231 -0.003584009 -8.058786E-05
v 0.0102231 0.00323503 -8.058786E-05
v 0.01097246 -0.0003255781 -8.058786E-05
v 0.0109725 -0.003584005 -8.058786E-05
v 0.01157652 -0.0003255745 -8.058786E-05
v 0.01157652 -0.003584003 -8.058786E-05
v 0.01157648 0.003235036 -8.058786E-05
v 0.01097246 0.003235034 -8.058786E-05
v 0.01429323 -0.0003255662 -8.058786E-05
v 0.01429323 -0.00358399 -8.058786E-05
v 0.01429323 0.00323505 -8.058786E-05
v 0.0180279 -0.0003255483 -8.058786E-05
v 0.0180279 -0.003583976 -8.058786E-05
v 0.01802786 0.003235067 -8.058786E-05
v -0.004793873 -0.0001745578 -0.0005797887
v -0.007796459 0.009127825 -0.0005797887
v -0.004793911 0.009127837 -0.0005797887
v -0.007796421 -0.0001745721 -0.0005797887
v -0.007796383 -0.009476967 -0.0005797887
v -0.004793834 -0.009476953 -0.0005797887
v -0.001348667 -0.0001745423 -0.0005797887
v -0.001348629 -0.009476937 -0.0005797887
v 0.002138195 -0.0001745268 -0.0005797887
v 0.002138233 -0.009476922 -0.0005797887
v -0.001348705 0.009127853 -0.0005797887
v 0.002138157 0.009127867 -0.0005797887
v -0.01068144 -0.0001745852 -0.0005797887
v -0.0106814 -0.00947698 -0.0005797887
v -0.01068148 0.009127811 -0.0005797887
v -0.01454695 -0.0001746031 -0.0005797887
v -0.01454687 -0.009476998 -0.0005797887
v -0.01773107 -0.0001746174 -0.0005797887
v -0.01454695 0.009127791 -0.0005797887
v -0.01773107 0.009127777 -0.0005797887
v -0.017731 -0.009477013 -0.0005797887
v 0.002105923 -0.002358217 0.001411307
v 0.006367016 0.001923571 0.001411307
v 0.006367054 -0.002358197 0.001411307
v 0.002105884 0.001923551 0.001411307
v 0.0004873084 0.009127861 0.0006682086
v 0.01178465 -0.009476876 0.0006682086
v 0.0004873847 -0.009476927 0.0006682086
v 0.01178457 0.009127913 0.0006682086
v -0.001357937 0.006047662 -0.001631815
v 0.004000454 -0.006396722 -0.001631815
v -0.001357861 -0.006396746 -0.001631815
v 0.004000416 0.006047687 -0.001631815
vt 0.2745321 0.7705854
vt 0.3532511 0.8505397
vt 0.3532511 0.7705854
vt 0.2745321 0.8505398
vt 0.1879873 0.8325037
vt 0.2535699 0.9030383
vt 0.2535699 0.8325037
vt 0.1879873 0.9030383
vt 0.2535699 0.9675867
vt 0.1879873 0.9675866
vt 0.1564054 0.9030383
vt 0.1564054 0.9675866
vt 0.1564054 0.8325037
vt 0.1413883 0.9030383
vt 0.1413883 0.9675866
vt 0.1292837 0.9030383
vt 0.1292837 0.9675866
vt 0.1292837 0.8325037
vt 0.1413883 0.8325037
vt 0.07484131 0.9030383
vt 0.07484131 0.9675867
vt 0.07484131 0.8325037
vt 0 0.9030383
vt 0 0.9675867
vt 0 0.8325037
vt 0.7392814 0.8109266
vt 0.7977943 0.6296443
vt 0.7392814 0.6296443
vt 0.7977943 0.8109265
vt 0.7977943 0.9922088
vt 0.7392814 0.9922088
vt 0.6721423 0.8109266
vt 0.6721423 0.9922088
vt 0.6041914 0.8109266
vt 0.6041914 0.9922088
vt 0.6721423 0.6296443
vt 0.6041914 0.6296443
vt 0.8540162 0.8109265
vt 0.8540162 0.9922088
vt 0.8540162 0.6296443
vt 0.9293461 0.8109266
vt 0.9293461 0.9922088
vt 0.9913971 0.8109266
vt 0.9293461 0.6296443
vt 0.9913971 0.6296443
vt 0.9913971 0.9922088
vt 0.2568513 0.8541998
vt 0.3753536 0.9732757
vt 0.3753536 0.8541998
vt 0.2568513 0.9732757
vt 0.6041914 0.6296443
vt 0.3840337 0.9922088
vt 0.6041914 0.9922088
vt 0.3840337 0.6296443
vt 0.9090537 0.01014046
vt 0.7796597 0.2605165
vt 0.9090537 0.2605166
vt 0.7796596 0.01014045
vn 0 0 1
vn 0 0 1
vn 0 0 1
vn 0 0 1
vn 0 0 1
vn 1.068366E-06 0 1
vn 0 0 1
vn 1.442227E-06 0 1
vn 2.235814E-06 0 1
vn 3.01821E-06 0 1
vn 0 0 1
vn 0 0 1
vn 0 0 1
vn -2.583385E-06 0 1
vn -5.406286E-06 0 1
vn 1.052881E-06 0 1
vn 2.20341E-06 0 1
vn 0 0 1
vn 0 0 1
vn 5.419554E-07 0 1
vn 1.134178E-06 0 1
vn 0 0 1
vn 0 0 1
vn 0 0 1
vn 0 0 1
vn 5.404543E-07 0 1
vn 0 0 1
vn 5.404546E-07 0 1
vn 0 0 1
vn -1.707204E-06 0 1
vn -7.949997E-07 0 1
vn -7.394564E-07 0 1
vn -7.394559E-07 0 1
vn -1.470078E-06 0 1
vn -1.470079E-06 0 1
vn 3.157548E-07 0 1
vn -4.211705E-07 0 1
vn -3.242488E-07 0 1
vn -3.242488E-07 0 1
vn 0 0 1
vn 0 0 1
vn -1.266685E-07 0 1
vn 0 0 1
vn 0 0 1
vn 0 0 1
vn 0 0 1
vn -1.306749E-06 0 1
vn -1.306749E-06 0 1
vn -1.306749E-06 0 1
vn -1.306748E-06 0 1
vn 1.125977E-07 0 1
vn 1.125977E-07 0 1
vn 1.125977E-07 0 1
vn 1.125977E-07 0 1
vn 5.410707E-07 0 1
vn 5.410707E-07 0 1
vn 5.410707E-07 0 1
vn 5.410707E-07 0 1
g armyInsect4_0
f 3/3/3 2/2/2 1/1/1
f 2/2/2 4/4/4 1/1/1
f 7/7/7 6/6/6 5/5/5
f 6/6/6 8/8/8 5/5/5
f 6/6/6 9/9/9 8/8/8
f 9/9/9 10/10/10 8/8/8
f 8/8/8 10/10/10 11/11/11
f 10/10/10 12/12/12 11/11/11
f 5/5/5 8/8/8 13/13/13
f 8/8/8 11/11/11 13/13/13
f 11/11/11 12/12/12 14/14/14
f 12/12/12 15/15/15 14/14/14
f 14/14/14 15/15/15 16/16/16
f 15/15/15 17/17/17 16/16/16
f 14/14/14 16/16/16 18/18/18
f 19/19/19 14/14/14 18/18/18
f 13/13/13 11/11/11 19/19/19
f 11/11/11 14/14/14 19/19/19
f 16/16/16 17/17/17 20/20/20
f 17/17/17 21/21/21 20/20/20
f 18/18/18 16/16/16 22/22/22
f 16/16/16 20/20/20 22/22/22
f 20/20/20 21/21/21 23/23/23
f 21/21/21 24/24/24 23/23/23
f 22/22/22 20/20/20 25/25/25
f 20/20/20 23/23/23 25/25/25
f 28/28/28 27/27/27 26/26/26
f 27/27/27 29/29/29 26/26/26
f 26/26/26 29/29/29 30/30/30
f 31/31/31 26/26/26 30/30/30
f 32/32/32 26/26/26 31/31/31
f 28/28/28 26/26/26 32/32/32
f 33/33/33 32/32/32 31/31/31
f 34/34/34 32/32/32 33/33/33
f 35/35/35 34/34/34 33/33/33
f 36/36/36 32/32/32 34/34/34
f 36/36/36 28/28/28 32/32/32
f 37/37/37 36/36/36 34/34/34
f 30/30/30 29/29/29 38/38/38
f 38/38/38 29/29/29 27/27/27
f 39/39/39 30/30/30 38/38/38
f 40/40/40 38/38/38 27/27/27
f 39/39/39 38/38/38 41/41/41
f 41/41/41 38/38/38 40/40/40
f 42/42/42 39/39/39 41/41/41
f 42/42/42 41/41/41 43/43/43
f 43/43/43 41/41/41 44/44/44
f 44/44/44 41/41/41 40/40/40
f 45/45/45 43/43/43 44/44/44
f 46/46/46 42/42/42 43/43/43
f 49/49/49 48/48/48 47/47/47
f 48/48/48 50/50/50 47/47/47
f 53/53/53 52/52/52 51/51/51
f 52/52/52 54/54/54 51/51/51
f 57/57/57 56/56/56 55/55/55
f 56/56/56 58/58/58 55/55/55
