g constellationCepheusGeo
v 0.02482909 -0.004053938 0
v 0.004932155 -0.0183032 0
v 0.004241602 -0.01315457 0
v 0.02482909 -0.0183032 0
v 0.003854617 -0.01332563 0
v 0.004534149 -0.0183032 0
v 0.003190988 -0.01361899 0
v 0.003791206 -0.0183032 0
v -0.0009815226 -0.01546343 0
v -0.0009815226 -0.0183032 0
v -0.0009815226 -0.01513176 0
v 0.003109531 -0.01298324 0
v 0.003767956 -0.01269084 0
v 0.004156273 -0.01251838 0
v 0.004070337 -0.01187766 0
v 0.005397505 -0.01196715 0
v 0.003984401 -0.01123693 0
v 0.00196038 0.003853765 0
v 0.02482909 -0.00333753 0
v 0.02482909 0.003853765 0
v 0.003537977 -0.01100624 0
v 0.001509307 0.003853765 0
v 0.003660374 -0.01190279 0
v 0.002762236 -0.01027292 0
v 0.0009520992 0.003853765 0
v -0.0009815226 -0.006733845 0
v -0.0009815226 0.003853765 0
v 0.003099932 -0.01290833 0
v 0.002976458 -0.01194473 0
v 0.00176225 -0.01334385 0
v 0.001978955 -0.01200589 0
v 0.001178022 -0.01174537 0
v 0.0009545964 -0.01319453 0
v 0.0005434521 -0.01311852 0
v 0.002807858 -0.01062896 0
v 0.002248768 -0.01034005 0
v 0.001908675 -0.01016431 0
v 0.0007827934 -0.01161683 0
v 0.0001206735 -0.01304036 0
v 0.0001246 -0.01140274 0
v -0.0004304246 -0.01293848 0
v 0.001545648 -0.009976713 0
v 0.0007824948 -0.009582356 0
v 1.934148E-05 -0.009187998 0
v -0.0005298046 -0.01118988 0
v -0.0009815226 -0.0128366 0
vt 1 0.4183632
vt 0.5993221 0.1314162
vt 0.585416 0.2350976
vt 1 0.1314162
vt 0.5776231 0.2316528
vt 0.5913072 0.1314162
vt 0.5642591 0.2257454
vt 0.576346 0.1314162
vt 0.4802344 0.1886025
vt 0.4802344 0.1314162
vt 0.4802344 0.1952816
vt 0.5626187 0.2385477
vt 0.5758779 0.2444362
vt 0.5836977 0.247909
vt 0.5819671 0.2608117
vt 0.6086932 0.2590095
vt 0.5802366 0.2737144
vt 0.5394775 0.5776058
vt 1 0.4327899
vt 1 0.5776058
vt 0.5712466 0.2783599
vt 0.5303939 0.5776058
vt 0.5737114 0.2603055
vt 0.555625 0.2931275
vt 0.519173 0.5776058
vt 0.4802344 0.3643961
vt 0.4802344 0.5776058
vt 0.5624254 0.2400563
vt 0.5599389 0.259461
vt 0.5354876 0.231286
vt 0.5398515 0.2582293
vt 0.5237225 0.2634756
vt 0.5192233 0.2342929
vt 0.5109438 0.2358235
vt 0.5565437 0.2859576
vt 0.5452849 0.2917756
vt 0.5384362 0.2953146
vt 0.5157636 0.2660642
vt 0.5024301 0.2373975
vt 0.5025092 0.2703754
vt 0.4913323 0.2394492
vt 0.5311257 0.2990923
vt 0.5157576 0.3070337
vt 0.5003895 0.3149751
vt 0.489331 0.2746618
vt 0.4802344 0.2415009
vn 0 0 1
vn 0 0 1
vn 0 0 1
vn 0 0 1
vn 0 0 1
vn 0 0 1
vn 0 0 1
vn 0 0 1
vn 0 0 1
vn 0 0 1
vn 0 0 1
vn 0 0 1
vn 0 0 1
vn 0 0 1
vn 0 0 1
vn 0 0 1
vn 0 0 1
vn 0 0 1
vn 0 0 1
vn 0 0 1
vn 0 0 1
vn 0 0 1
vn 0 0 1
vn 0 0 1
vn 0 0 1
vn 0 0 1
vn 0 0 1
vn 0 0 1
vn 0 0 1
vn 0 0 1
vn 0 0 1
vn 0 0 1
vn 0 0 1
vn 0 0 1
vn 0 0 1
vn 0 0 1
vn 0 0 1
vn 0 0 1
vn 0 0 1
vn 0 0 1
vn 0 0 1
vn 0 0 1
vn 0 0 1
vn 0 0 1
vn 0 0 1
vn 0 0 1
g constellationCepheusGeo_0
f 3/3/3 2/2/2 1/1/1
f 2/2/2 4/4/4 1/1/1
f 3/3/3 5/5/5 2/2/2
f 5/5/5 6/6/6 2/2/2
f 6/6/6 5/5/5 7/7/7
f 8/8/8 6/6/6 7/7/7
f 7/7/7 9/9/9 8/8/8
f 9/9/9 10/10/10 8/8/8
f 11/11/11 9/9/9 7/7/7
f 12/12/12 11/11/11 7/7/7
f 7/7/7 5/5/5 12/12/12
f 5/5/5 3/3/3 13/13/13
f 5/5/5 13/13/13 12/12/12
f 3/3/3 14/14/14 13/13/13
f 13/13/13 14/14/14 15/15/15
f 15/15/15 14/14/14 16/16/16
f 16/16/16 3/3/3 1/1/1
f 16/16/16 14/14/14 3/3/3
f 17/17/17 15/15/15 16/16/16
f 18/18/18 17/17/17 16/16/16
f 18/18/18 16/16/16 19/19/19
f 19/19/19 20/20/20 18/18/18
f 21/21/21 17/17/17 18/18/18
f 22/22/22 21/21/21 18/18/18
f 23/23/23 13/13/13 15/15/15
f 15/15/15 17/17/17 23/23/23
f 17/17/17 21/21/21 23/23/23
f 21/21/21 22/22/22 24/24/24
f 22/22/22 25/25/25 24/24/24
f 24/24/24 25/25/25 26/26/26
f 25/25/25 27/27/27 26/26/26
f 28/28/28 13/13/13 23/23/23
f 29/29/29 28/28/28 23/23/23
f 23/23/23 21/21/21 29/29/29
f 30/30/30 28/28/28 29/29/29
f 31/31/31 30/30/30 29/29/29
f 30/30/30 31/31/31 32/32/32
f 32/32/32 33/33/33 30/30/30
f 32/32/32 34/34/34 33/33/33
f 21/21/21 35/35/35 29/29/29
f 29/29/29 35/35/35 31/31/31
f 35/35/35 36/36/36 31/31/31
f 31/31/31 36/36/36 32/32/32
f 36/36/36 37/37/37 32/32/32
f 32/32/32 38/38/38 34/34/34
f 38/38/38 39/39/39 34/34/34
f 39/39/39 38/38/38 40/40/40
f 41/41/41 39/39/39 40/40/40
f 38/38/38 32/32/32 42/42/42
f 32/32/32 37/37/37 42/42/42
f 40/40/40 38/38/38 43/43/43
f 38/38/38 42/42/42 43/43/43
f 43/43/43 44/44/44 40/40/40
f 44/44/44 45/45/45 40/40/40
f 40/40/40 45/45/45 41/41/41
f 45/45/45 46/46/46 41/41/41
f 1/1/1 19/19/19 16/16/16
