g data2
v 0.0005456507 -1.706591E-19 0.0007685805
v 0.00140596 1.706591E-19 -0.0007685805
v 0.00140596 -1.706591E-19 0.0007685805
v 0.0005456507 1.706591E-19 -0.0007685805
v -0.00140596 -1.706591E-19 0.0007685805
v -0.00140596 1.706591E-19 -0.0007685805
vt 0.1951611 0.1193728
vt 0.2811921 0.2730889
vt 0.2811921 0.1193728
vt 0.1951611 0.2730889
vt 0 0.1193728
vt 0 0.2730889
vn 0 1 0
vn 0 1 0
vn 0 1 0
vn 0 1 0
vn 0 1 0
vn 0 1 0
g data2_0
f 3/3/3 2/2/2 1/1/1
f 2/2/2 4/4/4 1/1/1
f 1/1/1 4/4/4 5/5/5
f 4/4/4 6/6/6 5/5/5
