g diagramLeft
v -0.0005133679 6.504665E-20 -0.0002929441
v 0.0003469416 5.711179E-19 -0.002572086
v 0.0003469416 6.504665E-20 -0.0002929441
v -0.0005133679 5.711179E-19 -0.002572086
v 0.002464979 5.711179E-19 -0.002572086
v 0.002464979 6.504663E-20 -0.000292944
v -0.0005133679 -2.297996E-19 0.001034925
v 0.0003469416 -2.297996E-19 0.001034925
v 0.002464979 -2.297996E-19 0.001034925
v 0.0003469416 -5.711179E-19 0.002572086
v 0.002464979 -5.711179E-19 0.002572086
v -0.002464979 -2.297996E-19 0.001034925
v -0.002464979 6.504665E-20 -0.0002929441
vt 0.1951611 0.4058758
vt 0.2811921 0.63379
vt 0.2811921 0.4058758
vt 0.1951611 0.6337901
vt 0.4929958 0.6337901
vt 0.4929958 0.4058758
vt 0.1951611 0.2730889
vt 0.2811921 0.2730889
vt 0.4929958 0.2730889
vt 0.2811921 0.1193728
vt 0.4929958 0.1193728
vt 0 0.2730889
vt 0 0.4058759
vn 0 1 0
vn 0 1 0
vn 0 1 0
vn 0 1 0
vn 0 1 0
vn 0 1 0
vn 0 1 0
vn 0 1 0
vn 0 1 0
vn 0 1 0
vn 0 1 0
vn 0 1 0
vn 0 1 0
g diagramLeft_0
f 3/3/3 2/2/2 1/1/1
f 2/2/2 4/4/4 1/1/1
f 5/5/5 2/2/2 3/3/3
f 6/6/6 5/5/5 3/3/3
f 3/3/3 1/1/1 7/7/7
f 8/8/8 3/3/3 7/7/7
f 6/6/6 3/3/3 8/8/8
f 9/9/9 6/6/6 8/8/8
f 9/9/9 8/8/8 10/10/10
f 11/11/11 9/9/9 10/10/10
f 7/7/7 1/1/1 12/12/12
f 1/1/1 13/13/13 12/12/12
