g door2
v -0.5 2.46519E-32 1.110223E-16
v 0.5 0.1900868 6.617445E-24
v 0.5 2.46519E-32 1.110223E-16
v -0.5 0.1900868 6.617445E-24
v 0.5 0.8112018 -8.514199E-17
v -0.5 0.8112018 -8.514199E-17
v 0.5 0.9112743 -1.110223E-16
v -0.5 0.9112743 -1.110223E-16
vt 0 0
vt 1 0.178018
vt 1 0
vt 0 0.178018
vt 1 0.8739929
vt 0 0.8739929
vt 1 1
vt 0 1
vn 0 0 1
vn 0 0 1
vn 0 0 1
vn 0 0 1
vn 0 0 1
vn 0 0 1
vn 0 0 1
vn 0 0 1
g door2_0
f 3/3/3 2/2/2 1/1/1
f 2/2/2 4/4/4 1/1/1
f 2/2/2 5/5/5 4/4/4
f 5/5/5 6/6/6 4/4/4
f 5/5/5 7/7/7 6/6/6
f 7/7/7 8/8/8 6/6/6
