g frame
v 0.08332229 -0.02939568 6.328604E-10
v -0.08332229 -0.02939568 -6.328604E-10
v -0.08332229 -0.02939568 6.328604E-10
v 0.08332229 -0.02939568 6.328604E-10
v 0.08332229 -0.02939568 -6.328604E-10
v -0.08332229 -0.02939568 -6.328604E-10
v -0.08332229 -0.02939568 6.328604E-10
v -0.08332229 0.02939568 -6.328604E-10
v -0.08332229 0.02939568 6.328604E-10
v -0.08332229 -0.02939568 -6.328604E-10
v 0.08332229 0.02939568 6.328604E-10
v 0.08332229 -0.02939568 -6.328604E-10
v 0.08332229 -0.02939568 6.328604E-10
v 0.08332229 0.02939568 -6.328604E-10
v -0.08332229 0.02939568 6.328604E-10
v 0.08332229 0.02939568 -6.328604E-10
v 0.08332229 0.02939568 6.328604E-10
v -0.08332229 0.02939568 6.328604E-10
v -0.08332229 0.02939568 -6.328604E-10
v 0.08332229 0.02939568 -6.328604E-10
v 0.08332229 -0.02939568 -6.328604E-10
v -0.1227606 -0.07028889 9.616599E-18
v -0.08332229 -0.02939568 -6.328604E-10
v 0.1227606 -0.07028889 9.616599E-18
v -0.08332229 -0.02939568 -6.328604E-10
v -0.1227606 0.07028889 -9.616599E-18
v -0.08332229 0.02939568 -6.328604E-10
v -0.1227606 -0.07028889 9.616599E-18
v 0.08332229 0.02939568 -6.328604E-10
v 0.1227606 -0.07028889 9.616599E-18
v 0.08332229 -0.02939568 -6.328604E-10
v 0.1227606 0.07028889 -9.616599E-18
v -0.08332229 0.02939568 -6.328604E-10
v 0.1227606 0.07028889 -9.616599E-18
v 0.08332229 0.02939568 -6.328604E-10
v -0.1227606 0.07028889 -9.616599E-18
vt 0 0
vt 1 1
vt 1 0
vt 0 0
vt 0 1
vt 1 1
vt 0 0
vt 1 1
vt 1 0
vt 0 1
vt 0 0
vt 1 1
vt 1 0
vt 0 1
vt 0 0
vt 1 1
vt 1 0
vt 0 0
vt 0 1
vt 1 1
vt 0 0
vt 1 1
vt 1 0
vt 0 1
vt 0 0
vt 1 1
vt 1 0
vt 0 1
vt 0 0
vt 1 1
vt 1 0
vt 0 1
vt 0 0
vt 1 1
vt 1 0
vt 0 1
vn 0 -1 0
vn 0 -1 0
vn 0 -1 0
vn 0 -1 0
vn 0 -1 0
vn 0 -1 0
vn -1 0 0
vn -1 0 0
vn -1 0 0
vn -1 0 0
vn 0.2565564 0 -0.9665293
vn 0.2565564 0 -0.9665293
vn 0.2565564 0 -0.9665293
vn 0.2565564 0 -0.9665293
vn 0 0.4838852 0.8751315
vn 0 0.4838852 0.8751315
vn 0 0.4838852 0.8751315
vn 0 0.4838852 0.8751315
vn 0 0.4838852 0.8751315
vn 0 0.4838852 0.8751315
vn 0 0 1
vn 0 0 1
vn 0 0 1
vn 0 0 1
vn 0 0 1
vn 0 0 1
vn 0 0 1
vn 0 0 1
vn 0 0 1
vn 0 0 1
vn 0 0 1
vn 0 0 1
vn 0 0 1
vn 0 0 1
vn 0 0 1
vn 0 0 1
g frame_0
f 3/3/3 2/2/2 1/1/1
f 6/6/6 5/5/5 4/4/4
f 9/9/9 8/8/8 7/7/7
f 8/8/8 10/10/10 7/7/7
f 13/13/13 12/12/12 11/11/11
f 12/12/12 14/14/14 11/11/11
f 17/17/17 16/16/16 15/15/15
f 20/20/20 19/19/19 18/18/18
f 23/23/23 22/22/22 21/21/21
f 22/22/22 24/24/24 21/21/21
f 27/27/27 26/26/26 25/25/25
f 26/26/26 28/28/28 25/25/25
f 31/31/31 30/30/30 29/29/29
f 30/30/30 32/32/32 29/29/29
f 35/35/35 34/34/34 33/33/33
f 34/34/34 36/36/36 33/33/33
