g frame
v 0.08 -0.045 -1.772167E-09
v -0.1980072 -0.1222188 -1.772167E-09
v -0.08 -0.045 -1.772167E-09
v 0.1980072 -0.1222188 -1.772167E-09
v -0.08 -0.045 -1.772167E-09
v -0.1980072 0.1222188 -1.772167E-09
v -0.08 0.045 -1.772167E-09
v -0.1980072 -0.1222188 -1.772167E-09
v 0.08 0.045 -1.772167E-09
v 0.1980072 -0.1222188 -1.772167E-09
v 0.08 -0.045 -1.772167E-09
v 0.1980072 0.1222188 -1.772167E-09
v -0.08 0.045 -1.772167E-09
v 0.1980072 0.1222188 -1.772167E-09
v 0.08 0.045 -1.772167E-09
v -0.1980072 0.1222188 -1.772167E-09
vt 0 0
vt 1 1
vt 1 0
vt 0 1
vt 0 0
vt 1 1
vt 1 0
vt 0 1
vt 0 0
vt 1 1
vt 1 0
vt 0 1
vt 0 0
vt 1 1
vt 1 0
vt 0 1
vn 0 0 1
vn 0 0 1
vn 0 0 1
vn 0 0 1
vn 0 0 1
vn 0 0 1
vn 0 0 1
vn 0 0 1
vn 0 0 1
vn 0 0 1
vn 0 0 1
vn 0 0 1
vn 0 0 1
vn 0 0 1
vn 0 0 1
vn 0 0 1
g frame_0
f 3/3/3 2/2/2 1/1/1
f 2/2/2 4/4/4 1/1/1
f 7/7/7 6/6/6 5/5/5
f 6/6/6 8/8/8 5/5/5
f 11/11/11 10/10/10 9/9/9
f 10/10/10 12/12/12 9/9/9
f 15/15/15 14/14/14 13/13/13
f 14/14/14 16/16/16 13/13/13
