g geo
v -1.194439 0.05541414 0.02476863
v 1.194439 0.9461096 0.02476863
v 1.194439 0.05541414 0.02476863
v -1.194439 0.9461096 0.02476863
v -1.162468 0.356269 0.06643875
v 1.162468 0.752229 0.06643875
v 1.162468 0.356269 0.06643875
v -1.162468 0.752229 0.06643875
v -0.354657 -0.0397931 0.1022321
v 0.354657 0.3029808 0.1022321
v 0.354657 -0.0397931 0.1022321
v -0.354657 0.3029808 0.1022321
v -0.2412406 -0.04867718 0.05166947
v 0.2412404 0.2940968 0.05166947
v 0.2412404 -0.04867733 0.05166947
v -0.2412406 0.2940968 0.05166947
v -1.986206 -1.191306 0
v 1.986206 2.192829 0
v 1.986206 -1.191306 0
v -1.986206 2.192829 0
vt 0 0.1000695
vt 0.4777756 0.2782086
vt 0.4777756 0.1000695
vt 0 0.2782086
vt 0.4945256 0.1995092
vt 0.9595129 0.2787011
vt 0.9595129 0.1995092
vt 0.4945256 0.2787011
vt 0.5219669 0.07331915
vt 0.6638297 0.141874
vt 0.6638297 0.07331915
vt 0.5219669 0.141874
vt 0.8175192 0.07331915
vt 0.9140155 0.141874
vt 0.9140154 0.07331915
vt 0.8175192 0.141874
vt 0.1035071 0.323173
vt 0.8979894 1
vt 0.8979894 0.323173
vt 0.1035071 1
vn 0 0 1
vn 0 0 1
vn 0 0 1
vn 0 0 1
vn 0 0 1
vn 0 0 1
vn 0 0 1
vn 0 0 1
vn 0 0 1
vn 0 0 1
vn 0 0 1
vn 0 0 1
vn 0 0 1
vn 0 0 1
vn 0 0 1
vn 0 0 1
vn 0 0 1
vn 0 0 1
vn 0 0 1
vn 0 0 1
g geo_0
f 3/3/3 2/2/2 1/1/1
f 2/2/2 4/4/4 1/1/1
f 7/7/7 6/6/6 5/5/5
f 6/6/6 8/8/8 5/5/5
f 11/11/11 10/10/10 9/9/9
f 10/10/10 12/12/12 9/9/9
f 15/15/15 14/14/14 13/13/13
f 14/14/14 16/16/16 13/13/13
f 19/19/19 18/18/18 17/17/17
f 18/18/18 20/20/20 17/17/17
