g geo
v 0.4764002 -1.110223E-16 9.929475
v 12.4711 -1.061535E-16 0.4780728
v 12.4711 -1.110223E-16 9.929475
v 0.4764002 -1.061535E-16 0.4780729
v -0.4767153 -1.110223E-16 9.929475
v -0.4767153 -1.061535E-16 0.4780729
v -12.4711 -1.110223E-16 9.929475
v -12.4711 -1.061535E-16 0.4780728
v 12.4711 1.047549E-16 -0.471774
v 0.4764002 1.047549E-16 -0.471774
v 12.4711 1.110223E-16 -9.929475
v 0.4764002 1.110223E-16 -9.929475
v -0.4767153 1.047549E-16 -0.471774
v -0.4767153 1.110223E-16 -9.929475
v -12.4711 1.047549E-16 -0.471774
v -12.4711 1.110223E-16 -9.929475
vt 0.9764002 0
vt 1 0.02192718
vt 1 0
vt 0.9764002 0.02192716
vt 0.02328466 0
vt 0.02328466 0.02192716
vt 0 0
vt 0 0.02192718
vt 1 0.971774
vt 0.9764002 0.971774
vt 1 1
vt 0.9764002 1
vt 0.02328467 0.971774
vt 0.02328466 1
vt 0 0.971774
vt 0 1
vn 0 1 0
vn 0 1 0
vn 0 1 0
vn 0 1 0
vn 0 1 0
vn 0 1 0
vn 0 1 0
vn 0 1 0
vn 0 1 0
vn 0 1 0
vn 0 1 0
vn 0 1 0
vn 0 1 0
vn 0 1 0
vn 0 1 0
vn 0 1 0
g geo_0
f 3/3/3 2/2/2 1/1/1
f 2/2/2 4/4/4 1/1/1
f 1/1/1 4/4/4 5/5/5
f 4/4/4 6/6/6 5/5/5
f 5/5/5 6/6/6 7/7/7
f 6/6/6 8/8/8 7/7/7
f 2/2/2 9/9/9 4/4/4
f 9/9/9 10/10/10 4/4/4
f 4/4/4 10/10/10 6/6/6
f 9/9/9 11/11/11 10/10/10
f 11/11/11 12/12/12 10/10/10
f 10/10/10 12/12/12 13/13/13
f 10/10/10 13/13/13 6/6/6
f 6/6/6 13/13/13 8/8/8
f 12/12/12 14/14/14 13/13/13
f 13/13/13 14/14/14 15/15/15
f 13/13/13 15/15/15 8/8/8
f 14/14/14 16/16/16 15/15/15
