g geo
v 0.1398048 1.473738 0.11
v 0.8471637 -1.473738 0.11
v 0.1398048 -1.473738 0.11
v 0.8471637 1.473738 0.11
v 1.981304 1.482569 0
v 2.279624 -1.464907 0
v 1.981304 -1.464907 0
v 2.279624 1.482569 0
v 1.112152 1.482569 0
v 1.112152 -1.464907 0
v -1.665372 1.482569 0
v -1.665372 -1.464907 0
v -0.6335139 2.129931 0.1
v -1.44754 2.62757 0.1
v -0.6335138 2.62757 0.1
v -1.447541 2.129931 0.1
v -0.9792034 1.730169 0.3
v -0.4480572 2.255115 0.3
v -0.4480572 1.730169 0.3
v -0.9792034 2.255115 0.3
v -1.243726 1.463965 0.2
v -0.1972474 2.492855 0.2
v -0.1972474 1.463965 0.2
v -1.243726 2.492855 0.2
v -1.069328 1.473738 0.11
v -0.3619693 -1.473738 0.11
v -1.069328 -1.473738 0.11
v -0.3619693 1.473738 0.11
v -0.8617046 1.699907 -0.09
v -0.6150222 1.235784 -0.09
v -0.8617046 1.235784 -0.09
v -0.6150222 1.699907 -0.09
v 0.355592 1.699907 -0.09
v 0.6022743 1.235784 -0.09
v 0.355592 1.235784 -0.09
v 0.6022743 1.699907 -0.09
v -0.7998261 2.62757 0.1
v 0.01420048 2.12993 0.1
v -0.7998261 2.12993 0.1
v 0.01420045 2.62757 0.1
v 0.5590861 2.129931 0.1
v -0.2549405 2.62757 0.1
v 0.5590861 2.62757 0.1
v -0.2549405 2.129931 0.1
v 0.3927739 2.62757 0.1
v 1.2068 2.12993 0.1
v 0.3927738 2.12993 0.1
v 1.2068 2.62757 0.1
v -0.05112624 1.463965 0.2
v 0.9953525 2.492855 0.2
v 0.9953525 1.463965 0.2
v -0.05112624 2.492855 0.2
v 0.2133965 1.730169 0.3
v 0.7445427 2.255115 0.3
v 0.7445427 1.730169 0.3
v 0.2133965 2.255115 0.3
vt 0.3919384 0.02263695
vt 0.9814339 0.1641087
vt 0.9814338 0.02263695
vt 0.3919384 0.1641087
vt 0.3919384 0.9403359
vt 0.9814338 1
vt 0.9814338 0.9403359
vt 0.3919384 1
vt 0.3919384 0.7665055
vt 0.9814338 0.7665055
vt 0.3919384 0.2110007
vt 0.9814339 0.2110007
vt 0.05845556 0.4444394
vt 0.1579834 0.6072447
vt 0.1579834 0.4444394
vt 0.05845556 0.6072447
vt 0.06145358 0.2921892
vt 0.1676828 0.3971782
vt 0.1676829 0.2921892
vt 0.06145358 0.3971782
vt 0.04112746 0.02263695
vt 0.2504233 0.228415
vt 0.2504233 0.02263695
vt 0.04112746 0.228415
vt 0.3919384 0.02263695
vt 0.9814339 0.1641087
vt 0.9814338 0.02263695
vt 0.3919384 0.1641087
vt 0.3295542 0.2666357
vt 0.2925135 0.4209798
vt 0.3295542 0.4209797
vt 0.2925135 0.2666357
vt 0.3295542 0.2666357
vt 0.2925135 0.4209798
vt 0.3295542 0.4209797
vt 0.2925135 0.2666357
vt 0.05845556 0.4444394
vt 0.1579834 0.6072447
vt 0.1579834 0.4444394
vt 0.05845556 0.6072447
vt 0.05845556 0.4444394
vt 0.1579834 0.6072447
vt 0.1579834 0.4444394
vt 0.05845556 0.6072447
vt 0.05845556 0.4444394
vt 0.1579834 0.6072447
vt 0.1579834 0.4444394
vt 0.05845556 0.6072447
vt 0.04112746 0.02263695
vt 0.2504233 0.228415
vt 0.2504233 0.02263695
vt 0.04112746 0.228415
vt 0.06145358 0.2921892
vt 0.1676828 0.3971782
vt 0.1676829 0.2921892
vt 0.06145358 0.3971782
vn 0 0 1
vn 0 0 1
vn 0 0 1
vn 0 0 1
vn 0 0 1
vn 0 0 1
vn 0 0 1
vn 0 0 1
vn 0 0 1
vn 0 0 1
vn 0 0 1
vn 0 0 1
vn 0 0 1
vn 0 0 1
vn 0 0 1
vn 0 0 1
vn 0 0 1
vn 0 0 1
vn 0 0 1
vn 0 0 1
vn 0 0 1
vn 0 0 1
vn 0 0 1
vn 0 0 1
vn 0 0 1
vn 0 0 1
vn 0 0 1
vn 0 0 1
vn 0.0247582 -0.01759587 0.9995386
vn 0.0247582 -0.01759587 0.9995386
vn 0.0247582 -0.01759587 0.9995386
vn 0.0247582 -0.01759587 0.9995386
vn -0.03083037 -0.02333309 0.9992523
vn -0.03083036 -0.02333309 0.9992523
vn -0.03083036 -0.02333309 0.9992523
vn -0.03083036 -0.02333309 0.9992523
vn 0 0 1
vn 0 0 1
vn 0 0 1
vn 0 0 1
vn 0 0 1
vn 0 0 1
vn 0 0 1
vn 0 0 1
vn 0 0 1
vn 0 0 1
vn 0 0 1
vn 0 0 1
vn 0 0 1
vn 0 0 1
vn 0 0 1
vn 0 0 1
vn 0 0 1
vn 0 0 1
vn 0 0 1
vn 0 0 1
g geo_0
f 3/3/3 2/2/2 1/1/1
f 2/2/2 4/4/4 1/1/1
f 7/7/7 6/6/6 5/5/5
f 6/6/6 8/8/8 5/5/5
f 7/7/7 5/5/5 9/9/9
f 10/10/10 7/7/7 9/9/9
f 10/10/10 9/9/9 11/11/11
f 12/12/12 10/10/10 11/11/11
f 15/15/15 14/14/14 13/13/13
f 14/14/14 16/16/16 13/13/13
f 19/19/19 18/18/18 17/17/17
f 18/18/18 20/20/20 17/17/17
f 23/23/23 22/22/22 21/21/21
f 22/22/22 24/24/24 21/21/21
f 27/27/27 26/26/26 25/25/25
f 26/26/26 28/28/28 25/25/25
f 31/31/31 30/30/30 29/29/29
f 30/30/30 32/32/32 29/29/29
f 35/35/35 34/34/34 33/33/33
f 34/34/34 36/36/36 33/33/33
f 39/39/39 38/38/38 37/37/37
f 38/38/38 40/40/40 37/37/37
f 43/43/43 42/42/42 41/41/41
f 42/42/42 44/44/44 41/41/41
f 47/47/47 46/46/46 45/45/45
f 46/46/46 48/48/48 45/45/45
f 51/51/51 50/50/50 49/49/49
f 50/50/50 52/52/52 49/49/49
f 55/55/55 54/54/54 53/53/53
f 54/54/54 56/56/56 53/53/53
