g geo
v -0.7547654 -0.2978197 0.05
v -1.204337 0.2978197 0.05
v -0.7547654 0.2978196 0.05
v -1.204337 -0.2978196 0.05
v 0.7511718 -0.2978197 0.05
v 1.200743 0.2978197 0.05
v 1.200743 -0.2978196 0.05
v 0.7511718 0.2978196 0.05
v 1.105096 -0.8120502 -1.210971E-18
v -1.105096 1.387234 1.210971E-18
v 1.105096 1.387234 -4.895502E-16
v -1.105096 -0.8120502 4.895502E-16
vt 0.9144096 0.3657739
vt 0.9956751 0.4737026
vt 0.9144096 0.4737026
vt 0.9956751 0.3657739
vt 0.9144096 0.3657739
vt 0.9956751 0.4737026
vt 0.9956751 0.3657739
vt 0.9144096 0.4737026
vt 0.0153968 0.1286747
vt 0.3801882 0.4952753
vt 0.3801882 0.1286747
vt 0.0153968 0.4952753
vn 0 0 1
vn 0 0 1
vn 0 0 1
vn 0 0 1
vn 0 0 1
vn 0 0 1
vn 0 0 1
vn 0 0 1
vn 0 0 1
vn 0 0 1
vn 0 0 1
vn 0 0 1
g geo_0
f 3/3/3 2/2/2 1/1/1
f 2/2/2 4/4/4 1/1/1
f 7/7/7 6/6/6 5/5/5
f 6/6/6 8/8/8 5/5/5
f 11/11/11 10/10/10 9/9/9
f 10/10/10 12/12/12 9/9/9
