g geo
v -0.06653899 0.00679256 0.02
v 0.06653896 -0.2054161 0.02
v -0.06653899 -0.2054161 0.02
v 0.06653896 0.006792575 0.02
v -0.3500608 -0.3359222 0
v 0.3500608 0.4445003 0
v 0.3500608 -0.3359222 0
v -0.3500608 0.4445003 0
v -0.3057281 -0.1026767 0.01
v -0.005849659 0.2147881 0.01
v -0.005849659 -0.1026767 0.01
v -0.3057281 0.2147881 0.01
v 0.0001843572 -0.1031757 0.01
v 0.3000628 0.214289 0.01
v 0.3000628 -0.1031757 0.01
v 0.0001843572 0.214289 0.01
vt 0.7831197 0.6515929
vt 0.9161977 0.4393842
vt 0.7831197 0.4393842
vt 0.9161977 0.6515929
vt 0 0.2195775
vt 0.7001215 1
vt 0.7001215 0.2195775
vt 0 1
vt 0.7001215 0.6825352
vt 1 1
vt 1 0.6825352
vt 0.7001215 1
vt 1 0.6825352
vt 0.7001215 1
vt 0.7001215 0.6825352
vt 1 1
vn 0 0 1
vn 0 0 1
vn 0 0 1
vn 0 0 1
vn 0 0 1
vn 0 0 1
vn 0 0 1
vn 0 0 1
vn 0 0 1
vn 0 0 1
vn 0 0 1
vn 0 0 1
vn -0.002049806 -0.001697292 0.9999965
vn -0.002049806 -0.001697292 0.9999965
vn -0.002049806 -0.001697292 0.9999965
vn -0.002049806 -0.001697292 0.9999965
g geo_0
f 3/3/3 2/2/2 1/1/1
f 2/2/2 4/4/4 1/1/1
f 7/7/7 6/6/6 5/5/5
f 6/6/6 8/8/8 5/5/5
f 11/11/11 10/10/10 9/9/9
f 10/10/10 12/12/12 9/9/9
f 15/15/15 14/14/14 13/13/13
f 14/14/14 16/16/16 13/13/13
