g geo
v -0.01166961 0.5194613 0.04681146
v 0.1943898 0.6609647 0.04681146
v 0.1943898 0.5194613 0.04681146
v -0.01166961 0.6609647 0.04681146
v -0.1971793 0.6497959 0.08384233
v 0.3240452 0.7943268 0.08384233
v 0.3240452 0.6497959 0.08384233
v -0.1971793 0.7943268 0.08384233
v -0.2258371 0.6320348 0.06997927
v 0.351117 0.8195206 0.06997927
v 0.351117 0.6320348 0.06997927
v -0.2258371 0.8195206 0.06997927
v -0.01166958 0.5194613 0.02619195
v 0.1943898 0.6609647 0.02619195
v 0.1943898 0.5194613 0.02619195
v -0.01166958 0.6609647 0.02619195
v -1.219895 -1.366443 0
v 1.416456 2.541118 0
v 1.416456 -1.366443 0
v -1.219895 2.541118 0
vt 0.6991773 0.1600804
vt 0.7560138 0.1991107
vt 0.7560138 0.1600804
vt 0.6991773 0.1991107
vt 0.6590879 0.1164998
vt 0.7971139 0.1547732
vt 0.7971139 0.1164998
vt 0.6590879 0.1547732
vt 0.6590879 0.06702926
vt 0.7950773 0.1112201
vt 0.7950773 0.06702926
vt 0.6590879 0.1112201
vt 0.6991773 0.2237869
vt 0.7560138 0.2628173
vt 0.7560138 0.2237869
vt 0.6991773 0.2628173
vt 0 0.02310973
vt 0.6590879 1
vt 0.6590879 0.02310973
vt 0 1
vn 0 0 1
vn 0 0 1
vn 0 0 1
vn 0 0 1
vn 0 0 1
vn 0 0 1
vn 0 0 1
vn 0 0 1
vn 0 0 1
vn 0 0 1
vn 0 0 1
vn 0 0 1
vn 0 0 1
vn 0 0 1
vn 0 0 1
vn 0 0 1
vn 0 0 1
vn 0 0 1
vn 0 0 1
vn 0 0 1
g geo_0
f 3/3/3 2/2/2 1/1/1
f 2/2/2 4/4/4 1/1/1
f 7/7/7 6/6/6 5/5/5
f 6/6/6 8/8/8 5/5/5
f 11/11/11 10/10/10 9/9/9
f 10/10/10 12/12/12 9/9/9
f 15/15/15 14/14/14 13/13/13
f 14/14/14 16/16/16 13/13/13
f 19/19/19 18/18/18 17/17/17
f 18/18/18 20/20/20 17/17/17
