g geo
v 0.3452473 -0.08774181 0.1
v 0.5257909 -0.1587526 0.1
v 0.3323917 -0.1587526 0.1
v 0.53863 -0.08774181 0.1
v 0.8667445 -0.1587526 0.1
v 0.8669999 -0.08774181 0.1
v 1.19537 -0.08774187 0.1
v 1.207703 -0.1587526 0.1
v 1.436181 -0.1587526 0.1
v 1.426983 -0.08774181 0.1
v 1.475424 -0.4617235 0.1
v 1.26032 -0.4617235 0.1
v 1.524187 -0.8381979 0.1
v 1.325703 -0.8381979 0.1
v 1.586692 -1.320765 0.1
v 1.409512 -1.320765 0.1
v 0.8625684 -1.320765 0.1
v 0.8643026 -0.8381979 0.1
v 0.402904 -0.8381979 0.1
v 0.315625 -1.320765 0.1
v 0.2093801 -0.8381979 0.1
v 0.1220126 -1.320765 0.1
v 0.8656557 -0.4617235 0.1
v 0.4709945 -0.4617235 0.1
v 0.2775397 -0.4617235 0.1
v 0.0001325607 -0.2697711 0.2
v -1.390312 0.3772843 0.2
v 0.0001325607 0.3772843 0.2
v -1.390312 -0.2697711 0.2
v 0.0001325607 -0.2697711 0.2
v 1.390313 0.3772843 0.2
v 1.390313 -0.2697711 0.2
v 0.0001325607 0.3772843 0.2
v -1.389182 -0.08774181 0.1
v -1.208638 -0.1587526 0.1
v -1.402038 -0.1587526 0.1
v -1.195799 -0.08774181 0.1
v -0.8676848 -0.1587526 0.1
v -0.8674295 -0.08774181 0.1
v -0.5390594 -0.08774187 0.1
v -0.5267268 -0.1587526 0.1
v -0.2982481 -0.1587526 0.1
v -0.307446 -0.08774181 0.1
v -0.2590055 -0.4617235 0.1
v -0.4741093 -0.4617235 0.1
v -0.2102423 -0.8381979 0.1
v -0.4087262 -0.8381979 0.1
v -0.1477374 -1.320765 0.1
v -0.3249178 -1.320765 0.1
v -0.871861 -1.320765 0.1
v -0.8701267 -0.8381979 0.1
v -1.331525 -0.8381979 0.1
v -1.418804 -1.320765 0.1
v -1.525049 -0.8381979 0.1
v -1.612417 -1.320765 0.1
v -0.8687737 -0.4617235 0.1
v -1.263435 -0.4617235 0.1
v -1.45689 -0.4617235 0.1
v 0.1837364 0.1877405 -0.05076981
v -0.1112184 0.5674756 -0.05076981
v 0.1837363 0.5674756 -0.0507698
v -0.1112184 0.1877407 -0.05076981
v -0.1837605 0.7471038 -0.1007698
v 0.1111942 0.3673687 -0.1007698
v -0.1837605 0.3673687 -0.1007698
v 0.1111942 0.7471037 -0.1007698
v -0.1837605 1.127086 -0.1007698
v 0.1111942 0.7473513 -0.1007698
v -0.1837605 0.7473513 -0.1007698
v 0.1111942 1.127086 -0.1007698
v 0.1837364 0.5608143 -0.05076981
v -0.1112184 0.9405494 -0.05076981
v 0.1837363 0.9405494 -0.0507698
v -0.1112184 0.5608144 -0.05076981
v 0.1837364 0.9407969 -0.05076981
v -0.1112184 1.320532 -0.05076981
v 0.1837363 1.320532 -0.0507698
v -0.1112184 0.940797 -0.05076981
v -0.1837605 1.503353 -0.1007698
v 0.1111942 1.123618 -0.1007698
v -0.1837605 1.123618 -0.1007698
v 0.1111942 1.503353 -0.1007698
v -1.18224 0.1395962 0.04770831
v 1.18224 -0.515569 0.04770831
v -1.18224 -0.515569 0.04770831
v 1.18224 0.1395962 0.04770831
v -0.1245554 0.5502695 -0.02551272
v 0.126193 0.02604805 -0.02551272
v -0.1278404 0.02604805 -0.02551272
v 0.1261932 0.5502695 -0.02551272
v -0.1239137 0.6526709 -0.02551272
v 0.1261932 0.6526708 -0.02551272
v -0.1227445 0.839239 -0.02551272
v 0.1261932 0.7558427 -0.02551272
v -0.1172511 1.715852 -0.02551272
v 0.126193 1.715852 -0.02551272
v -0.3174789 1.715852 -0.02551272
v -0.4991814 0.9653487 -0.02551272
v -0.7762717 1.715852 -0.02551272
v -1.14587 1.181995 -0.02551272
v -0.5878322 0.6526709 -0.02551272
v -1.326193 0.6526711 -0.02551272
v -1.326193 0.5502697 -0.02551272
v -0.5878322 0.5502697 -0.02551272
v -0.5878322 0.02604805 -0.02551272
v -1.326193 0.02604812 -0.02551272
v 0.1300462 0.5502695 -3.821457E-08
v 0.5878322 0.02604801 0
v 0.12921 0.02604801 -9.571094E-09
v 0.587832 0.5502696 0
v 0.1302095 0.6526707 -3.820093E-08
v 0.587832 0.6526709 0
v 0.1305113 0.8418409 -3.513806E-08
v 0.4991812 0.9653487 0
v 0.1319055 1.715852 -6.232665E-09
v 0.3174788 1.715852 0
v 0.7762718 1.715852 0
v 1.14587 1.181995 -2.980232E-08
v 1.326193 0.652671 0
v 1.326193 0.5502696 0
v 1.326193 0.02604808 0
v -0.126193 1.715852 -1.490116E-08
v -0.1261931 0.7558426 -5.960464E-08
v -0.126193 0.6526707 -5.960464E-08
v -0.1261931 0.5502694 -5.960464E-08
v -0.126193 0.02604801 -1.490116E-08
v 0.4103833 1.008117 -0.15
v -0.001093537 1.385017 -0.15
v 0.4103833 1.385017 -0.15
v -0.001093537 1.008117 -0.15
v 0.4103833 0.7095238 -0.15
v -0.001093537 0.7095238 -0.15
v 0.4103833 0.3817989 -0.15
v -0.001093537 0.3817989 -0.15
v 0.4103833 -0.06633547 -0.15
v -0.001093537 -0.06633542 -0.15
v -0.4125703 1.385017 -0.15
v -0.4125703 1.008117 -0.15
v -0.4125703 0.7095238 -0.15
v -0.4125703 0.3817989 -0.15
v -0.4125703 -0.06633537 -0.15
vt 0.6895665 0.5258779
vt 0.6626314 0.5364719
vt 0.6914843 0.5364719
vt 0.660716 0.5258779
vt 0.611765 0.5364719
vt 0.611727 0.5258779
vt 0.5627379 0.5258779
vt 0.5608981 0.5364719
vt 0.5268117 0.5364719
vt 0.5281839 0.5258779
vt 0.5209571 0.5816717
vt 0.5530481 0.5816717
vt 0.5136822 0.6378374
vt 0.5432937 0.6378374
vt 0.5043572 0.7098309
vt 0.5307905 0.7098309
vt 0.6123881 0.7098309
vt 0.6121293 0.6378374
vt 0.6809648 0.6378374
vt 0.6939858 0.7098309
vt 0.7098362 0.6378374
vt 0.7228705 0.7098309
vt 0.6119275 0.5816717
vt 0.6708064 0.5816717
vt 0.6996676 0.5816717
vt 0.5253457 0.7500498
vt 0.641249 1
vt 0.641249 0.7500498
vt 0.5253457 1
vt 0.5253457 0.7500498
vt 0.641249 1
vt 0.5253457 1
vt 0.641249 0.7500498
vt 0.6895665 0.5258779
vt 0.6626314 0.5364719
vt 0.6914843 0.5364719
vt 0.660716 0.5258779
vt 0.611765 0.5364719
vt 0.611727 0.5258779
vt 0.5627379 0.5258779
vt 0.5608981 0.5364719
vt 0.5268117 0.5364719
vt 0.5281839 0.5258779
vt 0.5209571 0.5816717
vt 0.5530481 0.5816717
vt 0.5136822 0.6378374
vt 0.5432937 0.6378374
vt 0.5043572 0.7098309
vt 0.5307905 0.7098309
vt 0.6123881 0.7098309
vt 0.6121293 0.6378374
vt 0.6809648 0.6378374
vt 0.6939858 0.7098309
vt 0.7098362 0.6378374
vt 0.7228705 0.7098309
vt 0.6119275 0.5816717
vt 0.6708064 0.5816717
vt 0.6996676 0.5816717
vt 0.9180071 0.9311963
vt 0.9965283 0.9921867
vt 0.9965283 0.9311963
vt 0.9180071 0.9921867
vt 0.9180071 0.9311963
vt 0.9965283 0.9921867
vt 0.9965283 0.9311963
vt 0.9180071 0.9921867
vt 0.9180071 0.9311963
vt 0.9965283 0.9921867
vt 0.9965283 0.9311963
vt 0.9180071 0.9921867
vt 0.9180071 0.9311963
vt 0.9965283 0.9921867
vt 0.9965283 0.9311963
vt 0.9180071 0.9921867
vt 0.9180071 0.9311963
vt 0.9965283 0.9921867
vt 0.9965283 0.9311963
vt 0.9180071 0.9921867
vt 0.9180071 0.9311963
vt 0.9965283 0.9921867
vt 0.9965283 0.9311963
vt 0.9180071 0.9921867
vt 0.5305701 0.8111572
vt 0.6333584 0.9389326
vt 0.6333584 0.8111572
vt 0.5305701 0.9389326
vt 0.7699075 0.7627899
vt 0.6664231 0.7132908
vt 0.6664231 0.7634383
vt 0.7699075 0.7132908
vt 0.7901222 0.7626633
vt 0.7901221 0.7132908
vt 0.8269516 0.7624325
vt 0.8104888 0.7132908
vt 1 0.761348
vt 1 0.7132908
vt 1 0.8008741
vt 0.8518465 0.8367432
vt 1 0.8914424
vt 0.8946137 0.9644033
vt 0.7901221 0.8542434
vt 0.7901221 1
vt 0.7699075 1
vt 0.7699075 0.8542434
vt 0.6664231 0.8542434
vt 0.6664231 1
vt 0.7699075 0.7638738
vt 0.6664231 0.8542434
vt 0.6664231 0.7637088
vt 0.7699075 0.8542434
vt 0.7901222 0.7639061
vt 0.7901221 0.8542434
vt 0.8274653 0.7639657
vt 0.8518465 0.8367432
vt 1 0.7642409
vt 1 0.8008741
vt 1 0.8914424
vt 0.8946137 0.9644033
vt 0.7901221 1
vt 0.7699075 1
vt 0.6664231 1
vt 1 0.7132908
vt 0.8104888 0.7132908
vt 0.7901221 0.7132908
vt 0.7699075 0.7132908
vt 0.6664231 0.7132908
vt 0.9338748 0.539466
vt 1 0.6116576
vt 1 0.539466
vt 0.9338748 0.6116576
vt 0.8814881 0.539466
vt 0.8814881 0.6116577
vt 0.8239903 0.539466
vt 0.8239903 0.6116577
vt 0.7453673 0.539466
vt 0.7453674 0.6116576
vt 1 0.6838493
vt 0.9338748 0.6838493
vt 0.8814881 0.6838493
vt 0.8239904 0.6838493
vt 0.7453674 0.6838493
vn 0 0 1
vn 0 0 1
vn 0 0 1
vn 0 0 1
vn 0 0 1
vn 0 0 1
vn 0 0 1
vn 0 0 1
vn 0 0 1
vn 0 0 1
vn 0 0 1
vn 0 0 1
vn 0 0 1
vn 0 0 1
vn 0 0 1
vn 0 0 1
vn 0 0 1
vn 0 0 1
vn 0 0 1
vn 0 0 1
vn 0 0 1
vn 0 0 1
vn 0 0 1
vn 0 0 1
vn 0 0 1
vn 0 0 1
vn 0 0 1
vn 0 0 1
vn 0 0 1
vn 0 0 1
vn 0 0 1
vn 0 0 1
vn 0 0 1
vn 0 0 1
vn 0 0 1
vn 0 0 1
vn 0 0 1
vn 0 0 1
vn 0 0 1
vn 0 0 1
vn 0 0 1
vn 0 0 1
vn 0 0 1
vn 0 0 1
vn 0 0 1
vn 0 0 1
vn 0 0 1
vn 0 0 1
vn 0 0 1
vn 0 0 1
vn 0 0 1
vn 0 0 1
vn 0 0 1
vn 0 0 1
vn 0 0 1
vn 0 0 1
vn 0 0 1
vn 0 0 1
vn 0 0 1
vn 0 0 1
vn 0 0 1
vn 0 0 1
vn 0 0 1
vn 0 0 1
vn 0 0 1
vn 0 0 1
vn 0 0 1
vn 0 0 1
vn 0 0 1
vn 0 0 1
vn 0 0 1
vn 0 0 1
vn 0 0 1
vn 0 0 1
vn 0 0 1
vn 0 0 1
vn 0 0 1
vn 0 0 1
vn 0 0 1
vn 0 0 1
vn 0 0 1
vn 0 0 1
vn 0 0 1
vn 0 0 1
vn 0 0 1
vn 0 0 1
vn 0 0 1
vn 0 0 1
vn 0 0 1
vn 0 0 1
vn 0 0 1
vn 0 0 1
vn 0 0 1
vn 0 0 1
vn 0 0 1
vn 0 0 1
vn 0 0 1
vn 0 0 1
vn 0 0 1
vn 0 0 1
vn 0 0 1
vn 0 0 1
vn 0 0 1
vn 0 0 1
vn 0 0 1
vn 0 0 1
vn 0 0 1
vn 0 0 1
vn 0 0 1
vn 0 0 1
vn 0 0 1
vn 0 0 1
vn 0 0 1
vn 0 0 1
vn 0 0 1
vn 0 0 1
vn 0 0 1
vn 0 0 1
vn 0 0 1
vn 0 0 1
vn 0 0 1
vn 0 0 1
vn 0 0 1
vn 0 0 1
vn 0 0 1
vn 0 0 1
vn 0 0 1
vn 0 0 1
vn 0 0 1
vn 0 0 1
vn 0 0 1
vn 0 0 1
vn 0 0 1
vn 0 0 1
vn 0 0 1
vn 0 0 1
vn 0 0 1
vn 0 0 1
vn 0 0 1
vn 0 0 1
vn 0 0 1
g geo_0
f 3/3/3 2/2/2 1/1/1
f 2/2/2 4/4/4 1/1/1
f 4/4/4 2/2/2 5/5/5
f 6/6/6 4/4/4 5/5/5
f 6/6/6 5/5/5 7/7/7
f 5/5/5 8/8/8 7/7/7
f 7/7/7 8/8/8 9/9/9
f 10/10/10 7/7/7 9/9/9
f 9/9/9 8/8/8 11/11/11
f 8/8/8 12/12/12 11/11/11
f 11/11/11 12/12/12 13/13/13
f 12/12/12 14/14/14 13/13/13
f 13/13/13 14/14/14 15/15/15
f 14/14/14 16/16/16 15/15/15
f 17/17/17 16/16/16 14/14/14
f 18/18/18 17/17/17 14/14/14
f 18/18/18 14/14/14 12/12/12
f 18/18/18 19/19/19 17/17/17
f 19/19/19 20/20/20 17/17/17
f 20/20/20 19/19/19 21/21/21
f 22/22/22 20/20/20 21/21/21
f 23/23/23 18/18/18 12/12/12
f 18/18/18 23/23/23 19/19/19
f 23/23/23 12/12/12 8/8/8
f 23/23/23 24/24/24 19/19/19
f 21/21/21 19/19/19 25/25/25
f 19/19/19 24/24/24 25/25/25
f 23/23/23 5/5/5 24/24/24
f 5/5/5 23/23/23 8/8/8
f 5/5/5 2/2/2 24/24/24
f 25/25/25 24/24/24 3/3/3
f 24/24/24 2/2/2 3/3/3
f 28/28/28 27/27/27 26/26/26
f 27/27/27 29/29/29 26/26/26
f 32/32/32 31/31/31 30/30/30
f 31/31/31 33/33/33 30/30/30
f 36/36/36 35/35/35 34/34/34
f 35/35/35 37/37/37 34/34/34
f 37/37/37 35/35/35 38/38/38
f 39/39/39 37/37/37 38/38/38
f 39/39/39 38/38/38 40/40/40
f 38/38/38 41/41/41 40/40/40
f 40/40/40 41/41/41 42/42/42
f 43/43/43 40/40/40 42/42/42
f 42/42/42 41/41/41 44/44/44
f 41/41/41 45/45/45 44/44/44
f 44/44/44 45/45/45 46/46/46
f 45/45/45 47/47/47 46/46/46
f 46/46/46 47/47/47 48/48/48
f 47/47/47 49/49/49 48/48/48
f 50/50/50 49/49/49 47/47/47
f 51/51/51 50/50/50 47/47/47
f 51/51/51 47/47/47 45/45/45
f 51/51/51 52/52/52 50/50/50
f 52/52/52 53/53/53 50/50/50
f 53/53/53 52/52/52 54/54/54
f 55/55/55 53/53/53 54/54/54
f 56/56/56 51/51/51 45/45/45
f 51/51/51 56/56/56 52/52/52
f 56/56/56 45/45/45 41/41/41
f 56/56/56 57/57/57 52/52/52
f 54/54/54 52/52/52 58/58/58
f 52/52/52 57/57/57 58/58/58
f 56/56/56 38/38/38 57/57/57
f 38/38/38 56/56/56 41/41/41
f 38/38/38 35/35/35 57/57/57
f 58/58/58 57/57/57 36/36/36
f 57/57/57 35/35/35 36/36/36
f 61/61/61 60/60/60 59/59/59
f 60/60/60 62/62/62 59/59/59
f 65/65/65 64/64/64 63/63/63
f 64/64/64 66/66/66 63/63/63
f 69/69/69 68/68/68 67/67/67
f 68/68/68 70/70/70 67/67/67
f 73/73/73 72/72/72 71/71/71
f 72/72/72 74/74/74 71/71/71
f 77/77/77 76/76/76 75/75/75
f 76/76/76 78/78/78 75/75/75
f 81/81/81 80/80/80 79/79/79
f 80/80/80 82/82/82 79/79/79
f 85/85/85 84/84/84 83/83/83
f 84/84/84 86/86/86 83/83/83
f 89/89/89 88/88/88 87/87/87
f 88/88/88 90/90/90 87/87/87
f 87/87/87 90/90/90 91/91/91
f 90/90/90 92/92/92 91/91/91
f 91/91/91 92/92/92 93/93/93
f 92/92/92 94/94/94 93/93/93
f 93/93/93 94/94/94 95/95/95
f 94/94/94 96/96/96 95/95/95
f 95/95/95 97/97/97 93/93/93
f 97/97/97 98/98/98 93/93/93
f 93/93/93 98/98/98 91/91/91
f 98/98/98 97/97/97 99/99/99
f 100/100/100 98/98/98 99/99/99
f 101/101/101 98/98/98 100/100/100
f 98/98/98 101/101/101 91/91/91
f 91/91/91 101/101/101 87/87/87
f 102/102/102 101/101/101 100/100/100
f 102/102/102 103/103/103 101/101/101
f 103/103/103 104/104/104 101/101/101
f 105/105/105 104/104/104 103/103/103
f 106/106/106 105/105/105 103/103/103
f 101/101/101 104/104/104 87/87/87
f 87/87/87 104/104/104 89/89/89
f 104/104/104 105/105/105 89/89/89
f 109/109/109 108/108/108 107/107/107
f 108/108/108 110/110/110 107/107/107
f 107/107/107 110/110/110 111/111/111
f 110/110/110 112/112/112 111/111/111
f 111/111/111 112/112/112 113/113/113
f 112/112/112 114/114/114 113/113/113
f 113/113/113 114/114/114 115/115/115
f 114/114/114 116/116/116 115/115/115
f 116/116/116 114/114/114 117/117/117
f 114/114/114 118/118/118 117/117/117
f 114/114/114 112/112/112 118/118/118
f 112/112/112 119/119/119 118/118/118
f 119/119/119 112/112/112 120/120/120
f 112/112/112 110/110/110 120/120/120
f 120/120/120 110/110/110 108/108/108
f 121/121/121 120/120/120 108/108/108
f 115/115/115 122/122/122 113/113/113
f 122/122/122 123/123/123 113/113/113
f 113/113/113 123/123/123 111/111/111
f 123/123/123 124/124/124 111/111/111
f 111/111/111 124/124/124 107/107/107
f 124/124/124 125/125/125 107/107/107
f 107/107/107 125/125/125 109/109/109
f 125/125/125 126/126/126 109/109/109
f 129/129/129 128/128/128 127/127/127
f 128/128/128 130/130/130 127/127/127
f 127/127/127 130/130/130 131/131/131
f 130/130/130 132/132/132 131/131/131
f 131/131/131 132/132/132 133/133/133
f 132/132/132 134/134/134 133/133/133
f 133/133/133 134/134/134 135/135/135
f 134/134/134 136/136/136 135/135/135
f 128/128/128 137/137/137 130/130/130
f 137/137/137 138/138/138 130/130/130
f 130/130/130 138/138/138 132/132/132
f 138/138/138 139/139/139 132/132/132
f 132/132/132 139/139/139 134/134/134
f 139/139/139 140/140/140 134/134/134
f 134/134/134 140/140/140 136/136/136
f 140/140/140 141/141/141 136/136/136
