g geo
v 0.577538 1.166616 -0.03659886
v 0.8146832 1.239694 -0.03659886
v 0.8551908 1.196131 -0.03659886
v 0.5031703 1.239694 -0.03659886
v 0.8146832 1.298872 -0.03659886
v 0.5031703 1.298872 -0.03659886
v 0.8146832 1.581698 -0.03659886
v 0.5031703 1.581698 -0.03659886
v 0.6900826 1.045156 -0.03659886
v 0.9080336 1.138965 -0.03659886
v 0.7613046 0.9860377 -0.03659886
v 0.9654906 1.088485 -0.03659886
v 0.9089398 0.8409638 -0.03659886
v 1.048465 1.002004 -0.03659886
v 0.6737879 0.7780548 -0.03659886
v 0.5643473 0.9399769 -0.03659886
v 0.4420223 0.7160518 -0.03659886
v 0.3702264 0.8945793 -0.03659886
v 0.5117508 1.011897 -0.03659886
v 0.3359871 0.9791174 -0.03659886
v 0.4281231 1.153346 -0.03659886
v 0.2808599 1.140267 -0.03659886
v 0.372995 1.239694 -0.03659886
v 0.2446942 1.239694 -0.03659886
v 0.372995 1.298872 -0.03659886
v 0.2446942 1.298872 -0.03659886
v 0.372995 1.581698 -0.03659886
v 0.2446942 1.581698 -0.03659886
v 0.158201 0.9658082 -0.03659886
v 0.1743227 0.8773117 -0.03659886
v 0 0.8619463 -0.03659886
v 0 0.6619744 -0.03659886
v 0.2081282 0.6874371 -0.03659886
v 0 0.9539651 -0.03659886
v 0.1322442 1.136851 -0.03659886
v 0 1.133811 -0.03659886
v 0.1152154 1.239694 -0.03659886
v 0 1.239694 -0.03659886
v 0.1152154 1.298872 -0.03659886
v 0 1.298872 -0.03659886
v 0.1152154 1.581698 -0.03659886
v 0 1.581698 -0.03659886
v -0.1764641 0.877506 -0.03659886
v -0.2107103 0.687749 -0.03659886
v -0.3728724 0.8948241 -0.03659886
v -0.4452353 0.7164367 -0.03659886
v -0.3383026 0.9792805 -0.03659886
v -0.1601038 0.9659457 -0.03659886
v -0.2827997 1.140338 -0.03659886
v -0.1338367 1.1369 -0.03659886
v -0.2463484 1.239694 -0.03659886
v -0.1165859 1.239694 -0.03659886
v -0.1165859 1.298872 -0.03659886
v -0.2463484 1.298872 -0.03659886
v -0.1165859 1.581698 -0.03659886
v -0.2463484 1.581698 -0.03659886
v -0.5778326 0.9426996 -0.03659886
v -0.6899722 0.7817974 -0.03659886
v -0.7633686 0.9860377 -0.03659886
v -0.9115152 0.8409638 -0.03659886
v -0.9654908 1.088485 -0.03659886
v -1.048465 1.002003 -0.03659886
v -0.9080338 1.138965 -0.03659886
v -0.6918488 1.045156 -0.03659886
v -0.5238688 1.013856 -0.03659886
v -0.8551912 1.196131 -0.03659886
v -0.5789666 1.166616 -0.03659886
v -0.8146839 1.239694 -0.03659886
v -0.5043411 1.239694 -0.03659886
v -0.5043411 1.298872 -0.03659886
v -0.8146839 1.298872 -0.03659886
v -0.5043411 1.581698 -0.03659886
v -0.8146839 1.581698 -0.03659886
v -0.3817614 1.581698 -0.03659886
v -0.3817614 1.298872 -0.03659886
v -0.3817614 1.239694 -0.03659886
v -0.4382492 1.15413 -0.03659886
v 0.4601501 2.581016 -0.02062713
v 0 2.056682 -0.02062713
v 0 2.581016 -0.02062713
v 0.4601501 2.056682 -0.02062713
v -0.4601501 2.581016 -0.02062713
v -0.4601501 2.056682 -0.02062713
v -0.9203002 2.056682 -0.02062713
v -0.9203002 2.581016 -0.02062713
v 0.9203002 2.056682 -0.02062713
v 0.9203002 2.581016 -0.02062713
v -0.9203002 1.489676 -0.02062713
v -0.4601502 1.489676 -0.02062713
v -0.4601501 1.125896 -0.02062713
v 0 1.125896 -0.02062713
v 0 1.489676 -0.02062713
v 0.4601501 1.125896 -0.02062713
v 0.4601501 1.489676 -0.02062713
v 0.9203002 1.489676 -0.02062713
v 0 2.874218 0.1037178
v 0.4656013 1.817299 0.1037178
v 0 1.817299 0.1037178
v 0.4656013 2.874218 0.1037178
v -0.4656013 1.817299 0.1037178
v -0.4656013 2.874218 0.1037178
v -1.925471 1.599873 0.2299098
v -2.366516 3.400801 0.2299098
v -1.925471 3.400801 0.2299098
v -2.366516 1.599873 0.2299098
v 0 1.684169 0.08890246
v 0.316409 2.129992 0.08890246
v 0.316409 1.684169 0.08890246
v 0 2.129992 0.08890246
v -0.316409 2.129992 0.08890246
v -0.3164089 1.684169 0.08890246
v 1.589891 1.779817 0.0154405
v 0.4556785 2.348108 0.0154405
v 1.589891 2.348108 0.0154405
v 0.4556785 1.779818 0.0154405
v 2.165806 1.780915 0.1549718
v 1.21934 2.349205 0.1549718
v 2.165806 2.349205 0.1549718
v 1.21934 1.780915 0.1549718
v 2.292145 1.779731 0.125404
v 1.876324 2.348022 0.125404
v 2.292145 2.348022 0.125404
v 1.876324 1.779731 0.125404
v 2.330312 1.612543 0.2552365
v 1.900841 3.409129 0.2552365
v 2.330312 3.409129 0.2552365
v 1.900841 1.612543 0.2552365
v 2.297155 1.779731 0.2745253
v 1.881334 2.348022 0.2745253
v 2.297155 2.348022 0.2745253
v 1.881334 1.779731 0.2745253
v 0.3203834 1.90702 0.03321907
v 1.145334 2.510641 0.03321907
v 1.145334 1.90702 0.03321907
v 0.3203834 2.510641 0.03321907
v 0.0300833 0.4240775 -0.06094429
v 0.6683885 0.816847 -0.06094426
v 0.6683885 0.4240775 -0.06094426
v 0.0300833 0.816847 -0.06094426
v 0.004424095 1.513218 -0.1085514
v 0.5220163 0.4264663 -0.1085514
v 0.004424095 0.4264663 -0.1085514
v 0.5220163 1.513218 -0.1085514
v 0.00853014 -0.178846 -0.1256893
v 0.5674407 0.6950722 -0.1256893
v 0.5674407 -0.178846 -0.1256893
v 0.00853014 0.6950722 -0.1256893
v 0.2822641 2.053224 0.1422246
v 0.1244791 2.225441 0.1422246
v 0.2822641 2.225441 0.1422246
v 0.1244791 2.053224 0.1422246
v -1.589891 1.779817 0.0154405
v -0.4556785 2.348108 0.0154405
v -0.4556785 1.779818 0.0154405
v -1.589891 2.348108 0.0154405
v -2.292145 1.779731 0.008169788
v -1.876324 2.348022 0.008169788
v -1.876324 1.779731 0.008169788
v -2.292145 2.348022 0.008169788
v -2.297155 1.779731 0.2491986
v -1.881334 2.348022 0.2491986
v -1.881334 1.779731 0.2491986
v -2.297155 2.348022 0.2491986
v -0.3203834 1.90702 0.03321907
v -1.145334 2.510641 0.03321907
v -0.3203834 2.510641 0.03321907
v -1.145334 1.90702 0.03321907
v -0.0300833 0.4240775 -0.06094429
v -0.6683885 0.816847 -0.06094426
v -0.0300833 0.816847 -0.06094426
v -0.6683885 0.4240775 -0.06094426
v -0.004424095 1.513218 -0.1085514
v -0.5220163 0.4264662 -0.1085514
v -0.5220163 1.513218 -0.1085514
v -0.004424095 0.4264662 -0.1085514
v -0.00853014 -0.1788459 -0.1256893
v -0.5674407 0.6950722 -0.1256893
v -0.00853014 0.6950722 -0.1256893
v -0.5674407 -0.1788459 -0.1256893
v -0.2822641 2.053224 0.1422246
v -0.1244791 2.225441 0.1422246
v -0.1244791 2.053224 0.1422246
v -0.2822641 2.225441 0.1422246
v -2.165806 1.780915 0.05667075
v -1.2159 2.349205 0.05667075
v -1.2159 1.780915 0.05667075
v -2.165806 2.349205 0.05667075
v -0.007010495 0.7209376 -0.0770188
v 0.7152188 1.41281 -0.0770188
v 0.7152188 0.7209377 -0.0770188
v -0.007010495 1.41281 -0.0770188
v -0.7292397 1.41281 -0.0770188
v -0.7292397 0.7209376 -0.0770188
v 4.768372E-07 1.051814 0
v 0.818147 1.365221 0
v 0.818147 1.051814 0
v 4.768372E-07 1.365221 0
v -0.8181461 1.365221 0
v -0.8181461 1.051814 0
v 4.768372E-07 1.682542 0
v -0.8181461 1.682542 0
v 0.818147 1.682542 0
vt 0.4003394 0.2800805
vt 0.4595252 0.2983189
vt 0.4696348 0.2874467
vt 0.3817791 0.2983189
vt 0.4595252 0.3130886
vt 0.3817791 0.3130886
vt 0.4595252 0.3836749
vt 0.3817791 0.3836749
vt 0.4287094 0.2500715
vt 0.4828232 0.2731795
vt 0.4462031 0.2350124
vt 0.4971629 0.2605808
vt 0.4830493 0.1988055
vt 0.5178713 0.2389971
vt 0.424361 0.1831049
vt 0.3970473 0.2235168
vt 0.3665179 0.1676305
vt 0.3485994 0.2121866
vt 0.3840603 0.2416175
vt 0.3400541 0.2332853
vt 0.363049 0.2767686
vt 0.3262956 0.2735044
vt 0.3492905 0.2983189
vt 0.3172697 0.2983189
vt 0.3492905 0.3130886
vt 0.3172697 0.3130886
vt 0.3492905 0.3836749
vt 0.3172697 0.3836749
vt 0.2956829 0.2299636
vt 0.2997065 0.2078771
vt 0.2561997 0.2040422
vt 0.2561997 0.1541341
vt 0.3081435 0.1604889
vt 0.2561997 0.2270079
vt 0.2892047 0.2726519
vt 0.2561997 0.2718933
vt 0.2849548 0.2983189
vt 0.2561997 0.2983189
vt 0.2849548 0.3130886
vt 0.2561997 0.3130886
vt 0.2849548 0.3836749
vt 0.2561997 0.3836749
vt 0.2121585 0.2079255
vt 0.2036115 0.1605668
vt 0.1631398 0.2122477
vt 0.1450797 0.1677265
vt 0.1717676 0.233326
vt 0.2162417 0.229998
vt 0.1856197 0.273522
vt 0.2227973 0.2726641
vt 0.1947171 0.2983189
vt 0.2271027 0.2983189
vt 0.2271027 0.3130886
vt 0.1947171 0.3130886
vt 0.2271027 0.3836749
vt 0.1947171 0.3836749
vt 0.1119866 0.2241963
vt 0.08399927 0.184039
vt 0.06568123 0.2350124
vt 0.02870746 0.1988055
vt 0.01523641 0.2605807
vt -0.005471885 0.2389971
vt 0.0295763 0.2731795
vt 0.08324935 0.2500715
vt 0.1253069 0.2421152
vt 0.04276453 0.2874467
vt 0.1117036 0.2800805
vt 0.05287431 0.2983189
vt 0.1303283 0.2983189
vt 0.1303283 0.3130886
vt 0.05287431 0.3130886
vt 0.1303283 0.3836749
vt 0.05287431 0.3836749
vt 0.1609212 0.3836749
vt 0.1609212 0.3130886
vt 0.1609212 0.2983189
vt 0.1468233 0.2769644
vt 0.5779133 0.9976262
vt 0.4628757 0.8665428
vt 0.4628757 0.9976262
vt 0.5779133 0.8665428
vt 0.3478382 0.9976262
vt 0.3478382 0.8665429
vt 0.2328007 0.8665428
vt 0.2328007 0.9976262
vt 0.6929508 0.8665428
vt 0.6929508 0.9976262
vt 0.2328007 0.7247913
vt 0.3478382 0.7247914
vt 0.3478382 0.6338464
vt 0.4628757 0.6338464
vt 0.4628757 0.7247913
vt 0.5779133 0.6338464
vt 0.5779133 0.7247913
vt 0.6929508 0.7247913
vt 0.1202588 0.9961415
vt 0.2366592 0.7319115
vt 0.1202588 0.7319115
vt 0.2366592 0.9961415
vt 0.003858504 0.7319115
vt 0.003858504 0.9961415
vt 0.01099288 0.5059734
vt 0.4612251 0.6162345
vt 0.4612251 0.5059734
vt 0.01099288 0.6162345
vt 0.120897 0.6166757
vt 0.1999992 0.7281315
vt 0.1999992 0.6166757
vt 0.120897 0.7281315
vt 0.04179472 0.7281315
vt 0.04179472 0.6166757
vt 0.6960679 0.7119939
vt 0.8381405 0.9976262
vt 0.8381405 0.7119939
vt 0.6960679 0.9976262
vt 0.6960679 0.4753636
vt 0.8381405 0.7119799
vt 0.8381405 0.4753636
vt 0.6960679 0.7119799
vt 0.6960679 0.3671572
vt 0.8381405 0.4711125
vt 0.8381405 0.3671572
vt 0.6960678 0.4711125
vt 0.01207853 0.3916923
vt 0.4612251 0.4990601
vt 0.4612251 0.3916923
vt 0.01207853 0.4990602
vt 0.5417277 0.3671572
vt 0.6838003 0.4711125
vt 0.6838003 0.3671572
vt 0.5417276 0.4711125
vt 0.4758275 0.4771676
vt 0.6828196 0.6286249
vt 0.6828196 0.4771676
vt 0.4758275 0.6286249
vt 0.8436146 0.6258457
vt 0.9942368 0.7185283
vt 0.9942368 0.6258457
vt 0.8436146 0.7185283
vt 0.8455684 0.9935691
vt 0.9749664 0.7218812
vt 0.8455684 0.7218812
vt 0.9749664 0.9935691
vt 0.8455684 0.3911147
vt 0.985296 0.6095943
vt 0.985296 0.3911147
vt 0.8455684 0.6095943
vt 0.2598594 0.6608745
vt 0.2204131 0.7039287
vt 0.2598594 0.7039287
vt 0.2204131 0.6608745
vt 0.6960679 0.7119939
vt 0.8381405 0.9976262
vt 0.6960679 0.9976262
vt 0.8381405 0.7119939
vt 0.6960679 0.3671572
vt 0.8381405 0.4711125
vt 0.6960678 0.4711125
vt 0.8381405 0.3671572
vt 0.5417277 0.3671572
vt 0.6838003 0.4711125
vt 0.5417276 0.4711125
vt 0.6838003 0.3671572
vt 0.4758275 0.4771676
vt 0.6828196 0.6286249
vt 0.4758275 0.6286249
vt 0.6828196 0.4771676
vt 0.8436146 0.6258457
vt 0.9942368 0.7185283
vt 0.8436146 0.7185283
vt 0.9942368 0.6258457
vt 0.8455684 0.9935691
vt 0.9749664 0.7218812
vt 0.9749664 0.9935691
vt 0.8455684 0.7218812
vt 0.8455684 0.3911147
vt 0.985296 0.6095943
vt 0.8455684 0.6095943
vt 0.985296 0.3911147
vt 0.2598594 0.6608745
vt 0.2204131 0.7039287
vt 0.2204131 0.6608745
vt 0.2598594 0.7039287
vt 0.6960679 0.4753636
vt 0.8381405 0.71284
vt 0.6960679 0.71284
vt 0.8381405 0.4753636
vt 0.7451795 0.006766163
vt 0.9183252 0.1726342
vt 0.9183252 0.006766163
vt 0.7451795 0.1726342
vt 0.5720338 0.1726342
vt 0.5720338 0.006766163
vt 0.7460514 0.1939932
vt 0.950588 0.2723448
vt 0.950588 0.1939932
vt 0.7460515 0.2723448
vt 0.5415148 0.2723448
vt 0.5415148 0.1939932
vt 0.7460515 0.3516752
vt 0.5415148 0.3516752
vt 0.950588 0.3516752
vn 0 0 1
vn 0 0 1
vn 0 0 1
vn 0 0 1
vn 0 0 1
vn 0 0 1
vn 0 0 1
vn 0 0 1
vn 0 0 1
vn 0 0 1
vn 0 0 1
vn 0 0 1
vn 0 0 1
vn 0 0 1
vn 0 0 1
vn 0 0 1
vn 0 0 1
vn 0 0 1
vn 0 0 1
vn 0 0 1
vn 0 0 1
vn 0 0 1
vn 0 0 1
vn 0 0 1
vn 0 0 1
vn 0 0 1
vn 0 0 1
vn 0 0 1
vn 0 0 1
vn 0 0 1
vn 0 0 1
vn 0 0 1
vn 0 0 1
vn 0 0 1
vn 0 0 1
vn 0 0 1
vn 0 0 1
vn 0 0 1
vn 0 0 1
vn 0 0 1
vn 0 0 1
vn 0 0 1
vn 0 0 1
vn 0 0 1
vn 0 0 1
vn 0 0 1
vn 0 0 1
vn 0 0 1
vn 0 0 1
vn 0 0 1
vn 0 0 1
vn 0 0 1
vn 0 0 1
vn 0 0 1
vn 0 0 1
vn 0 0 1
vn 0 0 1
vn 0 0 1
vn 0 0 1
vn 0 0 1
vn 0 0 1
vn 0 0 1
vn 0 0 1
vn 0 0 1
vn 0 0 1
vn 0 0 1
vn 0 0 1
vn 0 0 1
vn 0 0 1
vn 0 0 1
vn 0 0 1
vn 0 0 1
vn 0 0 1
vn 0 0 1
vn 0 0 1
vn 0 0 1
vn 0 0 1
vn 0 0 1
vn 0 0 1
vn 0 0 1
vn 0 0 1
vn 0 0 1
vn 0 0 1
vn 0 0 1
vn 0 0 1
vn 0 0 1
vn 0 0 1
vn 0 0 1
vn 0 0 1
vn 0 0 1
vn 0 0 1
vn 0 0 1
vn 0 0 1
vn 0 0 1
vn 0 0 1
vn 0 0 1
vn 0 0 1
vn 0 0 1
vn 0 0 1
vn 0 0 1
vn 0 0 1
vn 0 0 1
vn 0 0 1
vn 0 0 1
vn 0 0 1
vn 0 0 1
vn 0 0 1
vn 0 0 1
vn 0 0 1
vn 0 0 1
vn 0 0 1
vn 0 0 1
vn 0 0 1
vn 0 0 1
vn 0 0 1
vn 0 0 1
vn 0 0 1
vn 0 0 1
vn 0 0 1
vn 0 0 1
vn 0 0 1
vn 0 0 1
vn 0 0 1
vn 0 0 1
vn 0 0 1
vn 0 0 1
vn 0 0 1
vn 0 0 1
vn 0 0 1
vn 0 0 1
vn 0 0 1
vn 0 0 1
vn 0 0 1
vn 0 0 1
vn 0 0 1
vn 0 0 1
vn 0 0 1
vn 0 0 1
vn 0 0 1
vn 0 0 1
vn 0 0 1
vn 0 0 1
vn 0 0 1
vn 0 0 1
vn 0 0 1
vn 0 0 1
vn 0 0 1
vn 0 0 1
vn 0 0 1
vn 0 0 1
vn 0 0 1
vn 0 0 1
vn 0 0 1
vn 0 0 1
vn 0 0 1
vn 0 0 1
vn 0 0 1
vn 0 0 1
vn 0 0 1
vn 0 0 1
vn 0 0 1
vn 0 0 1
vn 0 0 1
vn 0 0 1
vn 0 0 1
vn 0 0 1
vn 0 0 1
vn 0 0 1
vn 0 0 1
vn 0 0 1
vn 0 0 1
vn 0 0 1
vn 0 0 1
vn 0 0 1
vn 0 0 1
vn 0 0 1
vn 0 0 1
vn 0 0 1
vn 0 0 1
vn 0 0 1
vn 0 0 1
vn 0 0 1
vn 0 0 1
vn 0 0 1
vn 0 0 1
vn 0 0 1
vn 0 0 1
vn 0 0 1
vn 0 0 1
vn 0 0 1
vn 0 0 1
vn 0 0 1
vn 0 0 1
vn 0 0 1
vn 0 0 1
vn 0 0 1
vn 0 0 1
vn 0 0 1
vn 0 0 1
vn 0 0 1
vn 0 0 1
vn 0 0 1
g geo_0
f 3/3/3 2/2/2 1/1/1
f 2/2/2 4/4/4 1/1/1
f 2/2/2 5/5/5 4/4/4
f 5/5/5 6/6/6 4/4/4
f 5/5/5 7/7/7 6/6/6
f 7/7/7 8/8/8 6/6/6
f 3/3/3 1/1/1 9/9/9
f 10/10/10 3/3/3 9/9/9
f 10/10/10 9/9/9 11/11/11
f 12/12/12 10/10/10 11/11/11
f 12/12/12 11/11/11 13/13/13
f 14/14/14 12/12/12 13/13/13
f 13/13/13 11/11/11 15/15/15
f 11/11/11 16/16/16 15/15/15
f 15/15/15 16/16/16 17/17/17
f 16/16/16 18/18/18 17/17/17
f 16/16/16 19/19/19 18/18/18
f 16/16/16 11/11/11 19/19/19
f 11/11/11 9/9/9 19/19/19
f 19/19/19 20/20/20 18/18/18
f 19/19/19 21/21/21 20/20/20
f 19/19/19 9/9/9 21/21/21
f 21/21/21 22/22/22 20/20/20
f 21/21/21 23/23/23 22/22/22
f 23/23/23 24/24/24 22/22/22
f 23/23/23 25/25/25 24/24/24
f 25/25/25 26/26/26 24/24/24
f 25/25/25 27/27/27 26/26/26
f 27/27/27 28/28/28 26/26/26
f 21/21/21 1/1/1 23/23/23
f 9/9/9 1/1/1 21/21/21
f 1/1/1 4/4/4 23/23/23
f 23/23/23 4/4/4 25/25/25
f 4/4/4 6/6/6 25/25/25
f 25/25/25 6/6/6 27/27/27
f 6/6/6 8/8/8 27/27/27
f 18/18/18 20/20/20 29/29/29
f 30/30/30 18/18/18 29/29/29
f 30/30/30 29/29/29 31/31/31
f 30/30/30 31/31/31 32/32/32
f 33/33/33 30/30/30 32/32/32
f 18/18/18 30/30/30 33/33/33
f 29/29/29 34/34/34 31/31/31
f 29/29/29 35/35/35 34/34/34
f 35/35/35 36/36/36 34/34/34
f 35/35/35 37/37/37 36/36/36
f 37/37/37 38/38/38 36/36/36
f 37/37/37 39/39/39 38/38/38
f 39/39/39 40/40/40 38/38/38
f 39/39/39 41/41/41 40/40/40
f 41/41/41 42/42/42 40/40/40
f 31/31/31 43/43/43 32/32/32
f 43/43/43 44/44/44 32/32/32
f 43/43/43 45/45/45 44/44/44
f 45/45/45 46/46/46 44/44/44
f 47/47/47 45/45/45 43/43/43
f 48/48/48 47/47/47 43/43/43
f 49/49/49 47/47/47 48/48/48
f 50/50/50 49/49/49 48/48/48
f 51/51/51 49/49/49 50/50/50
f 52/52/52 51/51/51 50/50/50
f 52/52/52 53/53/53 51/51/51
f 52/52/52 38/38/38 53/53/53
f 38/38/38 40/40/40 53/53/53
f 53/53/53 54/54/54 51/51/51
f 53/53/53 55/55/55 54/54/54
f 53/53/53 40/40/40 55/55/55
f 40/40/40 42/42/42 55/55/55
f 55/55/55 56/56/56 54/54/54
f 45/45/45 57/57/57 46/46/46
f 57/57/57 58/58/58 46/46/46
f 57/57/57 59/59/59 58/58/58
f 59/59/59 60/60/60 58/58/58
f 59/59/59 61/61/61 60/60/60
f 61/61/61 62/62/62 60/60/60
f 63/63/63 61/61/61 59/59/59
f 64/64/64 63/63/63 59/59/59
f 64/64/64 59/59/59 57/57/57
f 65/65/65 64/64/64 57/57/57
f 66/66/66 63/63/63 64/64/64
f 67/67/67 66/66/66 64/64/64
f 67/67/67 64/64/64 65/65/65
f 68/68/68 66/66/66 67/67/67
f 69/69/69 68/68/68 67/67/67
f 69/69/69 70/70/70 68/68/68
f 70/70/70 71/71/71 68/68/68
f 70/70/70 72/72/72 71/71/71
f 72/72/72 73/73/73 71/71/71
f 74/74/74 72/72/72 70/70/70
f 75/75/75 74/74/74 70/70/70
f 75/75/75 70/70/70 69/69/69
f 76/76/76 75/75/75 69/69/69
f 76/76/76 69/69/69 77/77/77
f 69/69/69 67/67/67 77/77/77
f 77/77/77 67/67/67 65/65/65
f 77/77/77 65/65/65 47/47/47
f 47/47/47 65/65/65 45/45/45
f 65/65/65 57/57/57 45/45/45
f 49/49/49 77/77/77 47/47/47
f 76/76/76 77/77/77 49/49/49
f 51/51/51 76/76/76 49/49/49
f 76/76/76 51/51/51 75/75/75
f 51/51/51 54/54/54 75/75/75
f 75/75/75 54/54/54 74/74/74
f 54/54/54 56/56/56 74/74/74
f 80/80/80 79/79/79 78/78/78
f 79/79/79 81/81/81 78/78/78
f 79/79/79 80/80/80 82/82/82
f 83/83/83 79/79/79 82/82/82
f 84/84/84 83/83/83 82/82/82
f 85/85/85 84/84/84 82/82/82
f 81/81/81 86/86/86 78/78/78
f 86/86/86 87/87/87 78/78/78
f 84/84/84 88/88/88 83/83/83
f 88/88/88 89/89/89 83/83/83
f 83/83/83 89/89/89 79/79/79
f 90/90/90 89/89/89 88/88/88
f 90/90/90 91/91/91 89/89/89
f 91/91/91 92/92/92 89/89/89
f 89/89/89 92/92/92 79/79/79
f 79/79/79 92/92/92 81/81/81
f 92/92/92 91/91/91 93/93/93
f 94/94/94 92/92/92 93/93/93
f 92/92/92 94/94/94 81/81/81
f 81/81/81 94/94/94 86/86/86
f 95/95/95 94/94/94 93/93/93
f 94/94/94 95/95/95 86/86/86
f 98/98/98 97/97/97 96/96/96
f 97/97/97 99/99/99 96/96/96
f 100/100/100 98/98/98 96/96/96
f 101/101/101 100/100/100 96/96/96
f 104/104/104 103/103/103 102/102/102
f 103/103/103 105/105/105 102/102/102
f 108/108/108 107/107/107 106/106/106
f 107/107/107 109/109/109 106/106/106
f 109/109/109 110/110/110 106/106/106
f 110/110/110 111/111/111 106/106/106
f 114/114/114 113/113/113 112/112/112
f 113/113/113 115/115/115 112/112/112
f 118/118/118 117/117/117 116/116/116
f 117/117/117 119/119/119 116/116/116
f 122/122/122 121/121/121 120/120/120
f 121/121/121 123/123/123 120/120/120
f 126/126/126 125/125/125 124/124/124
f 125/125/125 127/127/127 124/124/124
f 130/130/130 129/129/129 128/128/128
f 129/129/129 131/131/131 128/128/128
f 134/134/134 133/133/133 132/132/132
f 133/133/133 135/135/135 132/132/132
f 138/138/138 137/137/137 136/136/136
f 137/137/137 139/139/139 136/136/136
f 142/142/142 141/141/141 140/140/140
f 141/141/141 143/143/143 140/140/140
f 146/146/146 145/145/145 144/144/144
f 145/145/145 147/147/147 144/144/144
f 150/150/150 149/149/149 148/148/148
f 149/149/149 151/151/151 148/148/148
f 154/154/154 153/153/153 152/152/152
f 153/153/153 155/155/155 152/152/152
f 158/158/158 157/157/157 156/156/156
f 157/157/157 159/159/159 156/156/156
f 162/162/162 161/161/161 160/160/160
f 161/161/161 163/163/163 160/160/160
f 166/166/166 165/165/165 164/164/164
f 165/165/165 167/167/167 164/164/164
f 170/170/170 169/169/169 168/168/168
f 169/169/169 171/171/171 168/168/168
f 174/174/174 173/173/173 172/172/172
f 173/173/173 175/175/175 172/172/172
f 178/178/178 177/177/177 176/176/176
f 177/177/177 179/179/179 176/176/176
f 182/182/182 181/181/181 180/180/180
f 181/181/181 183/183/183 180/180/180
f 186/186/186 185/185/185 184/184/184
f 185/185/185 187/187/187 184/184/184
f 190/190/190 189/189/189 188/188/188
f 189/189/189 191/191/191 188/188/188
f 191/191/191 192/192/192 188/188/188
f 192/192/192 193/193/193 188/188/188
f 196/196/196 195/195/195 194/194/194
f 195/195/195 197/197/197 194/194/194
f 194/194/194 197/197/197 198/198/198
f 199/199/199 194/194/194 198/198/198
f 198/198/198 197/197/197 200/200/200
f 200/200/200 197/197/197 195/195/195
f 201/201/201 198/198/198 200/200/200
f 202/202/202 200/200/200 195/195/195
f 34/34/34 48/48/48 31/31/31
f 48/48/48 43/43/43 31/31/31
f 50/50/50 48/48/48 34/34/34
f 36/36/36 50/50/50 34/34/34
f 52/52/52 50/50/50 36/36/36
f 38/38/38 52/52/52 36/36/36
f 17/17/17 18/18/18 33/33/33
f 29/29/29 20/20/20 35/35/35
f 20/20/20 22/22/22 35/35/35
f 35/35/35 22/22/22 37/37/37
f 22/22/22 24/24/24 37/37/37
f 37/37/37 24/24/24 39/39/39
f 24/24/24 26/26/26 39/39/39
f 39/39/39 26/26/26 41/41/41
f 26/26/26 28/28/28 41/41/41
