g geo
v -0.004694867 -0.004694867 0.001271511
v 0.004694867 0.004694867 0.001271511
v 0.004694867 -0.004694867 0.001271511
v -0.004694867 0.004694867 0.001271511
v 0.009510571 0.00309017 -2.384186E-09
v 0.00539345 0.003918569 -2.384186E-09
v 0.008090175 0.005877854 -2.384186E-09
v 0.006340381 0.002060113 -2.384186E-09
v 0.003918571 0.005393448 -2.384186E-09
v 0.005877856 0.008090173 -2.384186E-09
v 0.002060114 0.006340378 -2.384186E-09
v 0.003090171 0.009510568 -2.384186E-09
v 0 0.006666668 -2.384186E-09
v 0 0.01 -2.384186E-09
v -0.002060114 0.006340378 -2.384186E-09
v -0.003090171 0.009510567 -2.384186E-09
v -0.00391857 0.005393447 -2.384186E-09
v -0.005877855 0.008090171 -2.384186E-09
v -0.005393448 0.003918568 -2.384186E-09
v -0.008090172 0.005877852 -2.384186E-09
v -0.006340378 0.002060112 -2.384186E-09
v -0.009510567 0.003090169 -2.384186E-09
v -0.006666669 -1.788139E-09 -2.384186E-09
v -0.01 -1.788139E-09 -2.384186E-09
v -0.006340378 -0.002060116 -2.384186E-09
v -0.009510567 -0.003090172 -2.384186E-09
v -0.005393448 -0.003918571 -2.384186E-09
v -0.008090172 -0.005877855 -2.384186E-09
v -0.003918569 -0.00539345 -2.384186E-09
v -0.005877853 -0.008090173 -2.384186E-09
v -0.002060114 -0.006340379 -2.384186E-09
v -0.00309017 -0.009510568 -2.384186E-09
v -1.986822E-10 -0.006666669 -2.384186E-09
v -2.980232E-10 -0.01 -2.384186E-09
v 0.002060113 -0.006340379 -2.384186E-09
v 0.00309017 -0.009510567 -2.384186E-09
v 0.003918569 -0.005393449 -2.384186E-09
v 0.005877852 -0.008090172 -2.384186E-09
v 0.005393446 -0.00391857 -2.384186E-09
v 0.00809017 -0.005877855 -2.384186E-09
v 0.006340377 -0.002060115 -2.384186E-09
v 0.009510566 -0.003090172 -2.384186E-09
v 0.006666667 -1.788139E-09 -2.384186E-09
v 0.01 -1.788139E-09 -2.384186E-09
v -9.934108E-11 -0.003333336 -2.384186E-09
v 0.001030057 -0.00317019 -2.384186E-09
v 0.001959284 -0.002696725 -2.384186E-09
v 0.002696723 -0.001959286 -2.384186E-09
v 0.003170189 -0.001030058 -2.384186E-09
v 0.003333333 -1.788139E-09 -2.384186E-09
v 0.00317019 0.001030055 -2.384186E-09
v 0.002696725 0.001959284 -2.384186E-09
v 0.001959285 0.002696723 -2.384186E-09
v 0.001030057 0.003170188 -2.384186E-09
v 0 0.003333333 -2.384186E-09
v -0.001030057 0.003170188 -2.384186E-09
v -0.001959285 0.002696723 -2.384186E-09
v -0.002696724 0.001959283 -2.384186E-09
v -0.003170189 0.001030055 -2.384186E-09
v -0.003333334 -1.788139E-09 -2.384186E-09
v -0.003170189 -0.001030059 -2.384186E-09
v -0.002696724 -0.001959286 -2.384186E-09
v -0.001959285 -0.002696726 -2.384186E-09
v -0.001030057 -0.003170191 -2.384186E-09
v 0 -1.788139E-09 -2.384186E-09
v 0.01097716 0.003566692 0.001635545
v 0.00644851 0.004685115 0.001635545
v 0.009337727 0.006784254 0.001635545
v 0.007580677 0.00246311 0.001635545
v 0.004685117 0.006448508 0.001635545
v 0.006784255 0.009337725 0.001635545
v 0.002463111 0.007580677 0.001635545
v 0.003566694 0.01097715 0.001635545
v 1.401322E-11 0.007970794 0.001635545
v -7.129518E-11 0.01154206 0.001635545
v -0.002463111 0.007580676 0.001635545
v -0.003566693 0.01097715 0.001635545
v -0.004685116 0.006448507 0.001635545
v -0.006784253 0.009337723 0.001635545
v -0.00644851 0.004685113 0.001635545
v -0.009337725 0.006784252 0.001635545
v -0.007580676 0.002463109 0.001635545
v -0.01097715 0.003566691 0.001635545
v -0.007970794 -1.851629E-09 0.001635545
v -0.01154206 -1.808757E-09 0.001635545
v -0.007580676 -0.002463112 0.001635545
v -0.01097715 -0.003566695 0.001635545
v -0.006448507 -0.004685116 0.001635545
v -0.009337725 -0.006784254 0.001635545
v -0.004685115 -0.006448508 0.001635545
v -0.006784253 -0.009337723 0.001635545
v -0.002463111 -0.007580677 0.001635545
v -0.003566693 -0.01097715 0.001635545
v -2.235349E-10 -0.007970795 0.001635545
v -4.152756E-10 -0.01154206 0.001635545
v 0.00246311 -0.007580675 0.001635545
v 0.003566691 -0.01097715 0.001635545
v 0.004685113 -0.006448508 0.001635545
v 0.00678425 -0.009337723 0.001635545
v 0.006448506 -0.004685116 0.001635545
v 0.00933772 -0.006784254 0.001635545
v 0.007580674 -0.002463112 0.001635545
v 0.01097715 -0.003566694 0.001635545
v 0.007970791 -1.851629E-09 0.001635545
v 0.01154206 -1.808757E-09 0.001635545
v 0.003853056 0.001240553 0.0031655
v 0.00218507 0.001576165 0.0031655
v 0.003277606 0.002369937 0.0031655
v 0.002568704 0.0008232408 0.0031655
v 0.001587546 0.002173689 0.0031655
v 0.002381319 0.003266224 0.0031655
v 0.0008346221 0.002557324 0.0031655
v 0.001251933 0.003841675 0.0031655
v -8.400558E-10 0.002689513 0.0031655
v -8.400558E-10 0.004039961 0.0031655
v -0.0008346236 0.002557323 0.0031655
v -0.001251935 0.003841675 0.0031655
v -0.001587547 0.002173689 0.0031655
v -0.00238132 0.003266224 0.0031655
v -0.002185071 0.001576164 0.0031655
v -0.003277607 0.002369937 0.0031655
v -0.002568706 0.0008232405 0.0031655
v -0.003853058 0.001240552 0.0031655
v -0.002700895 -1.138199E-05 0.0031655
v -0.004051343 -1.138199E-05 0.0031655
v 0.0004173106 0.00127297 0.0031655
v -8.400558E-10 0.001339066 0.0031655
v -0.0004173122 0.00127297 0.0031655
v -0.000793774 0.001081153 0.0031655
v -0.001092536 0.0007823911 0.0031655
v -0.001284353 0.0004059293 0.0031655
v -0.001350448 -1.138199E-05 0.0031655
v -8.400558E-10 -1.138199E-05 0.0031655
v 0.0007937726 0.001081153 0.0031655
v 0.001092535 0.0007823911 0.0031655
v 0.001284351 0.0004059294 0.0031655
v 0.002700893 -1.138199E-05 0.0031655
v 0.004051339 -1.138199E-05 0.0031655
v 0.001350446 -1.138199E-05 0.0031655
v -0.003853058 -0.001097213 0.0031655
v -0.002185074 -0.001432825 0.0031655
v -0.003277608 -0.002226598 0.0031655
v -0.002568707 -0.000679901 0.0031655
v -0.001587549 -0.00203035 0.0031655
v -0.002381322 -0.003122885 0.0031655
v -0.0008346249 -0.002413984 0.0031655
v -0.001251936 -0.003698335 0.0031655
v -1.805971E-09 -0.002546173 0.0031655
v -1.805971E-09 -0.003896621 0.0031655
v 0.0008346207 -0.002413983 0.0031655
v 0.001251933 -0.003698335 0.0031655
v 0.001587544 -0.002030349 0.0031655
v 0.002381317 -0.003122884 0.0031655
v 0.002185068 -0.001432825 0.0031655
v 0.003277604 -0.002226598 0.0031655
v 0.002568702 -0.0006799007 0.0031655
v 0.003853054 -0.001097212 0.0031655
v 0.002700893 0.0001547218 0.0031655
v 0.004051341 0.0001547218 0.0031655
v -0.0004173133 -0.00112963 0.0031655
v -1.805971E-09 -0.001195726 0.0031655
v 0.0004173097 -0.00112963 0.0031655
v 0.0007937714 -0.0009378134 0.0031655
v 0.001092533 -0.0006390513 0.0031655
v 0.001284351 -0.0002625895 0.0031655
v 0.001350446 0.0001547218 0.0031655
v -1.805971E-09 0.0001547218 0.0031655
v -0.0007937751 -0.0009378135 0.0031655
v -0.001092537 -0.0006390513 0.0031655
v -0.001284354 -0.0002625895 0.0031655
v -0.002700895 0.0001547218 0.0031655
v -0.004051341 0.0001547218 0.0031655
v -0.001350449 0.0001547218 0.0031655
v -0.004694867 -0.004694867 0.0042737
v 0.004694867 0.004694867 0.0042737
v 0.004694867 -0.004694867 0.0042737
v -0.004694867 0.004694867 0.0042737
v -0.001959214 -0.001959214 0.002164243
v 0.001959214 0.001959214 0.002164243
v 0.001959214 -0.001959214 0.002164243
v -0.001959214 0.001959214 0.002164243
vt 0.0124625 0.01172815
vt 0.2607324 0.259998
vt 0.2607324 0.01172815
vt 0.0124625 0.259998
vt 0.6388246 0.6883902
vt 0.5359477 0.7090899
vt 0.6033323 0.7580479
vt 0.5596093 0.6626517
vt 0.4990941 0.7459438
vt 0.5480518 0.8133281
vt 0.4526557 0.7696051
vt 0.4783943 0.8488206
vt 0.4011784 0.7777584
vt 0.4011784 0.8610504
vt 0.349701 0.7696051
vt 0.3239625 0.8488206
vt 0.3032628 0.7459437
vt 0.254305 0.8133281
vt 0.2664091 0.7090899
vt 0.1990245 0.7580477
vt 0.2427477 0.6626517
vt 0.1635323 0.6883902
vt 0.2345944 0.6111743
vt 0.1513025 0.6111743
vt 0.2427477 0.559697
vt 0.1635323 0.5339585
vt 0.2664092 0.5132588
vt 0.1990245 0.464301
vt 0.3032628 0.4764051
vt 0.2543051 0.4090205
vt 0.349701 0.4527436
vt 0.3239625 0.3735282
vt 0.4011784 0.4445904
vt 0.4011784 0.3612984
vt 0.4526557 0.4527436
vt 0.4783943 0.3735283
vt 0.499094 0.4764051
vt 0.5480517 0.4090205
vt 0.5359476 0.5132588
vt 0.6033322 0.464301
vt 0.5596092 0.5596972
vt 0.6388245 0.5339585
vt 0.5677624 0.6111743
vt 0.6510543 0.6111743
vt 0.4011784 0.5278825
vt 0.426917 0.5319591
vt 0.4501362 0.5437897
vt 0.468563 0.5622165
vt 0.4803938 0.5854357
vt 0.4844703 0.6111743
vt 0.4803938 0.6369129
vt 0.4685631 0.6601322
vt 0.4501362 0.6785589
vt 0.426917 0.6903897
vt 0.4011784 0.6944662
vt 0.3754397 0.6903897
vt 0.3522206 0.6785589
vt 0.3337938 0.6601322
vt 0.321963 0.6369129
vt 0.3178864 0.6111743
vt 0.321963 0.5854357
vt 0.3337938 0.5622165
vt 0.3522207 0.5437897
vt 0.3754397 0.5319591
vt 0.4011784 0.6111743
vt 0.7572669 0.7268745
vt 0.6102583 0.7630798
vt 0.7040854 0.831249
vt 0.6469665 0.6910357
vt 0.5530838 0.8202542
vt 0.6212532 0.9140813
vt 0.4810399 0.8569623
vt 0.5168786 0.9672627
vt 0.4011784 0.8696111
vt 0.4011784 0.9855878
vt 0.321317 0.8569623
vt 0.2854783 0.9672627
vt 0.2492731 0.8202542
vt 0.1811037 0.9140813
vt 0.1920987 0.7630798
vt 0.09827156 0.831249
vt 0.1553905 0.6910357
vt 0.04509009 0.7268745
vt 0.1427416 0.6111743
vt 0.026765 0.6111743
vt 0.1553905 0.5313129
vt 0.04509009 0.4954742
vt 0.1920987 0.4592691
vt 0.09827162 0.3910997
vt 0.2492731 0.4020946
vt 0.1811038 0.3082675
vt 0.321317 0.3653863
vt 0.2854783 0.255086
vt 0.4011784 0.3527375
vt 0.4011784 0.236761
vt 0.4810397 0.3653864
vt 0.5168785 0.2550861
vt 0.5530838 0.4020947
vt 0.6212531 0.3082677
vt 0.6102582 0.4592691
vt 0.7040852 0.3910998
vt 0.6469664 0.5313129
vt 0.7572666 0.4954742
vt 0.6596152 0.6111743
vt 0.7755917 0.6111743
vt 0.9767681 0.9029208
vt 0.9254525 0.913246
vt 0.9590644 0.9376664
vt 0.937255 0.8900821
vt 0.9070698 0.9316287
vt 0.9314901 0.9652407
vt 0.883906 0.9434313
vt 0.8967446 0.9829444
vt 0.8582286 0.9474981
vt 0.8582286 0.9890447
vt 0.8325514 0.9434313
vt 0.8197128 0.9829444
vt 0.8093877 0.9316287
vt 0.7849671 0.9652407
vt 0.7910048 0.913246
vt 0.7573929 0.9376664
vt 0.7792023 0.8900821
vt 0.7396891 0.9029208
vt 0.7751355 0.8644049
vt 0.7335889 0.8644049
vt 0.8710674 0.9039181
vt 0.8582286 0.9059515
vt 0.84539 0.9039181
vt 0.8338082 0.8980167
vt 0.8246167 0.8888255
vt 0.8187154 0.8772435
vt 0.816682 0.8644049
vt 0.8582286 0.8644049
vt 0.8826492 0.8980167
vt 0.8918406 0.8888255
vt 0.8977419 0.8772435
vt 0.9413218 0.8644049
vt 0.9828685 0.8644049
vt 0.8997753 0.8644049
vt 0.739689 0.8073601
vt 0.7910048 0.7970349
vt 0.7573929 0.7726145
vt 0.7792023 0.8201987
vt 0.8093877 0.7786521
vt 0.7849671 0.7450402
vt 0.8325514 0.7668496
vt 0.8197128 0.7273363
vt 0.8582286 0.7627827
vt 0.8582286 0.7212361
vt 0.883906 0.7668496
vt 0.8967446 0.7273363
vt 0.9070694 0.7786521
vt 0.9314901 0.7450402
vt 0.9254525 0.797035
vt 0.9590644 0.7726145
vt 0.937255 0.8201987
vt 0.9767681 0.8073601
vt 0.9413218 0.8458759
vt 0.9828685 0.8458759
vt 0.84539 0.8063627
vt 0.8582286 0.8043293
vt 0.8710674 0.8063627
vt 0.8826489 0.812264
vt 0.8918406 0.8214554
vt 0.8977419 0.8330373
vt 0.8997753 0.8458759
vt 0.8582286 0.8458759
vt 0.8338081 0.812264
vt 0.8246167 0.8214554
vt 0.8187154 0.8330373
vt 0.7751355 0.8458759
vt 0.7335889 0.8458759
vt 0.816682 0.8458759
vt 0.6689335 0.02350393
vt 0.9734078 0.3279784
vt 0.9734078 0.02350393
vt 0.6689335 0.3279784
vt 0.8611017 0.3700813
vt 0.9727063 0.4816858
vt 0.9727063 0.3700813
vt 0.8611017 0.4816858
vn 0 0 1
vn 0 0 1
vn 0 0 1
vn 0 0 1
vn 0 0 1
vn 0 0 1
vn 0 0 1
vn 0 0 1
vn 0 0 1
vn 0 0 1
vn 0 0 1
vn 0 0 1
vn 0 0 1
vn 0 0 1
vn 0 0 1
vn 0 0 1
vn 0 0 1
vn 0 0 1
vn 0 0 1
vn 0 0 1
vn 0 0 1
vn 0 0 1
vn 0 0 1
vn 0 0 1
vn 0 0 1
vn 0 0 1
vn 0 0 1
vn 0 0 1
vn 0 0 1
vn 0 0 1
vn 0 0 1
vn 0 0 1
vn 0 0 1
vn 0 0 1
vn 0 0 1
vn 0 0 1
vn 0 0 1
vn 0 0 1
vn 0 0 1
vn 0 0 1
vn 0 0 1
vn 0 0 1
vn 0 0 1
vn 0 0 1
vn 0 0 1
vn 0 0 1
vn 0 0 1
vn 0 0 1
vn 0 0 1
vn 0 0 1
vn 0 0 1
vn 0 0 1
vn 0 0 1
vn 0 0 1
vn 0 0 1
vn 0 0 1
vn 0 0 1
vn 0 0 1
vn 0 0 1
vn 0 0 1
vn 0 0 1
vn 0 0 1
vn 0 0 1
vn 0 0 1
vn 0 0 1
vn 0 0 1
vn 0 0 1
vn 0 0 1
vn 0 0 1
vn 0 0 1
vn 0 0 1
vn 0 0 1
vn 0 0 1
vn 0 0 1
vn 0 0 1
vn 0 0 1
vn 0 0 1
vn 0 0 1
vn 0 0 1
vn 0 0 1
vn 0 0 1
vn 0 0 1
vn 0 0 1
vn 0 0 1
vn 0 0 1
vn 0 0 1
vn 0 0 1
vn 0 0 1
vn 0 0 1
vn 0 0 1
vn 0 0 1
vn 0 0 1
vn 0 0 1
vn 0 0 1
vn 0 0 1
vn 0 0 1
vn 0 0 1
vn 0 0 1
vn 0 0 1
vn 0 0 1
vn 0 0 1
vn 0 0 1
vn 0 0 1
vn 0 0 1
vn 0 0 1
vn -0.002992471 -0.001798601 0.9999939
vn -0.002098359 -0.002182819 0.9999954
vn -0.002153138 -0.001895686 0.9999959
vn -0.002674642 -0.002070683 0.9999943
vn -0.001509184 -0.002503033 0.9999957
vn -0.001485106 -0.002297631 0.9999962
vn -0.0007728856 -0.00288236 0.9999955
vn -0.0007521526 -0.002630138 0.9999962
vn 7.415264E-07 -0.0030008 0.9999955
vn 1.041371E-06 -0.002730641 0.9999962
vn 0.00077552 -0.002882764 0.9999955
vn 0.0007545242 -0.002630713 0.9999962
vn 0.001510465 -0.002505677 0.9999957
vn 0.001486536 -0.002300424 0.9999962
vn 0.002061396 -0.002424457 0.9999949
vn 0.002218248 -0.002156582 0.9999952
vn 0.002695945 -0.002087668 0.9999942
vn 0.003173866 -0.001794657 0.9999933
vn 0.003267484 -0.001604168 0.9999934
vn 0.003598552 -0.001511664 0.9999924
vn -0.0007419405 -0.003249286 0.9999945
vn 0 -0.003397911 0.9999942
vn 0.0007439664 -0.003249215 0.9999945
vn 0.001438584 -0.002784919 0.9999951
vn 0.001722835 -0.002794347 0.9999946
vn 0.00170348 -0.002690587 0.9999949
vn 0.001822728 -0.001857953 0.9999966
vn 2.493263E-07 -0.001923732 0.9999982
vn -0.001436256 -0.002783691 0.9999951
vn -0.001830504 -0.002642918 0.9999948
vn -0.001986491 -0.002681418 0.9999945
vn -0.003195431 -0.002043063 0.9999928
vn -0.003416226 -0.001843084 0.9999925
vn -0.00205389 -0.002579723 0.9999946
vn 0 0 1
vn 0 0 1
vn 0 0 1
vn 0 0 1
vn 0 0 1
vn 0 0 1
vn 0 0 1
vn 0 0 1
vn 0 0 1
vn 0 0 1
vn 0 0 1
vn 0 0 1
vn 0 0 1
vn 0 0 1
vn 0 0 1
vn 0 0 1
vn 0 0 1
vn -2.292417E-07 0 1
vn -2.786676E-07 0 1
vn -3.802328E-07 0 1
vn 0 0 1
vn 0 0 1
vn 0 0 1
vn 0 0 1
vn 0 0 1
vn 1.710824E-07 0 1
vn 1.167797E-07 0 1
vn 1.82216E-07 0 1
vn -1.608125E-07 0 1
vn 0 0 1
vn 0 0 1
vn 0 0 1
vn 0 0 1
vn 2.470657E-07 0 1
vn 0 0 1
vn 0 0 1
vn 0 0 1
vn 0 0 1
vn 0 0 1
vn 0 0 1
vn 0 0 1
vn 0 0 1
g geo_0
f 3/3/3 2/2/2 1/1/1
f 2/2/2 4/4/4 1/1/1
f 7/7/7 6/6/6 5/5/5
f 6/6/6 8/8/8 5/5/5
f 9/9/9 6/6/6 7/7/7
f 10/10/10 9/9/9 7/7/7
f 11/11/11 9/9/9 10/10/10
f 12/12/12 11/11/11 10/10/10
f 13/13/13 11/11/11 12/12/12
f 14/14/14 13/13/13 12/12/12
f 15/15/15 13/13/13 14/14/14
f 16/16/16 15/15/15 14/14/14
f 17/17/17 15/15/15 16/16/16
f 18/18/18 17/17/17 16/16/16
f 19/19/19 17/17/17 18/18/18
f 20/20/20 19/19/19 18/18/18
f 21/21/21 19/19/19 20/20/20
f 22/22/22 21/21/21 20/20/20
f 23/23/23 21/21/21 22/22/22
f 24/24/24 23/23/23 22/22/22
f 25/25/25 23/23/23 24/24/24
f 26/26/26 25/25/25 24/24/24
f 27/27/27 25/25/25 26/26/26
f 28/28/28 27/27/27 26/26/26
f 29/29/29 27/27/27 28/28/28
f 30/30/30 29/29/29 28/28/28
f 31/31/31 29/29/29 30/30/30
f 32/32/32 31/31/31 30/30/30
f 33/33/33 31/31/31 32/32/32
f 34/34/34 33/33/33 32/32/32
f 35/35/35 33/33/33 34/34/34
f 36/36/36 35/35/35 34/34/34
f 37/37/37 35/35/35 36/36/36
f 38/38/38 37/37/37 36/36/36
f 39/39/39 37/37/37 38/38/38
f 40/40/40 39/39/39 38/38/38
f 41/41/41 39/39/39 40/40/40
f 42/42/42 41/41/41 40/40/40
f 43/43/43 41/41/41 42/42/42
f 44/44/44 43/43/43 42/42/42
f 8/8/8 43/43/43 44/44/44
f 5/5/5 8/8/8 44/44/44
f 33/33/33 45/45/45 31/31/31
f 35/35/35 46/46/46 33/33/33
f 46/46/46 45/45/45 33/33/33
f 37/37/37 47/47/47 35/35/35
f 47/47/47 46/46/46 35/35/35
f 39/39/39 48/48/48 37/37/37
f 48/48/48 47/47/47 37/37/37
f 41/41/41 49/49/49 39/39/39
f 49/49/49 48/48/48 39/39/39
f 43/43/43 50/50/50 41/41/41
f 50/50/50 49/49/49 41/41/41
f 8/8/8 51/51/51 43/43/43
f 51/51/51 50/50/50 43/43/43
f 52/52/52 51/51/51 8/8/8
f 6/6/6 52/52/52 8/8/8
f 53/53/53 52/52/52 6/6/6
f 9/9/9 53/53/53 6/6/6
f 54/54/54 53/53/53 9/9/9
f 11/11/11 54/54/54 9/9/9
f 55/55/55 54/54/54 11/11/11
f 13/13/13 55/55/55 11/11/11
f 56/56/56 55/55/55 13/13/13
f 15/15/15 56/56/56 13/13/13
f 57/57/57 56/56/56 15/15/15
f 17/17/17 57/57/57 15/15/15
f 58/58/58 57/57/57 17/17/17
f 19/19/19 58/58/58 17/17/17
f 59/59/59 58/58/58 19/19/19
f 21/21/21 59/59/59 19/19/19
f 60/60/60 59/59/59 21/21/21
f 23/23/23 60/60/60 21/21/21
f 61/61/61 60/60/60 23/23/23
f 25/25/25 61/61/61 23/23/23
f 62/62/62 61/61/61 25/25/25
f 27/27/27 62/62/62 25/25/25
f 63/63/63 62/62/62 27/27/27
f 29/29/29 63/63/63 27/27/27
f 64/64/64 63/63/63 29/29/29
f 31/31/31 64/64/64 29/29/29
f 45/45/45 64/64/64 31/31/31
f 59/59/59 65/65/65 58/58/58
f 60/60/60 65/65/65 59/59/59
f 61/61/61 65/65/65 60/60/60
f 62/62/62 65/65/65 61/61/61
f 63/63/63 65/65/65 62/62/62
f 64/64/64 65/65/65 63/63/63
f 45/45/45 65/65/65 64/64/64
f 58/58/58 65/65/65 57/57/57
f 57/57/57 65/65/65 56/56/56
f 56/56/56 65/65/65 55/55/55
f 55/55/55 65/65/65 54/54/54
f 54/54/54 65/65/65 53/53/53
f 53/53/53 65/65/65 52/52/52
f 52/52/52 65/65/65 51/51/51
f 46/46/46 65/65/65 45/45/45
f 47/47/47 65/65/65 46/46/46
f 48/48/48 65/65/65 47/47/47
f 49/49/49 65/65/65 48/48/48
f 50/50/50 65/65/65 49/49/49
f 51/51/51 65/65/65 50/50/50
f 68/68/68 67/67/67 66/66/66
f 67/67/67 69/69/69 66/66/66
f 70/70/70 67/67/67 68/68/68
f 71/71/71 70/70/70 68/68/68
f 72/72/72 70/70/70 71/71/71
f 73/73/73 72/72/72 71/71/71
f 74/74/74 72/72/72 73/73/73
f 75/75/75 74/74/74 73/73/73
f 76/76/76 74/74/74 75/75/75
f 77/77/77 76/76/76 75/75/75
f 78/78/78 76/76/76 77/77/77
f 79/79/79 78/78/78 77/77/77
f 80/80/80 78/78/78 79/79/79
f 81/81/81 80/80/80 79/79/79
f 82/82/82 80/80/80 81/81/81
f 83/83/83 82/82/82 81/81/81
f 84/84/84 82/82/82 83/83/83
f 85/85/85 84/84/84 83/83/83
f 86/86/86 84/84/84 85/85/85
f 87/87/87 86/86/86 85/85/85
f 88/88/88 86/86/86 87/87/87
f 89/89/89 88/88/88 87/87/87
f 90/90/90 88/88/88 89/89/89
f 91/91/91 90/90/90 89/89/89
f 92/92/92 90/90/90 91/91/91
f 93/93/93 92/92/92 91/91/91
f 94/94/94 92/92/92 93/93/93
f 95/95/95 94/94/94 93/93/93
f 96/96/96 94/94/94 95/95/95
f 97/97/97 96/96/96 95/95/95
f 98/98/98 96/96/96 97/97/97
f 99/99/99 98/98/98 97/97/97
f 100/100/100 98/98/98 99/99/99
f 101/101/101 100/100/100 99/99/99
f 102/102/102 100/100/100 101/101/101
f 103/103/103 102/102/102 101/101/101
f 104/104/104 102/102/102 103/103/103
f 105/105/105 104/104/104 103/103/103
f 69/69/69 104/104/104 105/105/105
f 66/66/66 69/69/69 105/105/105
f 108/108/108 107/107/107 106/106/106
f 107/107/107 109/109/109 106/106/106
f 110/110/110 107/107/107 108/108/108
f 111/111/111 110/110/110 108/108/108
f 112/112/112 110/110/110 111/111/111
f 113/113/113 112/112/112 111/111/111
f 114/114/114 112/112/112 113/113/113
f 115/115/115 114/114/114 113/113/113
f 116/116/116 114/114/114 115/115/115
f 117/117/117 116/116/116 115/115/115
f 118/118/118 116/116/116 117/117/117
f 119/119/119 118/118/118 117/117/117
f 120/120/120 118/118/118 119/119/119
f 121/121/121 120/120/120 119/119/119
f 122/122/122 120/120/120 121/121/121
f 123/123/123 122/122/122 121/121/121
f 124/124/124 122/122/122 123/123/123
f 125/125/125 124/124/124 123/123/123
f 112/112/112 126/126/126 110/110/110
f 114/114/114 127/127/127 112/112/112
f 127/127/127 126/126/126 112/112/112
f 116/116/116 128/128/128 114/114/114
f 128/128/128 127/127/127 114/114/114
f 118/118/118 129/129/129 116/116/116
f 129/129/129 128/128/128 116/116/116
f 120/120/120 130/130/130 118/118/118
f 130/130/130 129/129/129 118/118/118
f 122/122/122 131/131/131 120/120/120
f 131/131/131 130/130/130 120/120/120
f 124/124/124 132/132/132 122/122/122
f 132/132/132 131/131/131 122/122/122
f 127/127/127 133/133/133 126/126/126
f 128/128/128 133/133/133 127/127/127
f 129/129/129 133/133/133 128/128/128
f 130/130/130 133/133/133 129/129/129
f 131/131/131 133/133/133 130/130/130
f 132/132/132 133/133/133 131/131/131
f 126/126/126 133/133/133 134/134/134
f 126/126/126 134/134/134 110/110/110
f 110/110/110 134/134/134 107/107/107
f 134/134/134 135/135/135 107/107/107
f 134/134/134 133/133/133 135/135/135
f 107/107/107 135/135/135 109/109/109
f 135/135/135 136/136/136 109/109/109
f 135/135/135 133/133/133 136/136/136
f 109/109/109 136/136/136 137/137/137
f 109/109/109 137/137/137 138/138/138
f 106/106/106 109/109/109 138/138/138
f 136/136/136 139/139/139 137/137/137
f 136/136/136 133/133/133 139/139/139
f 142/142/142 141/141/141 140/140/140
f 141/141/141 143/143/143 140/140/140
f 144/144/144 141/141/141 142/142/142
f 145/145/145 144/144/144 142/142/142
f 146/146/146 144/144/144 145/145/145
f 147/147/147 146/146/146 145/145/145
f 148/148/148 146/146/146 147/147/147
f 149/149/149 148/148/148 147/147/147
f 150/150/150 148/148/148 149/149/149
f 151/151/151 150/150/150 149/149/149
f 152/152/152 150/150/150 151/151/151
f 153/153/153 152/152/152 151/151/151
f 154/154/154 152/152/152 153/153/153
f 155/155/155 154/154/154 153/153/153
f 156/156/156 154/154/154 155/155/155
f 157/157/157 156/156/156 155/155/155
f 158/158/158 156/156/156 157/157/157
f 159/159/159 158/158/158 157/157/157
f 146/146/146 160/160/160 144/144/144
f 148/148/148 161/161/161 146/146/146
f 161/161/161 160/160/160 146/146/146
f 150/150/150 162/162/162 148/148/148
f 162/162/162 161/161/161 148/148/148
f 152/152/152 163/163/163 150/150/150
f 163/163/163 162/162/162 150/150/150
f 154/154/154 164/164/164 152/152/152
f 164/164/164 163/163/163 152/152/152
f 156/156/156 165/165/165 154/154/154
f 165/165/165 164/164/164 154/154/154
f 158/158/158 166/166/166 156/156/156
f 166/166/166 165/165/165 156/156/156
f 161/161/161 167/167/167 160/160/160
f 162/162/162 167/167/167 161/161/161
f 163/163/163 167/167/167 162/162/162
f 164/164/164 167/167/167 163/163/163
f 165/165/165 167/167/167 164/164/164
f 166/166/166 167/167/167 165/165/165
f 160/160/160 167/167/167 168/168/168
f 160/160/160 168/168/168 144/144/144
f 144/144/144 168/168/168 141/141/141
f 168/168/168 169/169/169 141/141/141
f 168/168/168 167/167/167 169/169/169
f 141/141/141 169/169/169 143/143/143
f 169/169/169 170/170/170 143/143/143
f 169/169/169 167/167/167 170/170/170
f 143/143/143 170/170/170 171/171/171
f 143/143/143 171/171/171 172/172/172
f 140/140/140 143/143/143 172/172/172
f 170/170/170 173/173/173 171/171/171
f 170/170/170 167/167/167 173/173/173
f 176/176/176 175/175/175 174/174/174
f 175/175/175 177/177/177 174/174/174
f 180/180/180 179/179/179 178/178/178
f 179/179/179 181/181/181 178/178/178
