g geo
v 1.297344 -0.3653332 0.4002059
v 3.725492 3.27527 0.4002059
v 3.725492 -0.3653332 0.4002059
v 1.297344 3.27527 0.4002059
v -0.1286835 -0.3555419 0.8187755
v 2.328583 3.265471 0.8187755
v 2.299387 -0.3750148 0.8187755
v -0.09948703 3.284945 0.8187755
v -2.260524 -0.3711576 0.8187755
v 0.1494367 3.281511 0.8187755
v 0.1675943 -0.3590472 0.8187755
v -2.278681 3.269401 0.8187755
v -3.692947 -0.3653332 0.4002059
v -1.264799 3.27527 0.4002059
v -1.264799 -0.3653332 0.4002059
v -3.692947 3.27527 0.4002059
v 1.934615 0.5863793 0
v 4.185697 3.960478 0
v 4.185697 0.5863793 0
v 1.934615 3.960478 0
v 4.185697 4.182495 0
v 1.934615 4.182495 0
v 4.185697 5.559135 0
v 1.934615 5.559135 0
v 4.185697 5.692083 0
v 1.934615 5.692083 0
v 4.185697 8.957773 0
v 1.934615 8.957773 0
v 1.373278 5.692083 0
v 1.373278 8.957773 0
v 1.373278 5.559135 7.492317E-16
v 1.373278 4.182495 7.492317E-16
v 1.373278 3.960478 0
v 1.373278 0.5863793 0
v -1.396622 5.692083 0
v -1.396623 8.957773 0
v -1.892756 5.692083 0
v -1.892756 8.957773 0
v -4.185697 5.692083 0
v -4.185697 8.957773 0
v -4.185697 5.559135 0
v -1.892756 5.559135 0
v -4.185697 4.182495 0
v -1.892756 4.182495 0
v -4.185697 3.960478 0
v -1.892756 3.960478 0
v -4.185697 0.5863793 0
v -1.892756 0.5863793 0
v -1.396622 5.559135 7.492317E-16
v -1.396622 4.182495 7.492317E-16
v -1.396622 3.960478 0
v -1.396623 0.5863793 0
v 1.112597 6.611335 -1.031864
v -1.050522 10.56659 -1.031864
v 1.112597 10.56659 -1.031864
v -1.050521 6.616128 -1.031864
v -1.284079 4.550005 -0.6943523
v 1.284079 5.661249 -0.6943523
v 1.284079 4.550005 -0.6943523
v -1.284079 5.661249 -0.6943523
v -0.7916666 4.313869 -0.3352381
v 0.7916666 5.897203 -0.3352381
v 0.7916666 4.313869 -0.3352381
v -0.7916666 5.897203 -0.3352381
v 0.06072513 1.972146 -0.1579661
v 0.06072513 6.71211 -3.533021
v 0.06072513 1.972146 -3.533021
v 0.06072513 6.71211 -0.1579661
v -0.06072513 1.972146 -0.1579661
v -0.06072513 6.71211 -3.533021
v -0.06072513 6.71211 -0.1579661
v -0.06072513 1.972146 -3.533021
vt 0.8036404 0.06534754
vt 0.9895852 0.3409044
vt 0.9895852 0.06534754
vt 0.8036404 0.3409044
vt 0.5996402 0.06534754
vt 0.785585 0.3409044
vt 0.785585 0.06534754
vt 0.5996402 0.3409044
vt 0.4000526 0.06534752
vt 0.5859972 0.3409044
vt 0.5859972 0.06534752
vt 0.4000526 0.3409044
vt 0.1986604 0.06534752
vt 0.3846052 0.3409044
vt 0.3846052 0.06534752
vt 0.1986604 0.3409044
vt 0.4716274 0.3720813
vt 0.6395744 0.6238136
vt 0.6395744 0.3720813
vt 0.4716274 0.6238136
vt 0.6395744 0.6403777
vt 0.4716274 0.6403777
vt 0.6395744 0.743085
vt 0.4716274 0.7430849
vt 0.6395744 0.7530039
vt 0.4716274 0.7530039
vt 0.6395744 0.9966482
vt 0.4716274 0.9966482
vt 0.4297475 0.7530039
vt 0.4297475 0.9966482
vt 0.4297475 0.7430849
vt 0.4297475 0.6403777
vt 0.4297475 0.6238136
vt 0.4297475 0.3720813
vt 0.2230928 0.7530038
vt 0.2230927 0.9966481
vt 0.1860776 0.7530039
vt 0.1860776 0.9966481
vt 0.01500753 0.7530039
vt 0.01500753 0.9966482
vt 0.01500753 0.743085
vt 0.1860776 0.7430849
vt 0.01500753 0.6403777
vt 0.1860776 0.6403777
vt 0.01500753 0.6238136
vt 0.1860776 0.6238136
vt 0.01500753 0.3720813
vt 0.1860776 0.3720813
vt 0.2230928 0.7430849
vt 0.2230928 0.6403777
vt 0.2230928 0.6238136
vt 0.2230927 0.3720813
vt 0.1845299 0.03133545
vt 0.01450744 0.359735
vt 0.18453 0.359735
vt 0.01450746 0.03133543
vt 0.885637 0.4804548
vt 0.9217815 0.5165994
vt 0.9217815 0.4804548
vt 0.885637 0.5165994
vt 0.6871704 0.4544684
vt 0.7771205 0.5444186
vt 0.7771205 0.4544684
vt 0.6871704 0.5444186
vt 0.667449 0.5875485
vt 0.9699118 0.9952354
vt 0.9699118 0.5875485
vt 0.667449 0.9952354
vt 0.667449 0.5875485
vt 0.9699118 0.9952354
vt 0.667449 0.9952354
vt 0.9699118 0.5875485
vn 0 0 1
vn 0 0 1
vn 0 0 1
vn 0 0 1
vn 0 0 1
vn 0 0 1
vn 0 0 1
vn 0 0 1
vn 0.0006428544 -0.0006100184 0.9999996
vn 0.0006428544 -0.0006100184 0.9999996
vn 0.0006428544 -0.0006100184 0.9999996
vn 0.0006428544 -0.0006100184 0.9999996
vn 0 0 1
vn 0 0 1
vn 0 0 1
vn 0 0 1
vn 0 0 1
vn 0 0 1
vn 0 0 1
vn 0 0 1
vn 0 0 1
vn 0 0 1
vn 0 0 1
vn 0 0 1
vn 0 0 1
vn 0 0 1
vn 0 0 1
vn 0 0 1
vn 0 0 1
vn 0 0 1
vn 0 0 1
vn 0 0 1
vn 0 0 1
vn 0 0 1
vn 0 0 1
vn 0 0 1
vn 0 0 1
vn 0 0 1
vn 0 0 1
vn 0 0 1
vn 0 0 1
vn 0 0 1
vn 0 0 1
vn 0 0 1
vn 0 0 1
vn 0 0 1
vn 0 0 1
vn 0 0 1
vn 0 0 1
vn 0 0 1
vn 0 0 1
vn 0 0 1
vn 0 0 1
vn 0 0 1
vn 0 0 1
vn 0 0 1
vn 0 0 1
vn 0 0 1
vn 0 0 1
vn 0 0 1
vn 0 0 1
vn 0 0 1
vn 0 0 1
vn 0 0 1
vn -0.01559312 -0.0006931128 0.9998782
vn -0.01559312 -0.0006931128 0.9998782
vn -0.01559312 -0.0006931128 0.9998782
vn -0.01559312 -0.0006931128 0.9998782
vn 0.01559307 0.0006930991 -0.9998782
vn 0.01559307 0.0006930991 -0.9998782
vn 0.01559307 0.0006930991 -0.9998782
vn 0.01559307 0.0006930991 -0.9998782
g geo_0
f 3/3/3 2/2/2 1/1/1
f 2/2/2 4/4/4 1/1/1
f 7/7/7 6/6/6 5/5/5
f 6/6/6 8/8/8 5/5/5
f 11/11/11 10/10/10 9/9/9
f 10/10/10 12/12/12 9/9/9
f 15/15/15 14/14/14 13/13/13
f 14/14/14 16/16/16 13/13/13
f 19/19/19 18/18/18 17/17/17
f 18/18/18 20/20/20 17/17/17
f 18/18/18 21/21/21 20/20/20
f 21/21/21 22/22/22 20/20/20
f 21/21/21 23/23/23 22/22/22
f 23/23/23 24/24/24 22/22/22
f 23/23/23 25/25/25 24/24/24
f 25/25/25 26/26/26 24/24/24
f 25/25/25 27/27/27 26/26/26
f 27/27/27 28/28/28 26/26/26
f 26/26/26 28/28/28 29/29/29
f 28/28/28 30/30/30 29/29/29
f 24/24/24 26/26/26 31/31/31
f 26/26/26 29/29/29 31/31/31
f 22/22/22 24/24/24 32/32/32
f 24/24/24 31/31/31 32/32/32
f 20/20/20 22/22/22 33/33/33
f 22/22/22 32/32/32 33/33/33
f 20/20/20 33/33/33 34/34/34
f 17/17/17 20/20/20 34/34/34
f 29/29/29 30/30/30 35/35/35
f 30/30/30 36/36/36 35/35/35
f 35/35/35 36/36/36 37/37/37
f 36/36/36 38/38/38 37/37/37
f 37/37/37 38/38/38 39/39/39
f 38/38/38 40/40/40 39/39/39
f 37/37/37 39/39/39 41/41/41
f 42/42/42 37/37/37 41/41/41
f 35/35/35 37/37/37 42/42/42
f 42/42/42 41/41/41 43/43/43
f 44/44/44 42/42/42 43/43/43
f 44/44/44 43/43/43 45/45/45
f 46/46/46 44/44/44 45/45/45
f 46/46/46 45/45/45 47/47/47
f 48/48/48 46/46/46 47/47/47
f 49/49/49 35/35/35 42/42/42
f 49/49/49 42/42/42 44/44/44
f 50/50/50 49/49/49 44/44/44
f 50/50/50 44/44/44 46/46/46
f 51/51/51 50/50/50 46/46/46
f 51/51/51 46/46/46 48/48/48
f 52/52/52 51/51/51 48/48/48
f 31/31/31 49/49/49 50/50/50
f 31/31/31 29/29/29 49/49/49
f 29/29/29 35/35/35 49/49/49
f 32/32/32 31/31/31 50/50/50
f 32/32/32 50/50/50 51/51/51
f 33/33/33 32/32/32 51/51/51
f 33/33/33 51/51/51 52/52/52
f 34/34/34 33/33/33 52/52/52
f 55/55/55 54/54/54 53/53/53
f 54/54/54 56/56/56 53/53/53
f 59/59/59 58/58/58 57/57/57
f 58/58/58 60/60/60 57/57/57
f 63/63/63 62/62/62 61/61/61
f 62/62/62 64/64/64 61/61/61
f 67/67/67 66/66/66 65/65/65
f 66/66/66 68/68/68 65/65/65
f 71/71/71 70/70/70 69/69/69
f 70/70/70 72/72/72 69/69/69
