g geo
v 1.784323 -0.006287724 -5.268828E-32
v 1.648607 -1.967878 -5.268828E-32
v 0.9974083 -0.006287724 -5.268828E-32
v 1.784323 -1.967878 -5.268828E-32
v 1.784323 1.583156 -5.268828E-32
v 0.4697531 1.583156 -5.268828E-32
v 0.2337122 1.583156 -5.268828E-32
v 0.4975398 -0.006287724 -5.268828E-32
v 0.823139 -1.967878 -5.268828E-32
v -0.002328726 -0.006287724 -5.268828E-32
v -0.002328726 1.583156 -5.268828E-32
v -0.002328726 -1.967878 -5.268828E-32
v -0.4742593 -0.006287724 -5.268828E-32
v -0.8335299 -1.967878 -5.268828E-32
v -0.1831484 1.583156 -5.268828E-32
v -0.3961151 1.583156 -5.268828E-32
v -0.9639481 -0.006287724 -5.268828E-32
v -1.784323 1.583156 -5.268828E-32
v -1.784323 -0.006287724 -5.268828E-32
v -1.664731 -1.967878 -5.268828E-32
v -1.784323 -1.967878 -5.268828E-32
vt 0.2993138 0.5256512
vt 0.0501311 0.5428913
vt 0.2993138 0.6256137
vt 0.0501311 0.5256512
vt 0.5012223 0.5256512
vt 0.5012223 0.6926423
vt 0.5012223 0.7226268
vt 0.2993138 0.6891125
vt 0.0501311 0.6477513
vt 0.2993138 0.7526113
vt 0.5012223 0.7526113
vt 0.0501311 0.7526113
vt 0.2993137 0.812561
vt 0.05013112 0.8581996
vt 0.5012223 0.775581
vt 0.5012223 0.8026344
vt 0.2993138 0.8747668
vt 0.5012223 0.9789798
vt 0.2993138 0.9789798
vt 0.0501311 0.9637879
vt 0.0501311 0.9789798
vn 0 0 1
vn 0 0 1
vn 0 0 1
vn 0 0 1
vn 0 0 1
vn 0 0 1
vn 0 0 1
vn 0 0 1
vn 0 0 1
vn 0 0 1
vn 0 0 1
vn 0 0 1
vn 0 0 1
vn 0 0 1
vn 0 0 1
vn 0 0 1
vn 0 0 1
vn 0 0 1
vn 0 0 1
vn 0 0 1
vn 0 0 1
g geo_0
f 3/3/3 2/2/2 1/1/1
f 2/2/2 4/4/4 1/1/1
f 3/3/3 1/1/1 5/5/5
f 6/6/6 3/3/3 5/5/5
f 3/3/3 6/6/6 7/7/7
f 8/8/8 3/3/3 7/7/7
f 2/2/2 3/3/3 8/8/8
f 9/9/9 2/2/2 8/8/8
f 8/8/8 7/7/7 10/10/10
f 7/7/7 11/11/11 10/10/10
f 9/9/9 8/8/8 12/12/12
f 8/8/8 10/10/10 12/12/12
f 12/12/12 10/10/10 13/13/13
f 14/14/14 12/12/12 13/13/13
f 13/13/13 10/10/10 15/15/15
f 10/10/10 11/11/11 15/15/15
f 15/15/15 16/16/16 13/13/13
f 16/16/16 17/17/17 13/13/13
f 13/13/13 17/17/17 14/14/14
f 16/16/16 18/18/18 17/17/17
f 18/18/18 19/19/19 17/17/17
f 17/17/17 19/19/19 20/20/20
f 17/17/17 20/20/20 14/14/14
f 19/19/19 21/21/21 20/20/20
