g geo
v 0.9951844 0.09801687 1.192093E-07
v 0 8.940697E-08 1.192093E-07
v 0.980785 0.19509 1.192093E-07
v 0.9569401 0.2902843 1.192093E-07
v 0.9238793 0.3826831 1.192093E-07
v 0.8819211 0.4713964 1.192093E-07
v 0.8314695 0.5555699 1.192093E-07
v 0.7730104 0.634393 1.192093E-07
v 0.7071068 0.7071065 1.192093E-07
v 0.6343933 0.7730101 1.192093E-07
v 0.5555704 0.8314693 1.192093E-07
v 0.4713969 0.8819209 1.192093E-07
v 0.3826836 0.9238793 1.192093E-07
v 0.2902849 0.9569401 1.192093E-07
v 0.1950905 0.980785 1.192093E-07
v 0.09801739 0.9951845 1.192093E-07
v 2.831221E-07 0.9999998 1.192093E-07
v 1 8.940697E-08 1.192093E-07
v 2.831221E-07 0.9999998 1.192093E-07
v 0 8.940697E-08 1.192093E-07
v -0.09801684 0.9951845 1.192093E-07
v -0.19509 0.9807851 1.192093E-07
v -0.2902843 0.9569403 1.192093E-07
v -0.3826831 0.9238795 1.192093E-07
v -0.4713964 0.8819213 1.192093E-07
v -0.5555699 0.8314697 1.192093E-07
v -0.634393 0.7730105 1.192093E-07
v -0.7071065 0.7071068 1.192093E-07
v -0.7730101 0.6343933 1.192093E-07
v -0.8314693 0.5555704 1.192093E-07
v -0.881921 0.4713969 1.192093E-07
v -0.9238793 0.3826836 1.192093E-07
v -0.9569401 0.2902849 1.192093E-07
v -0.980785 0.1950905 1.192093E-07
v -0.9951845 0.09801739 1.192093E-07
v -0.9999998 2.682209E-07 1.192093E-07
v -0.9999998 2.682209E-07 1.192093E-07
v 0 8.940697E-08 1.192093E-07
v -0.9951845 -0.09801686 1.192093E-07
v -0.9807851 -0.19509 1.192093E-07
v -0.9569402 -0.2902844 1.192093E-07
v -0.9238794 -0.3826831 1.192093E-07
v -0.8819212 -0.4713964 1.192093E-07
v -0.8314695 -0.5555699 1.192093E-07
v -0.7730104 -0.634393 1.192093E-07
v -0.7071067 -0.7071065 1.192093E-07
v -0.6343933 -0.7730101 1.192093E-07
v -0.5555702 -0.8314693 1.192093E-07
v -0.4713967 -0.8819211 1.192093E-07
v -0.3826835 -0.9238793 1.192093E-07
v -0.2902847 -0.9569401 1.192093E-07
v -0.1950904 -0.980785 1.192093E-07
v -0.09801719 -0.9951845 1.192093E-07
v -6.705523E-08 -0.9999998 1.192093E-07
v -6.705523E-08 -0.9999998 1.192093E-07
v 0 8.940697E-08 1.192093E-07
v 0.09801706 -0.9951845 1.192093E-07
v 0.1950902 -0.9807851 1.192093E-07
v 0.2902846 -0.9569402 1.192093E-07
v 0.3826833 -0.9238794 1.192093E-07
v 0.4713966 -0.8819212 1.192093E-07
v 0.5555701 -0.8314695 1.192093E-07
v 0.6343932 -0.7730104 1.192093E-07
v 0.7071067 -0.7071067 1.192093E-07
v 0.7730104 -0.6343932 1.192093E-07
v 0.8314695 -0.5555701 1.192093E-07
v 0.8819212 -0.4713967 1.192093E-07
v 0.9238795 -0.3826834 1.192093E-07
v 0.9569403 -0.2902846 1.192093E-07
v 0.9807853 -0.1950902 1.192093E-07
v 0.9951847 -0.09801705 1.192093E-07
v 1 8.940697E-08 1.192093E-07
vt 0.987149 0.1044897
vt 0.008113712 0.008113593
vt 0.9729831 0.1999376
vt 0.9495254 0.2935383
vt 0.9170008 0.3843904
vt 0.8757235 0.4716184
vt 0.8260907 0.5543829
vt 0.7685801 0.6318864
vt 0.7037459 0.7033825
vt 0.6322125 0.7681829
vt 0.5546687 0.8256634
vt 0.4718612 0.8752706
vt 0.3845874 0.9165266
vt 0.2936881 0.9490336
vt 0.2000385 0.9724796
vt 0.1045405 0.9866381
vt 0.00811407 0.9913726
vt 0.9918864 0.008113593
vt 0.00811407 0.9913726
vt 0.008113712 0.008113593
vt 0.1023302 0.9866381
vt 0.1978281 0.9724796
vt 0.2914777 0.9490341
vt 0.3823772 0.9165266
vt 0.4696508 0.8752708
vt 0.5524585 0.8256637
vt 0.6300025 0.7681834
vt 0.7015358 0.703383
vt 0.7663702 0.6318866
vt 0.8238807 0.5543833
vt 0.8735137 0.4716188
vt 0.9147911 0.3843908
vt 0.9473154 0.2935388
vt 0.9707735 0.1999381
vt 0.9849392 0.1044901
vt 0.9896764 0.008113831
vt 0.9896764 0.008113831
vt 0.008113712 0.008113593
vt 0.9849393 0.1050033
vt 0.9707735 0.2004515
vt 0.9473155 0.2940522
vt 0.9147912 0.3849042
vt 0.8735138 0.4721322
vt 0.8238809 0.5548967
vt 0.7663704 0.6324003
vt 0.7015361 0.7038963
vt 0.6300027 0.7686968
vt 0.5524587 0.8261774
vt 0.4696511 0.8757845
vt 0.3823774 0.9170403
vt 0.2914781 0.9495476
vt 0.1978285 0.9729934
vt 0.1023305 0.9871517
vt 0.008113593 0.9918864
vt 0.008113593 0.9918864
vt 0.008113712 0.008113593
vt 0.1045402 0.9871517
vt 0.2000381 0.9729934
vt 0.2936877 0.9495477
vt 0.3845871 0.9170404
vt 0.4718607 0.8757846
vt 0.5546685 0.8261776
vt 0.6322125 0.768697
vt 0.7037459 0.7038966
vt 0.7685801 0.6324005
vt 0.8260907 0.5548969
vt 0.8757238 0.4721325
vt 0.9170012 0.3849044
vt 0.9495254 0.2940524
vt 0.9729836 0.2004517
vt 0.9871492 0.1050035
vt 0.9918864 0.008113593
vn -0.0002116499 -2.263543E-05 1
vn 0 0 1
vn -0.0002081965 -4.622903E-05 1
vn -0.0002037442 -6.487197E-05 1
vn -0.0001979413 -8.078293E-05 1
vn -0.0001894516 -9.847939E-05 1
vn -0.0001779668 -0.000117333 1
vn -0.0001646264 -0.0001352411 1
vn -0.0001495254 -0.0001516769 1
vn -0.0001336073 -0.0001662328 1
vn -0.0001181432 -0.0001776575 1
vn -0.0001004108 -0.0001882714 1
vn -7.506905E-05 -0.0001999283 1
vn -5.185996E-05 -0.000209076 1
vn -3.926416E-05 -0.0002122247 1
vn -2.796959E-05 -0.0002142344 1
vn -1.412243E-05 -0.0002146318 1
vn -0.0002128553 0 1
vn -1.412243E-05 -0.0002146318 1
vn 0 0 1
vn 1.359216E-05 -0.00021291 1
vn 4.027833E-05 -0.00020939 1
vn 5.328997E-05 -0.0002063841 1
vn 7.341363E-05 -0.0001985369 1
vn 9.882991E-05 -0.0001868729 1
vn 0.000118918 -0.0001749351 1
vn 0.0001398132 -0.0001594523 1
vn 0.0001548047 -0.0001465797 1
vn 0.0001651145 -0.0001349206 1
vn 0.000178032 -0.0001174111 1
vn 0.0001892208 -9.88584E-05 1
vn 0.0001976036 -8.105381E-05 1
vn 0.0002041916 -6.223044E-05 1
vn 0.0002093315 -4.132151E-05 1
vn 0.000212433 -2.052867E-05 1
vn 0.0002134429 0 1
vn 0.0002134429 0 1
vn 0 0 1
vn 0.0002126151 1.75631E-05 1
vn 0.0002092698 3.86968E-05 1
vn 0.0002036708 6.152676E-05 1
vn 0.0001948384 8.565999E-05 1
vn 0.0001843633 0.0001085262 1
vn 0.0001761128 0.0001226966 1
vn 0.0001669016 0.0001348902 1
vn 0.0001603094 0.0001426964 1
vn 0.0001438567 0.000156397 1
vn 0.0001194481 0.0001749108 1
vn 9.924423E-05 0.0001871587 1
vn 7.485155E-05 0.0001985671 1
vn 5.490089E-05 0.0002063306 1
vn 4.043871E-05 0.0002097914 1
vn 2.196481E-05 0.0002125335 1
vn 0 0.0002134394 1
vn 0 0.0002134394 1
vn 0 0 1
vn -1.97268E-05 0.0002122725 1
vn -4.167705E-05 0.0002090398 1
vn -6.257037E-05 0.0002037513 1
vn -8.215194E-05 0.0001967505 1
vn -0.0001005452 0.000187962 1
vn -0.0001183974 0.0001771785 1
vn -0.0001356339 0.0001642957 1
vn -0.0001515984 0.0001499236 1
vn -0.0001650302 0.0001351498 1
vn -0.0001784446 0.0001170152 1
vn -0.0001903598 9.745107E-05 1
vn -0.0001986863 8.019637E-05 1
vn -0.0002048506 6.284427E-05 1
vn -0.0002089306 4.727677E-05 1
vn -0.000211518 2.707013E-05 1
vn -0.0002128553 0 1
g geo_0
f 3/3/3 2/2/2 1/1/1
f 4/4/4 2/2/2 3/3/3
f 5/5/5 2/2/2 4/4/4
f 6/6/6 2/2/2 5/5/5
f 7/7/7 2/2/2 6/6/6
f 8/8/8 2/2/2 7/7/7
f 9/9/9 2/2/2 8/8/8
f 10/10/10 2/2/2 9/9/9
f 11/11/11 2/2/2 10/10/10
f 12/12/12 2/2/2 11/11/11
f 13/13/13 2/2/2 12/12/12
f 14/14/14 2/2/2 13/13/13
f 15/15/15 2/2/2 14/14/14
f 16/16/16 2/2/2 15/15/15
f 17/17/17 2/2/2 16/16/16
f 1/1/1 2/2/2 18/18/18
f 21/21/21 20/20/20 19/19/19
f 22/22/22 20/20/20 21/21/21
f 23/23/23 20/20/20 22/22/22
f 24/24/24 20/20/20 23/23/23
f 25/25/25 20/20/20 24/24/24
f 26/26/26 20/20/20 25/25/25
f 27/27/27 20/20/20 26/26/26
f 28/28/28 20/20/20 27/27/27
f 29/29/29 20/20/20 28/28/28
f 30/30/30 20/20/20 29/29/29
f 31/31/31 20/20/20 30/30/30
f 32/32/32 20/20/20 31/31/31
f 33/33/33 20/20/20 32/32/32
f 34/34/34 20/20/20 33/33/33
f 35/35/35 20/20/20 34/34/34
f 36/36/36 20/20/20 35/35/35
f 39/39/39 38/38/38 37/37/37
f 40/40/40 38/38/38 39/39/39
f 41/41/41 38/38/38 40/40/40
f 42/42/42 38/38/38 41/41/41
f 43/43/43 38/38/38 42/42/42
f 44/44/44 38/38/38 43/43/43
f 45/45/45 38/38/38 44/44/44
f 46/46/46 38/38/38 45/45/45
f 47/47/47 38/38/38 46/46/46
f 48/48/48 38/38/38 47/47/47
f 49/49/49 38/38/38 48/48/48
f 50/50/50 38/38/38 49/49/49
f 51/51/51 38/38/38 50/50/50
f 52/52/52 38/38/38 51/51/51
f 53/53/53 38/38/38 52/52/52
f 54/54/54 38/38/38 53/53/53
f 57/57/57 56/56/56 55/55/55
f 58/58/58 56/56/56 57/57/57
f 59/59/59 56/56/56 58/58/58
f 60/60/60 56/56/56 59/59/59
f 61/61/61 56/56/56 60/60/60
f 62/62/62 56/56/56 61/61/61
f 63/63/63 56/56/56 62/62/62
f 64/64/64 56/56/56 63/63/63
f 65/65/65 56/56/56 64/64/64
f 66/66/66 56/56/56 65/65/65
f 67/67/67 56/56/56 66/66/66
f 68/68/68 56/56/56 67/67/67
f 69/69/69 56/56/56 68/68/68
f 70/70/70 56/56/56 69/69/69
f 71/71/71 56/56/56 70/70/70
f 72/72/72 56/56/56 71/71/71
