g geoArm
v -0.1946021 -3.794215E-17 0.1708763
v 0.1946022 3.640229E-17 -0.1639413
v 0.1946022 -3.794215E-17 0.1708763
v -0.1946021 3.640229E-17 -0.1639413
v 0.1946022 9.170987E-17 -0.4130245
v -0.1946021 9.170987E-17 -0.4130245
v 0.1946022 1.59052E-16 -0.7163067
v -0.1946021 1.59052E-16 -0.7163067
vt 0.8386641 0.4829502
vt 0.9136388 0.5474482
vt 0.9136388 0.4829502
vt 0.8386641 0.5474482
vt 0.9136388 0.5954306
vt 0.8386641 0.5954306
vt 0.9136388 0.6538537
vt 0.8386641 0.6538537
vn 0 1 0
vn 0 1 0
vn 0 1 0
vn 0 1 0
vn 0 1 0
vn 0 1 0
vn 0 1 0
vn 0 1 0
g geoArm_0
f 3/3/3 2/2/2 1/1/1
f 2/2/2 4/4/4 1/1/1
f 2/2/2 5/5/5 4/4/4
f 5/5/5 6/6/6 4/4/4
f 5/5/5 7/7/7 6/6/6
f 7/7/7 8/8/8 6/6/6
