g geoRadials
v -0.2978579 -0.004 9.545257E-18
v -0.5021421 0.004 -9.545257E-18
v -0.2978579 0.004 9.545257E-18
v -0.5021421 -0.004 -9.545257E-18
v 0.5021421 -0.004 9.545257E-18
v 0.2978579 0.004 -9.545257E-18
v 0.5021421 0.004 9.545257E-18
v 0.2978579 -0.004 -9.545257E-18
v -0.004 -0.5021421 3.266946E-17
v 0.004 -0.2978579 -3.266946E-17
v 0.004 -0.5021421 3.178128E-17
v -0.004 -0.2978579 -3.178128E-17
v -0.004 0.2978579 3.266946E-17
v 0.004 0.5021421 -3.266946E-17
v 0.004 0.2978579 3.178128E-17
v -0.004 0.5021421 -3.178128E-17
v -0.2134458 0.2077889 2.110736E-17
v -0.3522397 0.3578966 -2.110736E-17
v -0.2077889 0.2134458 2.066327E-17
v -0.3578966 0.3522397 -2.066327E-17
v 0.3522397 -0.3578966 2.110736E-17
v 0.2134458 -0.2077889 -2.110736E-17
v 0.3578966 -0.3522397 2.066327E-17
v 0.2077889 -0.2134458 -2.066327E-17
v -0.3578966 -0.3522397 4.334338E-17
v -0.2077889 -0.2134458 -4.334338E-17
v -0.3522397 -0.3578966 4.378747E-17
v -0.2134458 -0.2077889 -4.378747E-17
v 0.2077889 0.2134458 4.334338E-17
v 0.3578966 0.3522397 -4.334338E-17
v 0.2134458 0.2077889 4.378747E-17
v 0.3522397 0.3578966 -4.378747E-17
v -0.2767155 0.1102897 9.434235E-18
v -0.4623881 0.195857 -9.434235E-18
v -0.273654 0.1176808 9.65628E-18
v -0.4654496 0.188466 -9.65628E-18
v 0.4623881 -0.195857 9.434235E-18
v 0.2767155 -0.1102897 -9.434235E-18
v 0.4654496 -0.188466 9.65628E-18
v 0.273654 -0.1176808 -9.65628E-18
v -0.195857 -0.4623881 2.088531E-17
v -0.1102897 -0.2767155 -2.088531E-17
v -0.188466 -0.4654496 2.088531E-17
v -0.1176808 -0.273654 -2.088531E-17
v 0.1102897 0.2767155 2.088531E-17
v 0.195857 0.4623881 -2.088531E-17
v 0.1176808 0.273654 2.088531E-17
v 0.188466 0.4654496 -2.088531E-17
v -0.1176808 0.273654 9.545257E-18
v -0.188466 0.4654496 -9.545257E-18
v -0.1102897 0.2767155 9.545257E-18
v -0.195857 0.4623881 -9.545257E-18
v 0.188466 -0.4654496 9.545257E-18
v 0.1176808 -0.273654 -9.545257E-18
v 0.195857 -0.4623881 9.545257E-18
v 0.1102897 -0.2767155 -9.545257E-18
v -0.4654496 -0.188466 3.211435E-17
v -0.273654 -0.1176808 -3.211435E-17
v -0.4623881 -0.195857 3.233639E-17
v -0.2767155 -0.1102897 -3.233639E-17
v 0.273654 0.1176808 3.211435E-17
v 0.4654496 0.188466 -3.211435E-17
v 0.2767155 0.1102897 3.233639E-17
v 0.4623881 0.195857 -3.233639E-17
v -0.2931486 0.05290745 9.545257E-18
v -0.4921531 0.09973975 -9.545257E-18
v -0.2916221 0.06076046 9.545257E-18
v -0.4936796 0.09188673 -9.545257E-18
v 0.4921531 -0.09973975 9.545257E-18
v 0.2931486 -0.05290745 -9.545257E-18
v 0.4936796 -0.09188673 9.545257E-18
v 0.2916221 -0.06076046 -9.545257E-18
v -0.09973975 -0.4921531 3.266946E-17
v -0.05290745 -0.2931486 -3.266946E-17
v -0.09188673 -0.4936796 3.178128E-17
v -0.06076046 -0.2916221 -3.178128E-17
v 0.05290745 0.2931486 3.266946E-17
v 0.09973975 0.4921531 -3.266946E-17
v 0.06076046 0.2916221 3.178128E-17
v 0.09188673 0.4936796 -3.178128E-17
v -0.1698762 0.2446986 2.110736E-17
v -0.2774782 0.4185315 -2.110736E-17
v -0.1632438 0.2491722 2.066327E-17
v -0.2841105 0.4140579 -2.066327E-17
v 0.2774782 -0.4185315 2.110736E-17
v 0.1698762 -0.2446986 -2.110736E-17
v 0.2841105 -0.4140579 2.066327E-17
v 0.1632438 -0.2491722 -2.066327E-17
v -0.4185315 -0.2774782 4.334338E-17
v -0.2446986 -0.1698762 -4.334338E-17
v -0.4140579 -0.2841105 4.378747E-17
v -0.2491722 -0.1632438 -4.378747E-17
v 0.2446986 0.1698762 4.334338E-17
v 0.4185315 0.2774782 -4.334338E-17
v 0.2491722 0.1632438 4.378747E-17
v 0.4140579 0.2841105 -4.378747E-17
v -0.2505872 0.1610632 9.434235E-18
v -0.4165214 0.2804863 -9.434235E-18
v -0.2461717 0.1677343 9.65628E-18
v -0.4209369 0.2738153 -9.65628E-18
v 0.4165214 -0.2804863 9.434235E-18
v 0.2505872 -0.1610632 -9.434235E-18
v 0.4209369 -0.2738153 9.65628E-18
v 0.2461717 -0.1677343 -9.65628E-18
v -0.2804863 -0.4165214 2.088531E-17
v -0.1610632 -0.2505872 -2.088531E-17
v -0.2738153 -0.4209369 2.088531E-17
v -0.1677343 -0.2461717 -2.088531E-17
v 0.1610632 0.2505872 2.088531E-17
v 0.2804863 0.4165214 -2.088531E-17
v 0.1677343 0.2461717 2.088531E-17
v 0.2738153 0.4209369 -2.088531E-17
v -0.06330299 0.2910808 9.545257E-18
v -0.09619133 0.4928589 -9.545257E-18
v -0.0554636 0.2926758 9.545257E-18
v -0.1040307 0.491264 -9.545257E-18
v 0.09619133 -0.4928589 9.545257E-18
v 0.06330299 -0.2910808 -9.545257E-18
v 0.1040307 -0.491264 9.545257E-18
v 0.0554636 -0.2926758 -9.545257E-18
v -0.4928589 -0.09619133 3.211435E-17
v -0.2910808 -0.06330299 -3.211435E-17
v -0.491264 -0.1040307 3.233639E-17
v -0.2926758 -0.0554636 -3.233639E-17
v 0.2910808 0.06330299 3.211435E-17
v 0.4928589 0.09619133 -3.211435E-17
v 0.2926758 0.0554636 3.233639E-17
v 0.491264 0.1040307 -3.233639E-17
vt 0 0
vt 1 1
vt 1 0
vt 0 1
vt 1 0.9999999
vt 8.940697E-08 5.960464E-08
vt 1.192093E-07 0.9999999
vt 1 2.107342E-08
vt 1 0.9999999
vt 8.940697E-08 5.960464E-08
vt 1.192093E-07 0.9999999
vt 1 2.107342E-08
vt 0 0
vt 1 1
vt 1 0
vt 0 1
vt 0 0
vt 1 1
vt 1 0
vt 0 1
vt 1 0.9999999
vt 8.940697E-08 5.960464E-08
vt 1.192093E-07 0.9999999
vt 1 2.107342E-08
vt 1 0.9999999
vt 8.940697E-08 5.960464E-08
vt 1.192093E-07 0.9999999
vt 1 2.107342E-08
vt 0 0
vt 1 1
vt 1 0
vt 0 1
vt 0 0
vt 1 1
vt 1 0
vt 0 1
vt 1 0.9999999
vt 8.940697E-08 5.960464E-08
vt 1.192093E-07 0.9999999
vt 1 2.107342E-08
vt 1 0.9999999
vt 8.940697E-08 5.960464E-08
vt 1.192093E-07 0.9999999
vt 1 2.107342E-08
vt 0 0
vt 1 1
vt 1 0
vt 0 1
vt 0 0
vt 1 1
vt 1 0
vt 0 1
vt 1 0.9999999
vt 8.940697E-08 5.960464E-08
vt 1.192093E-07 0.9999999
vt 1 2.107342E-08
vt 1 0.9999999
vt 8.940697E-08 5.960464E-08
vt 1.192093E-07 0.9999999
vt 1 2.107342E-08
vt 0 0
vt 1 1
vt 1 0
vt 0 1
vt 0 0
vt 1 1
vt 1 0
vt 0 1
vt 1 0.9999999
vt 8.940697E-08 5.960464E-08
vt 1.192093E-07 0.9999999
vt 1 2.107342E-08
vt 1 0.9999999
vt 8.940697E-08 5.960464E-08
vt 1.192093E-07 0.9999999
vt 1 2.107342E-08
vt 0 0
vt 1 1
vt 1 0
vt 0 1
vt 0 0
vt 1 1
vt 1 0
vt 0 1
vt 1 0.9999999
vt 8.940697E-08 5.960464E-08
vt 1.192093E-07 0.9999999
vt 1 2.107342E-08
vt 1 0.9999999
vt 8.940697E-08 5.960464E-08
vt 1.192093E-07 0.9999999
vt 1 2.107342E-08
vt 0 0
vt 1 1
vt 1 0
vt 0 1
vt 0 0
vt 1 1
vt 1 0
vt 0 1
vt 1 0.9999999
vt 8.940697E-08 5.960464E-08
vt 1.192093E-07 0.9999999
vt 1 2.107342E-08
vt 1 0.9999999
vt 8.940697E-08 5.960464E-08
vt 1.192093E-07 0.9999999
vt 1 2.107342E-08
vt 0 0
vt 1 1
vt 1 0
vt 0 1
vt 0 0
vt 1 1
vt 1 0
vt 0 1
vt 1 0.9999999
vt 8.940697E-08 5.960464E-08
vt 1.192093E-07 0.9999999
vt 1 2.107342E-08
vt 1 0.9999999
vt 8.940697E-08 5.960464E-08
vt 1.192093E-07 0.9999999
vt 1 2.107342E-08
vt 0 0
vt 1 1
vt 1 0
vt 0 1
vn 0 0 1
vn 0 0 1
vn 0 0 1
vn 0 0 1
vn 0 0 1
vn 0 0 1
vn 0 0 1
vn 0 0 1
vn 0 0 1
vn 0 0 1
vn 0 0 1
vn 0 0 1
vn 0 0 1
vn 0 0 1
vn 0 0 1
vn 0 0 1
vn 0 0 1
vn 0 0 1
vn 0 0 1
vn 0 0 1
vn 0 0 1
vn 0 0 1
vn 0 0 1
vn 0 0 1
vn 0 0 1
vn 0 0 1
vn 0 0 1
vn 0 0 1
vn 0 0 1
vn 0 0 1
vn 0 0 1
vn 0 0 1
vn 0 0 1
vn 0 0 1
vn 0 0 1
vn 0 0 1
vn 0 0 1
vn 0 0 1
vn 0 0 1
vn 0 0 1
vn 0 0 1
vn 0 0 1
vn 0 0 1
vn 0 0 1
vn 0 0 1
vn 0 0 1
vn 0 0 1
vn 0 0 1
vn 0 0 1
vn 0 0 1
vn 0 0 1
vn 0 0 1
vn 0 0 1
vn 0 0 1
vn 0 0 1
vn 0 0 1
vn 0 0 1
vn 0 0 1
vn 0 0 1
vn 0 0 1
vn 0 0 1
vn 0 0 1
vn 0 0 1
vn 0 0 1
vn 0 0 1
vn 0 0 1
vn 0 0 1
vn 0 0 1
vn 0 0 1
vn 0 0 1
vn 0 0 1
vn 0 0 1
vn 0 0 1
vn 0 0 1
vn 0 0 1
vn 0 0 1
vn 0 0 1
vn 0 0 1
vn 0 0 1
vn 0 0 1
vn 0 0 1
vn 0 0 1
vn 0 0 1
vn 0 0 1
vn 0 0 1
vn 0 0 1
vn 0 0 1
vn 0 0 1
vn 0 0 1
vn 0 0 1
vn 0 0 1
vn 0 0 1
vn 0 0 1
vn 0 0 1
vn 0 0 1
vn 0 0 1
vn 0 0 1
vn 0 0 1
vn 0 0 1
vn 0 0 1
vn 0 0 1
vn 0 0 1
vn 0 0 1
vn 0 0 1
vn 0 0 1
vn 0 0 1
vn 0 0 1
vn 0 0 1
vn 0 0 1
vn 0 0 1
vn 0 0 1
vn 0 0 1
vn 0 0 1
vn 0 0 1
vn 0 0 1
vn 0 0 1
vn 0 0 1
vn 0 0 1
vn 0 0 1
vn 0 0 1
vn 0 0 1
vn 0 0 1
vn 0 0 1
vn 0 0 1
vn 0 0 1
vn 0 0 1
vn 0 0 1
vn 0 0 1
g geoRadials_0
f 3/3/3 2/2/2 1/1/1
f 2/2/2 4/4/4 1/1/1
f 7/7/7 6/6/6 5/5/5
f 6/6/6 8/8/8 5/5/5
f 11/11/11 10/10/10 9/9/9
f 10/10/10 12/12/12 9/9/9
f 15/15/15 14/14/14 13/13/13
f 14/14/14 16/16/16 13/13/13
f 19/19/19 18/18/18 17/17/17
f 18/18/18 20/20/20 17/17/17
f 23/23/23 22/22/22 21/21/21
f 22/22/22 24/24/24 21/21/21
f 27/27/27 26/26/26 25/25/25
f 26/26/26 28/28/28 25/25/25
f 31/31/31 30/30/30 29/29/29
f 30/30/30 32/32/32 29/29/29
f 35/35/35 34/34/34 33/33/33
f 34/34/34 36/36/36 33/33/33
f 39/39/39 38/38/38 37/37/37
f 38/38/38 40/40/40 37/37/37
f 43/43/43 42/42/42 41/41/41
f 42/42/42 44/44/44 41/41/41
f 47/47/47 46/46/46 45/45/45
f 46/46/46 48/48/48 45/45/45
f 51/51/51 50/50/50 49/49/49
f 50/50/50 52/52/52 49/49/49
f 55/55/55 54/54/54 53/53/53
f 54/54/54 56/56/56 53/53/53
f 59/59/59 58/58/58 57/57/57
f 58/58/58 60/60/60 57/57/57
f 63/63/63 62/62/62 61/61/61
f 62/62/62 64/64/64 61/61/61
f 67/67/67 66/66/66 65/65/65
f 66/66/66 68/68/68 65/65/65
f 71/71/71 70/70/70 69/69/69
f 70/70/70 72/72/72 69/69/69
f 75/75/75 74/74/74 73/73/73
f 74/74/74 76/76/76 73/73/73
f 79/79/79 78/78/78 77/77/77
f 78/78/78 80/80/80 77/77/77
f 83/83/83 82/82/82 81/81/81
f 82/82/82 84/84/84 81/81/81
f 87/87/87 86/86/86 85/85/85
f 86/86/86 88/88/88 85/85/85
f 91/91/91 90/90/90 89/89/89
f 90/90/90 92/92/92 89/89/89
f 95/95/95 94/94/94 93/93/93
f 94/94/94 96/96/96 93/93/93
f 99/99/99 98/98/98 97/97/97
f 98/98/98 100/100/100 97/97/97
f 103/103/103 102/102/102 101/101/101
f 102/102/102 104/104/104 101/101/101
f 107/107/107 106/106/106 105/105/105
f 106/106/106 108/108/108 105/105/105
f 111/111/111 110/110/110 109/109/109
f 110/110/110 112/112/112 109/109/109
f 115/115/115 114/114/114 113/113/113
f 114/114/114 116/116/116 113/113/113
f 119/119/119 118/118/118 117/117/117
f 118/118/118 120/120/120 117/117/117
f 123/123/123 122/122/122 121/121/121
f 122/122/122 124/124/124 121/121/121
f 127/127/127 126/126/126 125/125/125
f 126/126/126 128/128/128 125/125/125
