g introScene2_v1_spaceBG
v -1.577722E-32 0.04803505 1.05092E-10
v 0.04576016 -6.310887E-32 1.05092E-10
v -1.577722E-32 -6.310887E-32 1.05092E-10
v 0.04576016 0.04803505 1.05092E-10
v -1.577722E-32 -0.0471114 -1.087001E-09
v 0.04576016 -0.0471114 -1.087001E-09
v -0.04748939 -6.310887E-32 1.05092E-10
v -0.04748939 -0.0471114 -1.087001E-09
v -0.04748939 0.04803505 1.05092E-10
vt 0.5 0.6629264
vt 0.6552104 0.5
vt 0.5 0.5
vt 0.6552104 0.6629264
vt 0.5 0.3402064
vt 0.6552104 0.3402064
vt 0.3389243 0.5
vt 0.3389243 0.3402064
vt 0.3389243 0.6629264
vn 0 0 1
vn 0 0 1
vn 0 0 1
vn 0 0 1
vn 0 0 1
vn 0 0 1
vn 0 0 1
vn 0 0 1
vn 0 0 1
g introScene2_v1_spaceBG_0
f 3/3/3 2/2/2 1/1/1
f 2/2/2 4/4/4 1/1/1
f 2/2/2 3/3/3 5/5/5
f 6/6/6 2/2/2 5/5/5
f 5/5/5 3/3/3 7/7/7
f 8/8/8 5/5/5 7/7/7
f 7/7/7 3/3/3 9/9/9
f 3/3/3 1/1/1 9/9/9
