g introScene2_v1_stars2
v -5.522026E-32 -0.09662727 -6.101637E-10
v 0.09662727 -6.310887E-32 -6.101637E-10
v -5.522026E-32 -6.310887E-32 5.819291E-10
v 0.09662727 -0.09662727 -6.101637E-10
v -0.09662727 -6.310887E-32 -6.101637E-10
v -0.09662727 -0.09662727 -6.101637E-10
v -5.522026E-32 0.09662727 5.819291E-10
v -0.09662727 0.09662727 5.819291E-10
v 0.09662727 0.09662727 5.819291E-10
vt 0.6757269 0.3221797
vt 0.3221797 0.3242731
vt 0.5 0.5
vt 0.4979065 0.1464528
vt 0.6778203 0.6757269
vt 0.8535472 0.4979066
vt 0.3242731 0.6778203
vt 0.5020934 0.8535472
vt 0.1464528 0.5020934
vn 0 0 -1
vn 0 0 -1
vn 0 0 -1
vn 0 0 -1
vn 0 0 -1
vn 0 0 -1
vn 0 0 -1
vn 0 0 -1
vn 0 0 -1
g introScene2_v1_stars2_0
f 3/3/3 2/2/2 1/1/1
f 2/2/2 4/4/4 1/1/1
f 3/3/3 1/1/1 5/5/5
f 1/1/1 6/6/6 5/5/5
f 3/3/3 5/5/5 7/7/7
f 3/3/3 7/7/7 2/2/2
f 5/5/5 8/8/8 7/7/7
f 7/7/7 9/9/9 2/2/2
