g plane
v 11.64533 -17.88753 0
v 3.555642 -20.94656 0
v 16.03654 -6.802306 0
v -4.542198 -20.94656 0
v -12.41337 -17.40693 0
v -17.85048 -8.379393 0
v -17.85048 9.639105 0
v 16.03654 9.555177 0
v 8.520026 17.84334 0
v -10.6597 18.10933 0
v -4.758214 20.55962 0
v 2.234758 20.55962 0
vt 0.7646666 0.0934652
vt 0.58081 0.0239418
vt 0.8644666 0.345402
vt 0.3967682 0.02394181
vt 0.2178779 0.1043879
vt 0.09430728 0.3095592
vt 0.09430728 0.7190705
vt 0.8644667 0.7171628
vt 0.693637 0.9055303
vt 0.2577343 0.9115756
vt 0.3918588 0.9672639
vt 0.5507898 0.9672639
vn 0 0 1
vn 0 0 1
vn 0 0 1
vn 0 0 1
vn 0 0 1
vn 0 0 1
vn 0 0 1
vn 0 0 1
vn 0 0 1
vn 0 0 1
vn 0 0 1
vn 0 0 1
g plane_0
f 3/3/3 2/2/2 1/1/1
f 3/3/3 4/4/4 2/2/2
f 3/3/3 5/5/5 4/4/4
f 3/3/3 6/6/6 5/5/5
f 3/3/3 7/7/7 6/6/6
f 8/8/8 7/7/7 3/3/3
f 9/9/9 7/7/7 8/8/8
f 9/9/9 10/10/10 7/7/7
f 9/9/9 11/11/11 10/10/10
f 9/9/9 12/12/12 11/11/11
