g plane
v 10.78367 8.875437 0
v -13.48127 9.391315 0
v 5.949279 22 0
v -12.07877 16.83733 0
v -9.074234 22 0
v 19.36901 -9.443624 0
v 17.77749 4.58876 0
v 18.96285 -10.27708 0
v 14.39572 -19.64904 0
v 10.5642 -22 0
v -1.100397 -22 0
v -11.02598 -17.59164 0
v -18.36132 3.392247 0
v -13.9318 -15.46032 0
v -18.56157 -7.070484 0
vt 0.7450834 0.7017145
vt 0.1936074 0.713439
vt 0.6352109 1
vt 0.2254825 0.8826665
vt 0.2937674 1
vt 0.9402047 0.2853722
vt 0.904034 0.6042901
vt 0.9309739 0.26643
vt 0.8271755 0.05343094
vt 0.7400955 2.12805E-08
vt 0.4749909 8.850204E-08
vt 0.2494096 0.1001902
vt 0.08269744 0.5770966
vt 0.18337 0.1486299
vt 0.07814617 0.3393073
vn 0 0 1
vn 0 0 1
vn 0 0 1
vn 0 0 1
vn 0 0 1
vn 0 0 1
vn 0 0 1
vn 0 0 1
vn 0 0 1
vn 0 0 1
vn 0 0 1
vn 0 0 1
vn 0 0 1
vn 0 0 1
vn 0 0 1
g plane_0
f 3/3/3 2/2/2 1/1/1
f 3/3/3 4/4/4 2/2/2
f 5/5/5 4/4/4 3/3/3
f 2/2/2 6/6/6 1/1/1
f 1/1/1 6/6/6 7/7/7
f 2/2/2 8/8/8 6/6/6
f 2/2/2 9/9/9 8/8/8
f 2/2/2 10/10/10 9/9/9
f 2/2/2 11/11/11 10/10/10
f 2/2/2 12/12/12 11/11/11
f 13/13/13 12/12/12 2/2/2
f 13/13/13 14/14/14 12/12/12
f 15/15/15 14/14/14 13/13/13
