g plane
v -22 -9.70652 0
v -22 7.357752 0
v -15.8001 -17.97713 0
v -6.001486 -22 0
v 8.031425 -22 0
v 17.68593 -15.79728 0
v 22 -7.668419 0
v 22 6.663161 0
v -17.89359 15.25228 0
v -8.155413 22 0
v 18.14807 14.33583 0
v 7.131855 22 0
vt 0 0.2793973
vt 0 0.6672217
vt 0.1409075 0.09142953
vt 0.3636026 0
vt 0.6825324 0
vt 0.901953 0.140971
vt 1 0.3257177
vt 1 0.6514355
vt 0.09332746 0.8466427
vt 0.3146497 1
vt 0.912456 0.8258142
vt 0.6620876 1
vn 0 0 1
vn 0 0 1
vn 0 0 1
vn 0 0 1
vn 0 0 1
vn 0 0 1
vn 0 0 1
vn 0 0 1
vn 0 0 1
vn 0 0 1
vn 0 0 1
vn 0 0 1
g plane_0
f 3/3/3 2/2/2 1/1/1
f 4/4/4 2/2/2 3/3/3
f 5/5/5 2/2/2 4/4/4
f 6/6/6 2/2/2 5/5/5
f 7/7/7 2/2/2 6/6/6
f 8/8/8 2/2/2 7/7/7
f 8/8/8 9/9/9 2/2/2
f 8/8/8 10/10/10 9/9/9
f 11/11/11 10/10/10 8/8/8
f 11/11/11 12/12/12 10/10/10
