g polySurface1
v 0.04885234 0.340074 -0.03805384
v -0.1049623 -0.0949797 -0.3044688
v 0.3564818 -0.0949797 -0.03805384
v 0.3345114 -0.1571213 -1.774503E-08
v -0.1269327 -0.1571213 -0.2664149
v -0.1269328 -0.1571213 0.2664149
v -0.1708736 -0.0949797 0.2664149
v -0.1708735 -0.0949797 -0.2664149
v -0.01705883 0.340074 -1.643549E-08
v 0.3564818 -0.0949797 0.03805381
v -0.1049624 -0.0949797 0.3044687
v 0.04885234 0.340074 0.03805381
v -0.1049623 -0.0949797 -0.3044688
v -0.01705883 0.340074 -1.643549E-08
v -0.1708735 -0.0949797 -0.2664149
v 0.04885234 0.340074 -0.03805384
v -0.1269327 -0.1571213 -0.2664149
v 0.3564818 -0.0949797 -0.03805384
v -0.1049623 -0.0949797 -0.3044688
v 0.3345114 -0.1571213 -1.774503E-08
v -0.1708735 -0.0949797 -0.2664149
v -0.1269328 -0.1571213 0.2664149
v -0.1269327 -0.1571213 -0.2664149
v -0.1708736 -0.0949797 0.2664149
v -0.1708736 -0.0949797 0.2664149
v 0.04885234 0.340074 0.03805381
v -0.1049624 -0.0949797 0.3044687
v -0.01705883 0.340074 -1.643549E-08
v -0.1049624 -0.0949797 0.3044687
v 0.3345114 -0.1571213 -1.774503E-08
v -0.1269328 -0.1571213 0.2664149
v 0.3564818 -0.0949797 0.03805381
v 0.3564818 -0.0949797 0.03805381
v 0.04885234 0.340074 -0.03805384
v 0.3564818 -0.0949797 -0.03805384
v 0.04885234 0.340074 0.03805381
v -0.1708735 -0.0949797 -0.2664149
v -0.1269327 -0.1571213 -0.2664149
v -0.1049623 -0.0949797 -0.3044688
v -0.1049624 -0.0949797 0.3044687
v -0.1269328 -0.1571213 0.2664149
v -0.1708736 -0.0949797 0.2664149
v 0.3564818 -0.0949797 -0.03805384
v 0.3345114 -0.1571213 -1.774503E-08
v 0.3564818 -0.0949797 0.03805381
v 0.04885234 0.340074 0.03805381
v -0.01705883 0.340074 -1.643549E-08
v 0.04885234 0.340074 -0.03805384
v -0.03307158 0 0.125
v -0.03307158 0 -0.125
v 0.1401335 0 -1.117587E-08
v -0.03307158 0 0.125
v -0.03279319 -0.7597226 -0.1250262
v -0.03307158 0 -0.125
v -0.03269398 -0.7606452 0.1246636
v 0.02466345 -1.188271 -0.0003211262
v -0.03307158 0 -0.125
v 0.1409225 -0.7565163 -7.391138E-05
v 0.1401335 0 -1.117587E-08
v -0.03279319 -0.7597226 -0.1250262
v 0.02466345 -1.188271 -0.0003211262
v 0.1401335 0 -1.117587E-08
v -0.03269398 -0.7606452 0.1246636
v -0.03307158 0 0.125
v 0.1409225 -0.7565163 -7.391138E-05
v 0.02466345 -1.188271 -0.0003211262
v 0.01321557 0.1310323 -0.04720838
v -0.05524759 -0.06812518 0.08751032
v 0.1195121 -0.05380214 -0.03446878
v 0.01321557 0.1310323 -0.04720838
v 0.3373389 0.1982667 0.6808816
v -0.05524759 -0.06812518 0.08751032
v 0.4062741 0.3974519 0.5470195
v 0.6394354 0.4196857 0.9303159
v -0.05524759 -0.06812518 0.08751032
v 0.5108439 0.2111755 0.5562627
v 0.1195121 -0.05380214 -0.03446878
v 0.3373389 0.1982667 0.6808816
v 0.6394354 0.4196857 0.9303159
v 0.1195121 -0.05380214 -0.03446878
v 0.4062741 0.3974519 0.5470195
v 0.01321557 0.1310323 -0.04720838
v 0.5108439 0.2111755 0.5562627
v 0.6394354 0.4196857 0.9303159
v -0.001675412 0.1285417 0.04613894
v 0.1493684 -0.06983662 0.02792253
v -0.04275271 -0.05020833 -0.06334206
v -0.001675412 0.1285417 0.04613894
v 0.4731216 0.2332756 -0.5889124
v 0.1493684 -0.06983662 0.02792253
v 0.3225918 0.4317304 -0.571525
v 0.54182 0.4769031 -0.9609772
v 0.1493684 -0.06983662 0.02792253
v 0.2793185 0.2513516 -0.6778737
v -0.04275271 -0.05020833 -0.06334206
v 0.4731216 0.2332756 -0.5889124
v 0.54182 0.4769031 -0.9609772
v -0.04275271 -0.05020833 -0.06334206
v 0.3225918 0.4317304 -0.571525
v -0.001675412 0.1285417 0.04613894
v 0.2793185 0.2513516 -0.6778737
v 0.54182 0.4769031 -0.9609772
v 0.08839206 0.1280414 -0.0005205367
v 0.00123544 -0.07729691 -0.1133919
v 0.006908581 -0.04339989 0.09742512
v 0.08839206 0.1280414 -0.0005205367
v -0.6912109 0.2337106 -0.1445513
v 0.00123544 -0.07729691 -0.1133919
v -0.6050249 0.4391325 -0.03176971
v -1.050869 0.4888331 -0.05474632
v 0.00123544 -0.07729691 -0.1133919
v -0.682744 0.2660526 0.06683177
v 0.006908581 -0.04339989 0.09742512
v -0.6912109 0.2337106 -0.1445513
v -1.050869 0.4888331 -0.05474632
v 0.006908581 -0.04339989 0.09742512
v -0.6050249 0.4391325 -0.03176971
v 0.08839206 0.1280414 -0.0005205367
v -0.682744 0.2660526 0.06683177
v -1.050869 0.4888331 -0.05474632
v 0.04132355 0.4444893 -0.05163925
v 0.4587794 -0.1458826 -0.05163925
v -0.1394995 -0.1458826 -0.4131669
v 0.4289654 -0.2302095 -1.609516E-08
v -0.1693135 -0.2302095 0.3615274
v -0.1693134 -0.2302095 -0.3615274
v -0.2289415 -0.1458826 0.3615274
v -0.02021363 0.4444893 -1.473309E-08
v -0.2289415 -0.1458826 -0.3615275
v 0.4587794 -0.1458826 0.05163936
v 0.04132355 0.4444893 0.05163936
v -0.1394996 -0.1458826 0.4131668
v -0.1394995 -0.1458826 -0.4131669
v -0.02021363 0.4444893 -1.473309E-08
v 0.04132355 0.4444893 -0.05163925
v -0.2289415 -0.1458826 -0.3615275
v -0.1693134 -0.2302095 -0.3615274
v 0.4587794 -0.1458826 -0.05163925
v 0.4289654 -0.2302095 -1.609516E-08
v -0.1394995 -0.1458826 -0.4131669
v -0.2289415 -0.1458826 -0.3615275
v -0.1693135 -0.2302095 0.3615274
v -0.2289415 -0.1458826 0.3615274
v -0.1693134 -0.2302095 -0.3615274
v -0.2289415 -0.1458826 0.3615274
v 0.04132355 0.4444893 0.05163936
v -0.02021363 0.4444893 -1.473309E-08
v -0.1394996 -0.1458826 0.4131668
v -0.1394996 -0.1458826 0.4131668
v 0.4289654 -0.2302095 -1.609516E-08
v 0.4587794 -0.1458826 0.05163936
v -0.1693135 -0.2302095 0.3615274
v 0.4587794 -0.1458826 0.05163936
v 0.04132355 0.4444893 -0.05163925
v 0.04132355 0.4444893 0.05163936
v 0.4587794 -0.1458826 -0.05163925
v -0.2289415 -0.1458826 -0.3615275
v -0.1394995 -0.1458826 -0.4131669
v -0.1693134 -0.2302095 -0.3615274
v -0.1394996 -0.1458826 0.4131668
v -0.2289415 -0.1458826 0.3615274
v -0.1693135 -0.2302095 0.3615274
v 0.4587794 -0.1458826 -0.05163925
v 0.4587794 -0.1458826 0.05163936
v 0.4289654 -0.2302095 -1.609516E-08
v 0.04132355 0.4444893 0.05163936
v 0.04132355 0.4444893 -0.05163925
v -0.02021363 0.4444893 -1.473309E-08
vt 0.194481 0.7217481
vt 0.2880898 0.5345307
vt 0.2256839 0.5345308
vt 0.2702621 0.3740683
vt 0.1298491 0.2930008
vt 0.1298491 0.4551358
vt 0.1276228 0.5345308
vt 0.06521702 0.5345308
vt 0.1588258 0.7217481
vt 0.2078563 0.5345308
vt 0.1454505 0.5345308
vt 0.1766534 0.7217481
vt 0.06373143 0.5434445
vt 0.1588258 0.7217481
vt 0.06521702 0.5345308
vt 0.15734 0.7306619
vt 0.1298491 0.2930008
vt 0.2769474 0.3624889
vt 0.1365344 0.2814214
vt 0.2702621 0.3740683
vt 0.1164783 0.2930008
vt 0.1298491 0.4551358
vt 0.1298491 0.2930008
vt 0.1164783 0.4551358
vt 0.1276228 0.5345308
vt 0.1662539 0.7306619
vt 0.135051 0.5434445
vt 0.1588258 0.7217481
vt 0.1365344 0.4667152
vt 0.2702621 0.3740683
vt 0.1298491 0.4551358
vt 0.2769474 0.3856477
vt 0.2078563 0.5345308
vt 0.1811103 0.7306619
vt 0.2123132 0.5434446
vt 0.1766534 0.7217481
vt 0.1164783 0.2930008
vt 0.1298491 0.2930008
vt 0.1365344 0.2814214
vt 0.1365344 0.4667152
vt 0.1298491 0.4551358
vt 0.1164783 0.4551358
vt 0.2769474 0.3624889
vt 0.2702621 0.3740683
vt 0.2769474 0.3856477
vt 0.1662539 0.7306619
vt 0.1588258 0.7217481
vt 0.15734 0.7306619
vt 0.7160679 0.2582625
vt 0.7160679 0.489874
vt 0.9166492 0.3740683
vt 0.6492074 0.5077892
vt 0.7590711 0.6320877
vt 0.7383547 0.5077892
vt 0.7339431 0.6772606
vt 0.7829283 0.7752311
vt 0.7383547 0.5077892
vt 0.7989444 0.679135
vt 0.827502 0.5077892
vt 0.7590711 0.6320877
vt 0.7829283 0.7752311
vt 0.827502 0.5077892
vt 0.8319136 0.6772606
vt 0.9166493 0.5077892
vt 0.7989444 0.679135
vt 0.7829283 0.7752311
vt 0.7160679 0.2582625
vt 0.7160679 0.489874
vt 0.9166492 0.3740683
vt 0.6492074 0.5077892
vt 0.7590711 0.6320877
vt 0.7383547 0.5077892
vt 0.7339431 0.6772606
vt 0.7829283 0.7752311
vt 0.7383547 0.5077892
vt 0.7989444 0.679135
vt 0.827502 0.5077892
vt 0.7590711 0.6320877
vt 0.7829283 0.7752311
vt 0.827502 0.5077892
vt 0.8319136 0.6772606
vt 0.9166493 0.5077892
vt 0.7989444 0.679135
vt 0.7829283 0.7752311
vt 0.7160679 0.2582625
vt 0.7160679 0.489874
vt 0.9166492 0.3740683
vt 0.6492074 0.5077892
vt 0.7590711 0.6320877
vt 0.7383547 0.5077892
vt 0.7339431 0.6772606
vt 0.7829283 0.7752311
vt 0.7383547 0.5077892
vt 0.7989444 0.679135
vt 0.827502 0.5077892
vt 0.7590711 0.6320877
vt 0.7829283 0.7752311
vt 0.827502 0.5077892
vt 0.8319136 0.6772606
vt 0.9166493 0.5077892
vt 0.7989444 0.679135
vt 0.7829283 0.7752311
vt 0.7160679 0.2582625
vt 0.7160679 0.489874
vt 0.9166492 0.3740683
vt 0.6492074 0.5077892
vt 0.7590711 0.6320877
vt 0.7383547 0.5077892
vt 0.7339431 0.6772606
vt 0.7829283 0.7752311
vt 0.7383547 0.5077892
vt 0.7989444 0.679135
vt 0.827502 0.5077892
vt 0.7590711 0.6320877
vt 0.7829283 0.7752311
vt 0.827502 0.5077892
vt 0.8319136 0.6772606
vt 0.9166493 0.5077892
vt 0.7989444 0.679135
vt 0.7829283 0.7752311
vt 0.800756 0.7217481
vt 0.8319589 0.5345308
vt 0.8943647 0.5345307
vt 0.8765371 0.3740683
vt 0.736124 0.4551358
vt 0.736124 0.2930008
vt 0.7338978 0.5345308
vt 0.7651007 0.7217481
vt 0.671492 0.5345308
vt 0.8141313 0.5345308
vt 0.7829283 0.7217481
vt 0.7517254 0.5345308
vt 0.6700064 0.5434445
vt 0.7651007 0.7217481
vt 0.763615 0.7306619
vt 0.671492 0.5345308
vt 0.736124 0.2930008
vt 0.8832223 0.3624889
vt 0.8765371 0.3740683
vt 0.7428094 0.2814214
vt 0.7227533 0.2930008
vt 0.736124 0.4551358
vt 0.7227532 0.4551358
vt 0.736124 0.2930008
vt 0.7338978 0.5345308
vt 0.7725288 0.7306619
vt 0.7651007 0.7217481
vt 0.741326 0.5434445
vt 0.7428094 0.4667152
vt 0.8765371 0.3740683
vt 0.8832223 0.3856477
vt 0.736124 0.4551358
vt 0.8141313 0.5345308
vt 0.7873852 0.7306619
vt 0.7829283 0.7217481
vt 0.8185881 0.5434446
vt 0.7227533 0.2930008
vt 0.7428094 0.2814214
vt 0.736124 0.2930008
vt 0.7428094 0.4667152
vt 0.7227532 0.4551358
vt 0.736124 0.4551358
vt 0.8832223 0.3624889
vt 0.8832223 0.3856477
vt 0.8765371 0.3740683
vt 0.7725288 0.7306619
vt 0.763615 0.7306619
vt 0.7651007 0.7217481
vn 0.4714046 0.3333334 -0.8164965
vn 0.4714046 0.3333334 -0.8164965
vn 0.4714046 0.3333334 -0.8164965
vn 0 -1 0
vn 0 -1 0
vn 0 -1 0
vn -0.942809 0.3333333 0
vn -0.942809 0.3333333 0
vn -0.942809 0.3333333 0
vn 0.4714045 0.3333333 0.8164966
vn 0.4714045 0.3333333 0.8164966
vn 0.4714045 0.3333333 0.8164966
vn -0.4082482 0.5773502 -0.7071069
vn -0.4082481 0.5773502 -0.7071069
vn -0.4082481 0.5773502 -0.7071069
vn -0.4082482 0.5773502 -0.7071069
vn 0.4082483 -0.5773504 -0.7071066
vn 0.4082483 -0.5773504 -0.7071067
vn 0.4082483 -0.5773504 -0.7071067
vn 0.4082483 -0.5773504 -0.7071066
vn -0.8164966 -0.5773503 0
vn -0.8164966 -0.5773503 0
vn -0.8164966 -0.5773503 0
vn -0.8164966 -0.5773503 0
vn -0.4082482 0.5773503 0.7071068
vn -0.4082482 0.5773503 0.7071069
vn -0.4082482 0.5773503 0.7071068
vn -0.4082482 0.5773503 0.7071069
vn 0.4082483 -0.5773502 0.7071068
vn 0.4082483 -0.5773502 0.7071068
vn 0.4082483 -0.5773503 0.7071068
vn 0.4082483 -0.5773502 0.7071068
vn 0.8164966 0.5773503 0
vn 0.8164966 0.5773503 0
vn 0.8164966 0.5773503 0
vn 0.8164966 0.5773503 0
vn -0.4714035 -0.3333338 -0.816497
vn -0.4714035 -0.3333338 -0.816497
vn -0.4714035 -0.3333338 -0.816497
vn -0.4714041 -0.3333333 0.8164968
vn -0.471404 -0.3333333 0.8164968
vn -0.471404 -0.3333333 0.8164968
vn 0.9428092 -0.3333331 0
vn 0.9428092 -0.3333331 0
vn 0.9428092 -0.3333331 0
vn 0 1 0
vn 0 1 0
vn 0 1 0
vn 0 1 0
vn 0 1 0
vn 0 1 0
vn -0.9999999 -0.0004315113 0.0001977652
vn -0.9996772 -0.02540882 0.0001424082
vn -0.9999999 -0.0004315113 0.0001977652
vn -0.9996724 -0.02559719 0.0001419903
vn -0.9911279 -0.1329116 -9.727236E-05
vn 0.5845626 0.0004650465 -0.8113485
vn 0.5845447 -0.03012555 -0.810802
vn 0.5845626 0.0004650466 -0.8113485
vn 0.584545 -0.03009576 -0.8108029
vn 0.578723 -0.1553751 -0.8005862
vn 0.5843431 0.000229849 0.8115067
vn 0.5843852 -0.0305527 0.810901
vn 0.5843431 0.000229849 0.8115067
vn 0.584387 -0.03031744 0.8109086
vn 0.5787615 -0.1563021 0.8003778
vn -0.516462 -0.3508517 -0.7811339
vn -0.516462 -0.3508517 -0.7811339
vn -0.516462 -0.3508517 -0.7811339
vn -0.8110623 0.4925328 0.3155778
vn -0.7979158 0.5010931 0.3350165
vn -0.8110623 0.4925328 0.3155778
vn -0.7978147 0.5011566 0.3351624
vn -0.735524 0.5344115 0.4164237
vn 0.2518486 -0.9342431 0.2525116
vn 0.2677826 -0.9230662 0.2761181
vn 0.2518485 -0.9342431 0.2525116
vn 0.2677672 -0.9230776 0.2760953
vn 0.3305435 -0.8681183 0.3702857
vn 0.6962151 0.3587621 -0.621751
vn 0.7119815 0.369059 -0.5973926
vn 0.6962151 0.3587621 -0.621751
vn 0.7118634 0.3689816 -0.597581
vn 0.7694818 0.4075634 -0.4917213
vn -0.4263725 -0.3991732 0.8117064
vn -0.4263724 -0.3991731 0.8117064
vn -0.4263725 -0.3991731 0.8117064
vn 0.67325 0.459674 0.5791668
vn 0.6837159 0.4694521 0.5587015
vn 0.67325 0.4596741 0.5791668
vn 0.6837931 0.4695248 0.5585458
vn 0.7239417 0.5082471 0.4664689
vn 0.09647901 -0.9125171 -0.3974975
vn 0.1092039 -0.8998644 -0.4222779
vn 0.09647901 -0.9125171 -0.3974975
vn 0.1091916 -0.8998771 -0.422254
vn 0.1603539 -0.8390876 -0.5198256
vn -0.8837615 0.3754345 -0.2793109
vn -0.8702991 0.3872221 -0.3043658
vn -0.8837615 0.3754345 -0.2793108
vn -0.8704051 0.3871334 -0.3041753
vn -0.8065394 0.4316508 -0.4039451
vn 0.9113541 -0.4095436 0.04132528
vn 0.9113541 -0.4095436 0.04132528
vn 0.9113541 -0.4095436 0.04132528
vn 0.2185212 0.397395 -0.8912495
vn 0.1956681 0.4074507 -0.892019
vn 0.2185212 0.397395 -0.8912495
vn 0.1954952 0.4075255 -0.8920227
vn 0.09574041 0.4478863 -0.8889498
vn -0.4103626 -0.8986979 0.1547403
vn -0.4380471 -0.8857138 0.1537068
vn -0.4103627 -0.8986979 0.1547403
vn -0.4380203 -0.8857269 0.1537079
vn -0.5473582 -0.8237163 0.147954
vn 0.1552413 0.4344225 0.8872301
vn 0.1269671 0.446515 0.8857222
vn 0.1552413 0.4344225 0.8872301
vn 0.1271838 0.4464242 0.8857368
vn 0.009926983 0.4916045 0.870762
vn -0.4857247 -0.343459 0.803808
vn -0.4857247 -0.3434591 0.8038081
vn -0.4857247 -0.3434591 0.8038081
vn 0 1 0
vn 0 1 0
vn 0 1 0
vn 0.942809 -0.3333333 0
vn 0.942809 -0.3333333 0
vn 0.942809 -0.3333333 0
vn -0.4857244 -0.343459 -0.8038083
vn -0.4857244 -0.343459 -0.8038082
vn -0.4857244 -0.343459 -0.8038083
vn 0.4643397 -0.5688741 0.6788011
vn 0.4643397 -0.5688741 0.6788011
vn 0.4643398 -0.5688741 0.6788011
vn 0.4643398 -0.5688741 0.6788011
vn -0.4223092 0.5772726 0.6988642
vn -0.4223092 0.5772727 0.6988642
vn -0.4223092 0.5772726 0.6988642
vn -0.4223092 0.5772727 0.6988642
vn 0.8164968 0.57735 0
vn 0.8164968 0.57735 0
vn 0.8164968 0.57735 0
vn 0.8164968 0.57735 0
vn 0.46434 -0.568874 -0.6788009
vn 0.46434 -0.568874 -0.6788009
vn 0.46434 -0.5688741 -0.6788009
vn 0.46434 -0.5688741 -0.6788009
vn -0.422309 0.5772728 -0.6988642
vn -0.422309 0.5772728 -0.6988642
vn -0.422309 0.5772728 -0.6988642
vn -0.422309 0.5772728 -0.6988642
vn -0.8164967 -0.5773501 0
vn -0.8164967 -0.5773501 0
vn -0.8164967 -0.5773501 0
vn -0.8164967 -0.5773501 0
vn 0.471405 0.3333335 0.8164963
vn 0.471405 0.3333335 0.8164963
vn 0.471405 0.3333335 0.8164963
vn 0.4714047 0.333333 -0.8164966
vn 0.4714048 0.333333 -0.8164966
vn 0.4714048 0.333333 -0.8164966
vn -0.9428092 0.3333327 0
vn -0.9428092 0.3333327 0
vn -0.9428092 0.3333327 0
vn 0 -1 0
vn 0 -1 0
vn 0 -1 0
g polySurface1_0
f 3/3/3 2/2/2 1/1/1
f 6/6/6 5/5/5 4/4/4
f 9/9/9 8/8/8 7/7/7
f 12/12/12 11/11/11 10/10/10
f 15/15/15 14/14/14 13/13/13
f 14/14/14 16/16/16 13/13/13
f 19/19/19 18/18/18 17/17/17
f 18/18/18 20/20/20 17/17/17
f 23/23/23 22/22/22 21/21/21
f 22/22/22 24/24/24 21/21/21
f 27/27/27 26/26/26 25/25/25
f 26/26/26 28/28/28 25/25/25
f 31/31/31 30/30/30 29/29/29
f 30/30/30 32/32/32 29/29/29
f 35/35/35 34/34/34 33/33/33
f 34/34/34 36/36/36 33/33/33
f 39/39/39 38/38/38 37/37/37
f 42/42/42 41/41/41 40/40/40
f 45/45/45 44/44/44 43/43/43
f 48/48/48 47/47/47 46/46/46
f 51/51/51 50/50/50 49/49/49
f 54/54/54 53/53/53 52/52/52
f 53/53/53 55/55/55 52/52/52
f 53/53/53 56/56/56 55/55/55
f 59/59/59 58/58/58 57/57/57
f 58/58/58 60/60/60 57/57/57
f 58/58/58 61/61/61 60/60/60
f 64/64/64 63/63/63 62/62/62
f 63/63/63 65/65/65 62/62/62
f 63/63/63 66/66/66 65/65/65
f 69/69/69 68/68/68 67/67/67
f 72/72/72 71/71/71 70/70/70
f 71/71/71 73/73/73 70/70/70
f 71/71/71 74/74/74 73/73/73
f 77/77/77 76/76/76 75/75/75
f 76/76/76 78/78/78 75/75/75
f 76/76/76 79/79/79 78/78/78
f 82/82/82 81/81/81 80/80/80
f 81/81/81 83/83/83 80/80/80
f 81/81/81 84/84/84 83/83/83
f 87/87/87 86/86/86 85/85/85
f 90/90/90 89/89/89 88/88/88
f 89/89/89 91/91/91 88/88/88
f 89/89/89 92/92/92 91/91/91
f 95/95/95 94/94/94 93/93/93
f 94/94/94 96/96/96 93/93/93
f 94/94/94 97/97/97 96/96/96
f 100/100/100 99/99/99 98/98/98
f 99/99/99 101/101/101 98/98/98
f 99/99/99 102/102/102 101/101/101
f 105/105/105 104/104/104 103/103/103
f 108/108/108 107/107/107 106/106/106
f 107/107/107 109/109/109 106/106/106
f 107/107/107 110/110/110 109/109/109
f 113/113/113 112/112/112 111/111/111
f 112/112/112 114/114/114 111/111/111
f 112/112/112 115/115/115 114/114/114
f 118/118/118 117/117/117 116/116/116
f 117/117/117 119/119/119 116/116/116
f 117/117/117 120/120/120 119/119/119
f 123/123/123 122/122/122 121/121/121
f 126/126/126 125/125/125 124/124/124
f 129/129/129 128/128/128 127/127/127
f 132/132/132 131/131/131 130/130/130
f 135/135/135 134/134/134 133/133/133
f 134/134/134 136/136/136 133/133/133
f 139/139/139 138/138/138 137/137/137
f 138/138/138 140/140/140 137/137/137
f 143/143/143 142/142/142 141/141/141
f 142/142/142 144/144/144 141/141/141
f 147/147/147 146/146/146 145/145/145
f 146/146/146 148/148/148 145/145/145
f 151/151/151 150/150/150 149/149/149
f 150/150/150 152/152/152 149/149/149
f 155/155/155 154/154/154 153/153/153
f 154/154/154 156/156/156 153/153/153
f 159/159/159 158/158/158 157/157/157
f 162/162/162 161/161/161 160/160/160
f 165/165/165 164/164/164 163/163/163
f 168/168/168 167/167/167 166/166/166
