g rainbowPlane
v -0.03906168 0.007674779 -8.376762E-10
v -0.0389716 -0.006980684 -8.376762E-10
v -0.0614644 -0.006980684 -8.376762E-10
v -0.0543584 0.03151757 -8.376762E-10
v -0.0614644 0.006264127 -8.376762E-10
v -0.02965424 0.05514815 -8.376762E-10
v -0.02375435 0.02996928 -8.376762E-10
v -0.001367667 0.05977877 -8.376762E-10
v -0.001367667 0.03796032 -8.376762E-10
v 0.02702492 0.05633622 -8.376762E-10
v 0.02053507 0.03176214 -8.376762E-10
v 0.03874094 0.007319873 -8.376762E-10
v 0.04706235 0.0443899 -8.376762E-10
v 0.05446087 0.0309583 -8.376762E-10
v 0.0419638 -0.006980684 -8.376762E-10
v 0.0614644 -0.006980684 -8.376762E-10
v 0.0614644 0.009079589 -8.376762E-10
vt 0.1822415 0.5699957
vt 0.1829743 0.4507766
vt 5.960464E-08 0.4507766
vt 0.05780586 0.7639518
vt 9.99067E-08 0.5585203
vt 0.258769 0.9561815
vt 0.3067634 0.7513567
vt 0.4888744 0.9938507
vt 0.4888744 0.8163622
vt 0.7198421 0.9658462
vt 0.6670485 0.7659413
vt 0.8151494 0.5671086
vt 0.8828423 0.8686655
vt 0.9430277 0.7594022
vt 0.8413668 0.4507765
vt 1 0.4507766
vt 1 0.5814235
vn 0 0 1
vn 0 0 1
vn 0 0 1
vn 0 0 1
vn 0 0 1
vn 0 0 1
vn 0 0 1
vn 0 0 1
vn 0 0 1
vn 0 0 1
vn 0 0 1
vn 1.65382E-07 0 1
vn 0 0 1
vn 1.65382E-07 0 1
vn 1.65382E-07 0 1
vn 1.65382E-07 0 1
vn 1.65382E-07 0 1
g rainbowPlane_0
f 3/3/3 2/2/2 1/1/1
f 1/1/1 4/4/4 3/3/3
f 4/4/4 5/5/5 3/3/3
f 6/6/6 4/4/4 1/1/1
f 7/7/7 6/6/6 1/1/1
f 8/8/8 6/6/6 7/7/7
f 9/9/9 8/8/8 7/7/7
f 10/10/10 8/8/8 9/9/9
f 11/11/11 10/10/10 9/9/9
f 10/10/10 11/11/11 12/12/12
f 13/13/13 10/10/10 12/12/12
f 12/12/12 14/14/14 13/13/13
f 14/14/14 12/12/12 15/15/15
f 14/14/14 15/15/15 16/16/16
f 16/16/16 17/17/17 14/14/14
