g reactorBroken
v -0.01928506 0.009398367 -7.631736E-13
v 0.01641887 0.01578896 -7.631736E-13
v 0.01641887 0.009398367 -7.631736E-13
v -0.01928506 0.01578896 -7.631736E-13
v -0.01928506 -0.01578896 -7.631736E-13
v 0.01641887 -0.01578896 -7.631736E-13
v 0.02447387 0.009398367 -7.631736E-13
v 0.02447387 -0.01578896 -7.631736E-13
v -0.02447387 -0.01578896 -7.631736E-13
v -0.02447387 0.009398367 -7.631736E-13
vt 0.340687 0.3726997
vt 0.8766479 0.4686306
vt 0.8766479 0.3726997
vt 0.340687 0.4686306
vt 0.340687 -0.005393833
vt 0.8766479 -0.005393833
vt 0.9975637 0.3726997
vt 0.9975637 -0.005393833
vt 0.2627964 -0.005393833
vt 0.2627964 0.3726997
vn 0 0 1
vn 0 0 1
vn 0 0 1
vn 0 0 1
vn 0 0 1
vn 0 0 1
vn 0 0 1
vn 0 0 1
vn 0 0 1
vn 0 0 1
g reactorBroken_0
f 3/3/3 2/2/2 1/1/1
f 2/2/2 4/4/4 1/1/1
f 3/3/3 1/1/1 5/5/5
f 6/6/6 3/3/3 5/5/5
f 7/7/7 3/3/3 6/6/6
f 8/8/8 7/7/7 6/6/6
f 5/5/5 1/1/1 9/9/9
f 1/1/1 10/10/10 9/9/9
