g reactorBody
v -0.02223757 0.0006119048 5.551115E-19
v 0.01896249 0.01081624 5.551115E-19
v 0.01896249 0.0006119048 5.551115E-19
v -0.02223757 0.01081624 5.551115E-19
v -0.02223757 -0.02845267 5.551115E-19
v 0.01896249 -0.02845267 5.551115E-19
v 0.02825745 0.0006119048 5.551115E-19
v 0.02825745 -0.02845267 5.551115E-19
v -0.02822514 -0.02845267 5.551115E-19
v -0.02822514 0.0006119048 5.551115E-19
vt 0.1633922 0.5092623
vt 0.7870332 0.6637243
vt 0.7870332 0.5092623
vt 0.1633922 0.6637243
vt 0.1633922 0.06931485
vt 0.7870332 0.06931485
vt 0.92773 0.5092623
vt 0.9277301 0.06931485
vt 0.0727591 0.06931485
vt 0.0727591 0.5092623
vn 0 0 1
vn 0 0 1
vn 0 0 1
vn 0 0 1
vn 0 0 1
vn 0 0 1
vn 0 0 1
vn 0 0 1
vn 0 0 1
vn 0 0 1
g reactorBody_0
f 3/3/3 2/2/2 1/1/1
f 2/2/2 4/4/4 1/1/1
f 3/3/3 1/1/1 5/5/5
f 6/6/6 3/3/3 5/5/5
f 7/7/7 3/3/3 6/6/6
f 8/8/8 7/7/7 6/6/6
f 5/5/5 1/1/1 9/9/9
f 1/1/1 10/10/10 9/9/9
