g reactorBody
v -0.02223757 0.0006119048 5.551115E-19
v 0.01896249 0.01081624 5.551115E-19
v 0.01896249 0.0006119048 5.551115E-19
v -0.02223757 0.01081624 5.551115E-19
v -0.02223757 -0.02594628 5.551115E-19
v 0.01896249 -0.02594628 5.551115E-19
v -0.02223758 -0.03636362 5.551115E-19
v 0.01896249 -0.03636362 5.551115E-19
v 0.02825745 -0.02594628 5.551115E-19
v 0.02825744 -0.03636362 5.551115E-19
v -0.02822515 -0.03636362 5.551115E-19
v -0.02822514 -0.02594628 5.551115E-19
v 0.02825745 0.0006119048 5.551115E-19
v -0.02822514 0.0006119048 5.551115E-19
vt 0.1633922 0.5092623
vt 0.7870332 0.6637243
vt 0.7870332 0.5092623
vt 0.1633922 0.6637243
vt 0.1633922 0.107254
vt 0.7870332 0.107254
vt 0.1633922 0.06931485
vt 0.7870332 0.06931485
vt 0.9277301 0.107254
vt 0.9277301 0.06931485
vt 0.0727591 0.06931485
vt 0.0727591 0.107254
vt 0.92773 0.5092623
vt 0.0727591 0.5092623
vn 0 0 1
vn 0 0 1
vn 0 0 1
vn 0 0 1
vn 0 0 1
vn 0 0 1
vn 0 0 1
vn 0 0 1
vn 0 0 1
vn 0 0 1
vn 0 0 1
vn 0 0 1
vn 0 0 1
vn 0 0 1
g reactorBody_0
f 3/3/3 2/2/2 1/1/1
f 2/2/2 4/4/4 1/1/1
f 3/3/3 1/1/1 5/5/5
f 6/6/6 3/3/3 5/5/5
f 6/6/6 5/5/5 7/7/7
f 8/8/8 6/6/6 7/7/7
f 9/9/9 6/6/6 8/8/8
f 10/10/10 9/9/9 8/8/8
f 7/7/7 5/5/5 11/11/11
f 5/5/5 12/12/12 11/11/11
f 5/5/5 1/1/1 12/12/12
f 9/9/9 13/13/13 6/6/6
f 13/13/13 3/3/3 6/6/6
f 1/1/1 14/14/14 12/12/12
