g spacepet_v3_geo
v 0.0003629028 -0.0002204752 -0.001
v 0.002661122 0.0007686946 -0.0009999999
v 0.002661122 -0.0002204752 -0.001
v 0.0003629028 0.0007686946 -0.0009999999
v 0.002661122 0.001501712 -0.0009999999
v 0.0003629028 0.001501712 -0.0009999999
v 0.002661122 0.002151822 -0.001
v 0.0003629028 0.002151822 -0.001
v 0.002661122 0.00324393 -0.0009999999
v 0.0003629028 0.00324393 -0.0009999999
v 0.0002822724 0.002579184 0.001
v 0.006485583 0.00930438 0.0009999999
v 0.006485583 0.002579184 0.001
v 0.0002822724 0.00930438 0.0009999999
v -0.002410906 0.004447448 -0.0005332356
v -0.003610383 0.006755116 -0.0005332356
v -0.002410906 0.006755116 -0.0005332356
v -0.003610383 0.004447448 -0.0005332356
v -0.002410906 0.002267061 -0.0005332356
v -0.003610383 0.002267061 -0.0005332356
v -0.004502793 0.006755116 -0.0005332356
v -0.004502793 0.004447448 -0.0005332356
v -0.005489591 0.006755116 -0.0005332356
v -0.005489591 0.004447448 -0.0005332356
v -0.006521797 0.006755116 -0.0005332356
v -0.006521797 0.004447448 -0.0005332356
v -0.005489591 0.002267061 -0.0005332356
v -0.006521797 0.002267061 -0.0005332356
v -0.007551988 0.006755116 -0.0005332356
v -0.007551988 0.004447448 -0.0005332356
v -0.007551988 0.002267061 -0.0005332356
v -0.008887692 0.006755116 -0.0005332356
v -0.008887692 0.004447448 -0.0005332356
v -0.008887692 0.002267061 -0.0005332356
v -0.004502793 0.002267061 -0.0005332356
v 0.005736273 0.0001446011 0
v 0.00734917 0.003892051 0
v 0.00734917 0.0001446011 0
v 0.005736273 0.003892051 0
v 0.00734917 0.007948318 0
v 0.005736273 0.007948318 0
v 0.004152901 0.003892051 0
v 0.004152901 0.007948318 0
v 0.002772018 0.003892051 0
v 0.002772018 0.007948318 0
v 0.002111478 0.003892051 0
v 0.002111478 0.007948318 0
v 0.002111478 0.0001446011 0
v 0.002772018 0.0001446011 0
v 0.001331173 0.003892051 0
v 0.001331173 0.007948318 0
v 0.0002945542 0.003892051 0
v 0.0002945542 0.007948318 0
v 0.0002945542 0.0001446011 0
v 0.001331173 0.0001446011 0
v 0.004152901 0.0001446011 0
v -0.0008635968 0.003892051 0
v -0.0008635968 0.007948318 0
v -0.002451505 0.003892051 0
v -0.002451505 0.007948318 0
v -0.002451505 0.0001446011 0
v -0.0008635968 0.0001446011 0
v -0.004649194 0.003892051 0
v -0.004649194 0.007948318 0
v -0.004649194 0.0001446011 0
v -0.001016654 -0.0002204752 -0.0005
v 0.001310131 0.0007686946 -0.0005
v 0.001310131 -0.0002204752 -0.0005
v -0.001016654 0.0007686946 -0.0005
v 0.001310131 0.001501712 -0.0005
v -0.001016654 0.001501712 -0.0005
v 0.001310131 0.002151822 -0.0005
v -0.001016654 0.002151822 -0.0005
v 0.001310131 0.00324393 -0.0005
v -0.001016654 0.00324393 -0.0005
v -0.003069324 -0.0002204757 -0.0009999999
v -0.0007888651 0.0007686946 -0.0009999999
v -0.0007888651 -0.0002204752 -0.001
v -0.003069324 0.000768694 -0.001
v -0.0007888651 0.001501712 -0.0009999999
v -0.003069324 0.001501712 -0.0009999999
v -0.0007888651 0.002151822 -0.001
v -0.003069324 0.002151822 -0.001
v -0.0007888651 0.00324393 -0.0009999999
v -0.003069324 0.00324393 -0.0009999999
v -0.004108248 -0.0002204762 -0.0005
v -0.001974109 0.000768694 -0.0005
v -0.001974109 -0.0002204757 -0.0005
v -0.004108248 0.0007686935 -0.0005
v -0.001974109 0.001501712 -0.0005
v -0.004108248 0.001501712 -0.0005
v -0.001974109 0.002151822 -0.0005
v -0.004108248 0.002151822 -0.0005
v -0.001974109 0.00324393 -0.0005
v -0.004108248 0.00324393 -0.0005
v -9.805411E-05 0.002046575 0.0015
v 0.007867336 0.01034344 0.0015
v 0.007867336 0.002046575 0.0015
v -9.805411E-05 0.01034344 0.0015
v 0.00078728 0.001223792 0.0005
v 0.007865136 0.008597675 0.0005
v 0.007865136 0.001223792 0.0005
v 0.0007872799 0.008597675 0.0005
vt 0.3988288 0.0156029
vt 0.5263222 0.07047699
vt 0.5263222 0.0156029
vt 0.3988288 0.07047699
vt 0.5263222 0.1111411
vt 0.3988288 0.1111411
vt 0.5263222 0.1472059
vt 0.3988288 0.1472059
vt 0.5263222 0.2077905
vt 0.3988288 0.2077905
vt 0.689653 0.3042443
vt 1 0.6407009
vt 1 0.3042443
vt 0.689653 0.6407009
vt 0.1209568 0.6407009
vt 0.2489744 0.7072418
vt 0.2489744 0.6407009
vt 0.1209568 0.7072418
vt 0 0.6407009
vt 0 0.7072418
vt 0.2489744 0.7567482
vt 0.1209568 0.7567482
vt 0.2489744 0.8114907
vt 0.1209568 0.8114907
vt 0.2489744 0.8687522
vt 0.1209568 0.8687522
vt 0 0.8114907
vt 0 0.8687522
vt 0.2489744 0.9259019
vt 0.1209568 0.9259019
vt 0 0.9259019
vt 0.2489744 1
vt 0.1209568 1
vt 0 1
vt 0 0.7567481
vt 0.5761328 0.2077905
vt 0.665608 0.4156799
vt 0.665608 0.2077905
vt 0.5761328 0.4156799
vt 0.665608 0.6407009
vt 0.5761328 0.6407009
vt 0.4882953 0.4156799
vt 0.4882953 0.6407009
vt 0.411691 0.4156799
vt 0.411691 0.6407009
vt 0.3750476 0.4156799
vt 0.3750476 0.6407009
vt 0.3750476 0.2077905
vt 0.411691 0.2077905
vt 0.3317602 0.4156799
vt 0.3317602 0.6407009
vt 0.2742539 0.4156799
vt 0.2742539 0.6407009
vt 0.2742539 0.2077905
vt 0.3317602 0.2077905
vt 0.4882953 0.2077905
vt 0.2100056 0.4156799
vt 0.2100056 0.6407009
vt 0.1219165 0.4156799
vt 0.1219165 0.6407009
vt 0.1219165 0.2077905
vt 0.2100056 0.2077905
vt 0 0.4156799
vt 0 0.6407009
vt 0 0.2077905
vt 0.2697507 0.0156029
vt 0.3988288 0.07047699
vt 0.3988288 0.0156029
vt 0.2697507 0.07047699
vt 0.3988288 0.1111411
vt 0.2697507 0.1111411
vt 0.3988288 0.1472059
vt 0.2697507 0.1472059
vt 0.3988288 0.2077905
vt 0.2697507 0.2077905
vt 0.1432424 0.0156029
vt 0.2697507 0.07047699
vt 0.2697507 0.0156029
vt 0.1432424 0.07047699
vt 0.2697507 0.1111411
vt 0.1432424 0.1111411
vt 0.2697507 0.1472059
vt 0.1432424 0.1472059
vt 0.2697507 0.2077905
vt 0.1432424 0.2077905
vt 0.02485128 0.0156029
vt 0.1432424 0.07047699
vt 0.1432424 0.0156029
vt 0.02485128 0.07047699
vt 0.1432424 0.1111411
vt 0.02485128 0.1111411
vt 0.1432424 0.1472059
vt 0.02485128 0.1472059
vt 0.1432424 0.2077905
vt 0.02485128 0.2077905
vt 0.6550556 0.6407009
vt 1 1
vt 1 0.6407009
vt 0.6550556 1
vt 0.3101806 0.6407009
vt 0.6550556 1
vt 0.6550556 0.6407009
vt 0.3101806 1
vn 0 -1.673811E-07 1
vn 0 0 1
vn 0 -1.673811E-07 1
vn 0 0 1
vn 0 1.197059E-07 1
vn 0 1.197059E-07 1
vn 0 0 1
vn 0 0 1
vn 0 -1.516043E-07 1
vn 0 -1.516043E-07 1
vn 0 0 1
vn 0 0 1
vn 0 0 1
vn 0 0 1
vn 0 0 1
vn 0 0 1
vn 0 0 1
vn 0 0 1
vn 0 0 1
vn 0 0 1
vn 0 0 1
vn 0 0 1
vn 0 0 1
vn 0 0 1
vn 0 0 1
vn 0 0 1
vn 0 0 1
vn 0 0 1
vn 0 0 1
vn 0 0 1
vn 0 0 1
vn 0 0 1
vn 0 0 1
vn 0 0 1
vn 0 0 1
vn 0 0 1
vn 0 0 1
vn 0 0 1
vn 0 0 1
vn 0 0 1
vn 0 0 1
vn 0 0 1
vn 0 0 1
vn 0 0 1
vn 0 0 1
vn 0 0 1
vn 0 0 1
vn 0 0 1
vn 0 0 1
vn 0 0 1
vn 0 0 1
vn 0 0 1
vn 0 0 1
vn 0 0 1
vn 0 0 1
vn 0 0 1
vn 0 0 1
vn 0 0 1
vn 0 0 1
vn 0 0 1
vn 0 0 1
vn 0 0 1
vn 0 0 1
vn 0 0 1
vn 0 0 1
vn 0 0 1
vn 0 0 1
vn 0 0 1
vn 0 0 1
vn 0 0 1
vn 0 0 1
vn 0 0 1
vn 0 0 1
vn 0 0 1
vn 0 0 1
vn 0 0 1
vn 0 0 1
vn 0 0 1
vn 0 0 1
vn 0 0 1
vn 0 0 1
vn 0 0 1
vn 0 0 1
vn 0 -1.516045E-07 1
vn 0 -1.516045E-07 1
vn 0 0 1
vn 0 0 1
vn 0 0 1
vn 0 0 1
vn 0 0 1
vn 0 0 1
vn 0 0 1
vn 0 0 1
vn 0 0 1
vn 0 0 1
vn 0 0 1
vn 0 0 1
vn 0 0 1
vn 0 0 1
vn 0 0 1
vn 0 0 1
vn 0 0 1
vn 0 0 1
g spacepet_v3_geo_0
f 3/3/3 2/2/2 1/1/1
f 2/2/2 4/4/4 1/1/1
f 2/2/2 5/5/5 4/4/4
f 5/5/5 6/6/6 4/4/4
f 5/5/5 7/7/7 6/6/6
f 7/7/7 8/8/8 6/6/6
f 7/7/7 9/9/9 8/8/8
f 9/9/9 10/10/10 8/8/8
f 13/13/13 12/12/12 11/11/11
f 12/12/12 14/14/14 11/11/11
f 17/17/17 16/16/16 15/15/15
f 16/16/16 18/18/18 15/15/15
f 15/15/15 18/18/18 19/19/19
f 18/18/18 20/20/20 19/19/19
f 16/16/16 21/21/21 18/18/18
f 21/21/21 22/22/22 18/18/18
f 18/18/18 22/22/22 20/20/20
f 21/21/21 23/23/23 22/22/22
f 23/23/23 24/24/24 22/22/22
f 23/23/23 25/25/25 24/24/24
f 25/25/25 26/26/26 24/24/24
f 24/24/24 26/26/26 27/27/27
f 26/26/26 28/28/28 27/27/27
f 25/25/25 29/29/29 26/26/26
f 29/29/29 30/30/30 26/26/26
f 26/26/26 30/30/30 28/28/28
f 30/30/30 31/31/31 28/28/28
f 29/29/29 32/32/32 30/30/30
f 32/32/32 33/33/33 30/30/30
f 30/30/30 33/33/33 31/31/31
f 33/33/33 34/34/34 31/31/31
f 22/22/22 24/24/24 35/35/35
f 24/24/24 27/27/27 35/35/35
f 22/22/22 35/35/35 20/20/20
f 38/38/38 37/37/37 36/36/36
f 37/37/37 39/39/39 36/36/36
f 37/37/37 40/40/40 39/39/39
f 40/40/40 41/41/41 39/39/39
f 39/39/39 41/41/41 42/42/42
f 41/41/41 43/43/43 42/42/42
f 42/42/42 43/43/43 44/44/44
f 43/43/43 45/45/45 44/44/44
f 44/44/44 45/45/45 46/46/46
f 45/45/45 47/47/47 46/46/46
f 44/44/44 46/46/46 48/48/48
f 49/49/49 44/44/44 48/48/48
f 42/42/42 44/44/44 49/49/49
f 46/46/46 47/47/47 50/50/50
f 47/47/47 51/51/51 50/50/50
f 50/50/50 51/51/51 52/52/52
f 51/51/51 53/53/53 52/52/52
f 50/50/50 52/52/52 54/54/54
f 55/55/55 50/50/50 54/54/54
f 48/48/48 46/46/46 55/55/55
f 46/46/46 50/50/50 55/55/55
f 56/56/56 42/42/42 49/49/49
f 39/39/39 42/42/42 56/56/56
f 36/36/36 39/39/39 56/56/56
f 52/52/52 53/53/53 57/57/57
f 53/53/53 58/58/58 57/57/57
f 57/57/57 58/58/58 59/59/59
f 58/58/58 60/60/60 59/59/59
f 57/57/57 59/59/59 61/61/61
f 62/62/62 57/57/57 61/61/61
f 54/54/54 52/52/52 62/62/62
f 52/52/52 57/57/57 62/62/62
f 59/59/59 60/60/60 63/63/63
f 60/60/60 64/64/64 63/63/63
f 61/61/61 59/59/59 65/65/65
f 59/59/59 63/63/63 65/65/65
f 68/68/68 67/67/67 66/66/66
f 67/67/67 69/69/69 66/66/66
f 67/67/67 70/70/70 69/69/69
f 70/70/70 71/71/71 69/69/69
f 70/70/70 72/72/72 71/71/71
f 72/72/72 73/73/73 71/71/71
f 72/72/72 74/74/74 73/73/73
f 74/74/74 75/75/75 73/73/73
f 78/78/78 77/77/77 76/76/76
f 77/77/77 79/79/79 76/76/76
f 77/77/77 80/80/80 79/79/79
f 80/80/80 81/81/81 79/79/79
f 80/80/80 82/82/82 81/81/81
f 82/82/82 83/83/83 81/81/81
f 82/82/82 84/84/84 83/83/83
f 84/84/84 85/85/85 83/83/83
f 88/88/88 87/87/87 86/86/86
f 87/87/87 89/89/89 86/86/86
f 87/87/87 90/90/90 89/89/89
f 90/90/90 91/91/91 89/89/89
f 90/90/90 92/92/92 91/91/91
f 92/92/92 93/93/93 91/91/91
f 92/92/92 94/94/94 93/93/93
f 94/94/94 95/95/95 93/93/93
f 98/98/98 97/97/97 96/96/96
f 97/97/97 99/99/99 96/96/96
f 102/102/102 101/101/101 100/100/100
f 101/101/101 103/103/103 100/100/100
